<svg id="Layer_1" data-name="Layer 1" xmlns="http://www.w3.org/2000/svg" viewBox="0 0 1572 940">
  <defs>
    <style>
      .cls-1 {
        fill: #4a5568;
        stroke: #4a5568;
        stroke-miterlimit: 10;
        stroke-width: 5px;
      }
    </style>
  </defs>
  <title>Artboard 1</title>
  <path class="cls-1" d="M1462.27,613.43a1.48,1.48,0,1,0-1.45-1.48A1.47,1.47,0,0,0,1462.27,613.43Z"/>
  <path class="cls-1" d="M1469.91,636.71a1.48,1.48,0,1,0-1.46-1.48A1.46,1.46,0,0,0,1469.91,636.71Z"/>
  <path class="cls-1" d="M1472.8,658a1.49,1.49,0,1,0-1.45-1.48A1.47,1.47,0,0,0,1472.8,658Z"/>
  <path class="cls-1" d="M1475.7,680.94a1.49,1.49,0,1,0-1.45-1.49A1.47,1.47,0,0,0,1475.7,680.94Z"/>
  <path class="cls-1" d="M1455.22,591.74a1.48,1.48,0,1,0-1.45-1.48A1.46,1.46,0,0,0,1455.22,591.74Z"/>
  <path class="cls-1" d="M1078.9,442.48a1.48,1.48,0,1,0-1.45-1.48A1.46,1.46,0,0,0,1078.9,442.48Z"/>
  <path class="cls-1" d="M1102.25,444.32a1.49,1.49,0,1,0-1.45-1.49A1.47,1.47,0,0,0,1102.25,444.32Z"/>
  <path class="cls-1" d="M1126,442.84a1.48,1.48,0,1,0-1.45-1.48A1.47,1.47,0,0,0,1126,442.84Z"/>
  <path class="cls-1" d="M1147.86,444.32a1.49,1.49,0,1,0-1.45-1.49A1.47,1.47,0,0,0,1147.86,444.32Z"/>
  <path class="cls-1" d="M1171.22,444.32a1.49,1.49,0,1,0-1.45-1.49A1.47,1.47,0,0,0,1171.22,444.32Z"/>
  <path class="cls-1" d="M1193.15,444.32a1.49,1.49,0,1,0-1.45-1.49A1.47,1.47,0,0,0,1193.15,444.32Z"/>
  <path class="cls-1" d="M1216.62,444.32a1.49,1.49,0,1,0-1.45-1.49A1.47,1.47,0,0,0,1216.62,444.32Z"/>
  <path class="cls-1" d="M1240.18,444.32a1.49,1.49,0,1,0-1.45-1.49A1.47,1.47,0,0,0,1240.18,444.32Z"/>
  <path class="cls-1" d="M1261.88,445.8a1.49,1.49,0,1,0-1.45-1.48A1.47,1.47,0,0,0,1261.88,445.8Z"/>
  <path class="cls-1" d="M1284.8,447.28a1.48,1.48,0,1,0-1.45-1.48A1.47,1.47,0,0,0,1284.8,447.28Z"/>
  <path class="cls-1" d="M1307.26,453.67a1.48,1.48,0,1,0-1.45-1.48A1.46,1.46,0,0,0,1307.26,453.67Z"/>
  <path class="cls-1" d="M1329.39,463.24a1.48,1.48,0,1,0-1.45-1.48A1.46,1.46,0,0,0,1329.39,463.24Z"/>
  <path class="cls-1" d="M1348.83,472.16a1.48,1.48,0,1,0-1.45-1.48A1.46,1.46,0,0,0,1348.83,472.16Z"/>
  <path class="cls-1" d="M1368.38,484.13a1.48,1.48,0,1,0-1.45-1.48A1.46,1.46,0,0,0,1368.38,484.13Z"/>
  <path class="cls-1" d="M1388.72,499.33a1.49,1.49,0,1,0-1.45-1.48A1.47,1.47,0,0,0,1388.72,499.33Z"/>
  <path class="cls-1" d="M1404.36,514.49a1.48,1.48,0,1,0-1.45-1.48A1.46,1.46,0,0,0,1404.36,514.49Z"/>
  <path class="cls-1" d="M1420,532.86a1.49,1.49,0,1,0-1.45-1.48A1.47,1.47,0,0,0,1420,532.86Z"/>
  <path class="cls-1" d="M1434,551.13a1.48,1.48,0,1,0-1.45-1.48A1.46,1.46,0,0,0,1434,551.13Z"/>
  <path class="cls-1" d="M1445.18,571.1a1.48,1.48,0,1,0-1.45-1.48A1.46,1.46,0,0,0,1445.18,571.1Z"/>
  <path class="cls-1" d="M125.1,293.13a1.49,1.49,0,1,0-1.45-1.49A1.47,1.47,0,0,0,125.1,293.13Z"/>
  <path class="cls-1" d="M136,313.89a1.48,1.48,0,1,0-1.45-1.48A1.46,1.46,0,0,0,136,313.89Z"/>
  <path class="cls-1" d="M147.78,333.86a1.49,1.49,0,1,0-1.45-1.48A1.47,1.47,0,0,0,147.78,333.86Z"/>
  <path class="cls-1" d="M162,351.54a1.48,1.48,0,1,0-1.45-1.48A1.46,1.46,0,0,0,162,351.54Z"/>
  <path class="cls-1" d="M177.73,370.59a1.48,1.48,0,1,0-1.45-1.48A1.46,1.46,0,0,0,177.73,370.59Z"/>
  <path class="cls-1" d="M194.93,385a1.48,1.48,0,1,0-1.45-1.48A1.46,1.46,0,0,0,194.93,385Z"/>
  <path class="cls-1" d="M212.83,401.63a1.48,1.48,0,1,0-1.45-1.48A1.46,1.46,0,0,0,212.83,401.63Z"/>
  <path class="cls-1" d="M364.48,441.36a1.49,1.49,0,1,0-1.45-1.49A1.47,1.47,0,0,0,364.48,441.36Z"/>
  <path class="cls-1" d="M387.4,441a1.48,1.48,0,1,0-1.45-1.48A1.46,1.46,0,0,0,387.4,441Z"/>
  <path class="cls-1" d="M410.87,441a1.48,1.48,0,1,0-1.45-1.48A1.46,1.46,0,0,0,410.87,441Z"/>
  <path class="cls-1" d="M434.89,441a1.48,1.48,0,1,0-1.45-1.48A1.46,1.46,0,0,0,434.89,441Z"/>
  <path class="cls-1" d="M456.92,441.36a1.49,1.49,0,1,0-1.45-1.49A1.47,1.47,0,0,0,456.92,441.36Z"/>
  <path class="cls-1" d="M480.51,439.87a1.48,1.48,0,1,0-1.46-1.48A1.46,1.46,0,0,0,480.51,439.87Z"/>
  <path class="cls-1" d="M503.07,439.87a1.48,1.48,0,1,0-1.45-1.48A1.46,1.46,0,0,0,503.07,439.87Z"/>
  <path class="cls-1" d="M527.21,441.36a1.49,1.49,0,1,0-1.45-1.49A1.47,1.47,0,0,0,527.21,441.36Z"/>
  <path class="cls-1" d="M549.9,442.84a1.48,1.48,0,1,0-1.45-1.48A1.47,1.47,0,0,0,549.9,442.84Z"/>
  <path class="cls-1" d="M572.59,442.48a1.48,1.48,0,1,0-1.45-1.48A1.46,1.46,0,0,0,572.59,442.48Z"/>
  <path class="cls-1" d="M595.51,442.48a1.48,1.48,0,1,0-1.45-1.48A1.46,1.46,0,0,0,595.51,442.48Z"/>
  <path class="cls-1" d="M618.09,442.48a1.48,1.48,0,1,0-1.46-1.48A1.46,1.46,0,0,0,618.09,442.48Z"/>
  <path class="cls-1" d="M641.55,442.48A1.48,1.48,0,1,0,640.1,441,1.46,1.46,0,0,0,641.55,442.48Z"/>
  <path class="cls-1" d="M663.46,442.48A1.48,1.48,0,1,0,662,441,1.46,1.46,0,0,0,663.46,442.48Z"/>
  <path class="cls-1" d="M688.38,442.48a1.48,1.48,0,1,0-1.45-1.48A1.46,1.46,0,0,0,688.38,442.48Z"/>
  <path class="cls-1" d="M710.29,441.36a1.49,1.49,0,1,0-1.45-1.49A1.47,1.47,0,0,0,710.29,441.36Z"/>
  <path class="cls-1" d="M732.31,442.84a1.48,1.48,0,1,0-1.45-1.48A1.47,1.47,0,0,0,732.31,442.84Z"/>
  <path class="cls-1" d="M756.45,442.48A1.48,1.48,0,1,0,755,441,1.46,1.46,0,0,0,756.45,442.48Z"/>
  <path class="cls-1" d="M779.13,442.48a1.48,1.48,0,1,0-1.45-1.48A1.46,1.46,0,0,0,779.13,442.48Z"/>
  <path class="cls-1" d="M804.4,442.48A1.48,1.48,0,1,0,803,441,1.46,1.46,0,0,0,804.4,442.48Z"/>
  <path class="cls-1" d="M826.19,442.48a1.48,1.48,0,1,0-1.45-1.48A1.46,1.46,0,0,0,826.19,442.48Z"/>
  <path class="cls-1" d="M849.43,442.48A1.48,1.48,0,1,0,848,441,1.46,1.46,0,0,0,849.43,442.48Z"/>
  <path class="cls-1" d="M872.35,442.84a1.48,1.48,0,1,0-1.45-1.48A1.47,1.47,0,0,0,872.35,442.84Z"/>
  <path class="cls-1" d="M895.24,442.48a1.48,1.48,0,1,0-1.45-1.48A1.46,1.46,0,0,0,895.24,442.48Z"/>
  <path class="cls-1" d="M917.55,442.48A1.48,1.48,0,1,0,916.1,441,1.46,1.46,0,0,0,917.55,442.48Z"/>
  <path class="cls-1" d="M940.13,442.84a1.48,1.48,0,1,0-1.45-1.48A1.47,1.47,0,0,0,940.13,442.84Z"/>
  <path class="cls-1" d="M963.31,442.84a1.48,1.48,0,1,0-1.45-1.48A1.47,1.47,0,0,0,963.31,442.84Z"/>
  <path class="cls-1" d="M985.3,442.48a1.48,1.48,0,1,0-1.45-1.48A1.46,1.46,0,0,0,985.3,442.48Z"/>
  <path class="cls-1" d="M1009.67,442.48a1.48,1.48,0,1,0-1.45-1.48A1.46,1.46,0,0,0,1009.67,442.48Z"/>
  <path class="cls-1" d="M1033.4,442.84a1.48,1.48,0,1,0-1.45-1.48A1.47,1.47,0,0,0,1033.4,442.84Z"/>
  <path class="cls-1" d="M1055.43,442.48A1.48,1.48,0,1,0,1054,441,1.46,1.46,0,0,0,1055.43,442.48Z"/>
  <path class="cls-1" d="M231.6,410.64a1.49,1.49,0,1,0-1.45-1.49A1.47,1.47,0,0,0,231.6,410.64Z"/>
  <path class="cls-1" d="M252.72,423.43a1.48,1.48,0,1,0-1.45-1.48A1.46,1.46,0,0,0,252.72,423.43Z"/>
  <path class="cls-1" d="M273.84,430.39a1.48,1.48,0,1,0-1.45-1.48A1.46,1.46,0,0,0,273.84,430.39Z"/>
  <path class="cls-1" d="M296.53,436.55a1.48,1.48,0,1,0-1.45-1.48A1.46,1.46,0,0,0,296.53,436.55Z"/>
  <path class="cls-1" d="M318.44,439.52A1.48,1.48,0,1,0,317,438,1.47,1.47,0,0,0,318.44,439.52Z"/>
  <path class="cls-1" d="M341.91,439.87a1.48,1.48,0,1,0-1.45-1.48A1.46,1.46,0,0,0,341.91,439.87Z"/>
  <path class="cls-1" d="M109.89,202.9a1.48,1.48,0,1,0-1.45-1.48A1.47,1.47,0,0,0,109.89,202.9Z"/>
  <path class="cls-1" d="M111.34,224.52a1.48,1.48,0,1,0-1.45-1.48A1.46,1.46,0,0,0,111.34,224.52Z"/>
  <path class="cls-1" d="M112.79,248.37a1.49,1.49,0,1,0-1.45-1.48A1.47,1.47,0,0,0,112.79,248.37Z"/>
  <path class="cls-1" d="M119,270.85a1.48,1.48,0,1,0-1.46-1.48A1.46,1.46,0,0,0,119,270.85Z"/>
</svg>
