<svg width="1244" height="747" viewBox="0 0 1244 747" fill="none" xmlns="http://www.w3.org/2000/svg">
<g filter="url(#filter0_d_399_15)">
<circle cx="1107.5" cy="132.5" r="132.5" fill="white"/>
</g>
<path opacity="0.3" d="M1167.87 135.531V118H1153.78V135.531H1114.69V118H1100.6V135.531H1061.51V118H1047.78V135.531H1027V151.469H1047.78V169H1061.51V151.469H1100.6V169H1114.69V151.469H1153.78V169H1167.87V151.469H1189V135.531H1167.87Z" fill="#E70082"/>
<path d="M1150 148.5H1145.49V207H1150V148.5Z" fill="#4A5568"/>
<path d="M1046.44 175.5V126.225C1046.44 99.225 1069.18 76.5 1095.97 76.5V72C1066.7 72 1041.94 96.75 1041.94 126.225V177.75C1041.94 179.1 1042.84 180 1044.19 180H1091.47V207H1095.97V180H1104.97V175.5H1093.72H1046.44Z" fill="#4A5568"/>
<path d="M1059.95 137.25V153C1059.95 154.35 1060.85 155.25 1062.2 155.25H1073.46V150.75H1064.45V137.25H1059.95Z" fill="#4A5568"/>
<path d="M1131.76 93.825C1131.54 92.925 1130.64 92.25 1129.74 92.25C1128.84 92.25 1127.94 92.925 1127.71 93.825L1121.18 113.4C1120.96 113.85 1120.73 114.3 1120.73 114.75V189V207H1125.23V191.25H1127.49H1131.99H1134.24V207H1138.74V189V114.75C1138.74 114.3 1138.52 113.625 1138.29 113.4L1131.76 93.825ZM1129.74 101.7L1133.34 112.5H1126.13L1129.74 101.7ZM1125.23 186.75V117H1127.49V186.75H1125.23ZM1131.99 186.75V117H1134.24V186.75H1131.99Z" fill="#4A5568"/>
<path d="M1131.99 78.7501H1127.49V83.2501H1131.99V78.7501Z" fill="#4A5568"/>
<path d="M1140.99 78.7501H1136.49V83.2501H1140.99V78.7501Z" fill="#4A5568"/>
<path d="M1150 78.7501H1145.49V83.2501H1150V78.7501Z" fill="#4A5568"/>
<path d="M1113.98 78.7501H1109.48V83.2501H1113.98V78.7501Z" fill="#4A5568"/>
<path d="M1122.98 78.7501H1118.48V83.2501H1122.98V78.7501Z" fill="#4A5568"/>
<path d="M1159 87.7501H1154.5V92.2501H1159V87.7501Z" fill="#4A5568"/>
<path d="M1159 96.75H1154.5V101.25H1159V96.75Z" fill="#4A5568"/>
<path d="M1159 105.75H1154.5V110.25H1159V105.75Z" fill="#4A5568"/>
<path d="M1159 114.75H1154.5V119.25H1159V114.75Z" fill="#4A5568"/>
<path d="M1159 123.75H1154.5V128.25H1159V123.75Z" fill="#4A5568"/>
<path d="M1104.97 87.7501H1100.47V92.2501H1104.97V87.7501Z" fill="#4A5568"/>
<path d="M1104.97 96.75H1100.47V101.25H1104.97V96.75Z" fill="#4A5568"/>
<path d="M1104.97 105.75H1100.47V110.25H1104.97V105.75Z" fill="#4A5568"/>
<path d="M1104.97 114.75H1100.47V119.25H1104.97V114.75Z" fill="#4A5568"/>
<path d="M1104.97 123.75H1100.47V128.25H1104.97V123.75Z" fill="#4A5568"/>
<path d="M1113.98 123.75H1109.48V128.25H1113.98V123.75Z" fill="#4A5568"/>
<path d="M1150 123.75H1145.49V128.25H1150V123.75Z" fill="#4A5568"/>
<path d="M15.3082 678.036C14.6457 678.036 14.1087 677.388 14.1087 676.589C14.1087 675.79 14.6457 675.142 15.3082 675.142C15.9706 675.142 16.5076 675.79 16.5076 676.589C16.5076 677.388 15.9706 678.036 15.3082 678.036Z" fill="#4A5568" stroke="#4A5568" stroke-width="5" stroke-miterlimit="10"/>
<path d="M8.99407 700.787C8.33166 700.787 7.79466 700.139 7.79466 699.34C7.79466 698.541 8.33166 697.893 8.99407 697.893C9.65649 697.893 10.1935 698.541 10.1935 699.34C10.1935 700.139 9.65649 700.787 8.99407 700.787Z" fill="#4A5568" stroke="#4A5568" stroke-width="5" stroke-miterlimit="10"/>
<path d="M6.59992 721.625C5.93744 721.625 5.40039 720.977 5.40039 720.178C5.40039 719.378 5.93744 718.73 6.59992 718.73C7.26239 718.73 7.79944 719.378 7.79944 720.178C7.79944 720.977 7.26239 721.625 6.59992 721.625Z" fill="#4A5568" stroke="#4A5568" stroke-width="5" stroke-miterlimit="10"/>
<path d="M4.19931 744C3.53684 744 2.99981 743.352 2.99981 742.553C2.99981 741.753 3.53684 741.105 4.19931 741.105C4.86177 741.105 5.3988 741.753 5.3988 742.553C5.3988 743.352 4.86177 744 4.19931 744Z" fill="#4A5568" stroke="#4A5568" stroke-width="5" stroke-miterlimit="10"/>
<path d="M21.1363 656.849C20.4739 656.849 19.9369 656.201 19.9369 655.401C19.9369 654.602 20.4739 653.954 21.1363 653.954C21.7987 653.954 22.3357 654.602 22.3357 655.401C22.3357 656.201 21.7987 656.849 21.1363 656.849Z" fill="#4A5568" stroke="#4A5568" stroke-width="5" stroke-miterlimit="10"/>
<path d="M332.301 510.999C331.638 510.999 331.101 510.351 331.101 509.552C331.101 508.752 331.638 508.104 332.301 508.104C332.963 508.104 333.5 508.752 333.5 509.552C333.5 510.351 332.963 510.999 332.301 510.999Z" fill="#4A5568" stroke="#4A5568" stroke-width="5" stroke-miterlimit="10"/>
<path d="M312.99 512.79C312.328 512.79 311.791 512.142 311.791 511.343C311.791 510.544 312.328 509.896 312.99 509.896C313.653 509.896 314.19 510.544 314.19 511.343C314.19 512.142 313.653 512.79 312.99 512.79Z" fill="#4A5568" stroke="#4A5568" stroke-width="5" stroke-miterlimit="10"/>
<path d="M293.394 511.347C292.732 511.347 292.195 510.699 292.195 509.899C292.195 509.1 292.732 508.452 293.394 508.452C294.056 508.452 294.594 509.1 294.594 509.899C294.594 510.699 294.056 511.347 293.394 511.347Z" fill="#4A5568" stroke="#4A5568" stroke-width="5" stroke-miterlimit="10"/>
<path d="M275.281 512.79C274.618 512.79 274.081 512.142 274.081 511.343C274.081 510.544 274.618 509.896 275.281 509.896C275.943 509.896 276.48 510.544 276.48 511.343C276.48 512.142 275.943 512.79 275.281 512.79Z" fill="#4A5568" stroke="#4A5568" stroke-width="5" stroke-miterlimit="10"/>
<path d="M255.965 512.79C255.303 512.79 254.766 512.142 254.766 511.343C254.766 510.544 255.303 509.896 255.965 509.896C256.628 509.896 257.165 510.544 257.165 511.343C257.165 512.142 256.628 512.79 255.965 512.79Z" fill="#4A5568" stroke="#4A5568" stroke-width="5" stroke-miterlimit="10"/>
<path d="M237.832 512.79C237.17 512.79 236.633 512.142 236.633 511.343C236.633 510.544 237.17 509.896 237.832 509.896C238.494 509.896 239.031 510.544 239.031 511.343C239.031 512.142 238.494 512.79 237.832 512.79Z" fill="#4A5568" stroke="#4A5568" stroke-width="5" stroke-miterlimit="10"/>
<path d="M218.425 512.79C217.762 512.79 217.225 512.142 217.225 511.343C217.225 510.544 217.762 509.896 218.425 509.896C219.087 509.896 219.624 510.544 219.624 511.343C219.624 512.142 219.087 512.79 218.425 512.79Z" fill="#4A5568" stroke="#4A5568" stroke-width="5" stroke-miterlimit="10"/>
<path d="M198.945 512.79C198.283 512.79 197.746 512.142 197.746 511.343C197.746 510.544 198.283 509.896 198.945 509.896C199.608 509.896 200.145 510.544 200.145 511.343C200.145 512.142 199.608 512.79 198.945 512.79Z" fill="#4A5568" stroke="#4A5568" stroke-width="5" stroke-miterlimit="10"/>
<path d="M181.001 514.238C180.338 514.238 179.801 513.591 179.801 512.791C179.801 511.992 180.338 511.344 181.001 511.344C181.663 511.344 182.2 511.992 182.2 512.791C182.2 513.591 181.663 514.238 181.001 514.238Z" fill="#4A5568" stroke="#4A5568" stroke-width="5" stroke-miterlimit="10"/>
<path d="M162.049 515.685C161.387 515.685 160.85 515.037 160.85 514.238C160.85 513.439 161.387 512.791 162.049 512.791C162.712 512.791 163.249 513.439 163.249 514.238C163.249 515.037 162.712 515.685 162.049 515.685Z" fill="#4A5568" stroke="#4A5568" stroke-width="5" stroke-miterlimit="10"/>
<path d="M143.481 521.937C142.818 521.937 142.281 521.289 142.281 520.489C142.281 519.69 142.818 519.042 143.481 519.042C144.143 519.042 144.68 519.69 144.68 520.489C144.68 521.289 144.143 521.937 143.481 521.937Z" fill="#4A5568" stroke="#4A5568" stroke-width="5" stroke-miterlimit="10"/>
<path d="M125.178 531.287C124.516 531.287 123.979 530.639 123.979 529.84C123.979 529.04 124.516 528.392 125.178 528.392C125.841 528.392 126.378 529.04 126.378 529.84C126.378 530.639 125.841 531.287 125.178 531.287Z" fill="#4A5568" stroke="#4A5568" stroke-width="5" stroke-miterlimit="10"/>
<path d="M109.107 540.001C108.444 540.001 107.907 539.353 107.907 538.554C107.907 537.755 108.444 537.107 109.107 537.107C109.769 537.107 110.306 537.755 110.306 538.554C110.306 539.353 109.769 540.001 109.107 540.001Z" fill="#4A5568" stroke="#4A5568" stroke-width="5" stroke-miterlimit="10"/>
<path d="M92.9383 551.695C92.2758 551.695 91.7388 551.047 91.7388 550.247C91.7388 549.448 92.2758 548.8 92.9383 548.8C93.6007 548.8 94.1377 549.448 94.1377 550.247C94.1377 551.047 93.6007 551.695 92.9383 551.695Z" fill="#4A5568" stroke="#4A5568" stroke-width="5" stroke-miterlimit="10"/>
<path d="M76.1197 566.544C75.4572 566.544 74.9202 565.896 74.9202 565.097C74.9202 564.298 75.4572 563.65 76.1197 563.65C76.7821 563.65 77.3191 564.298 77.3191 565.097C77.3191 565.896 76.7821 566.544 76.1197 566.544Z" fill="#4A5568" stroke="#4A5568" stroke-width="5" stroke-miterlimit="10"/>
<path d="M63.1897 581.361C62.5271 581.361 61.99 580.713 61.99 579.913C61.99 579.114 62.5271 578.466 63.1897 578.466C63.8522 578.466 64.3893 579.114 64.3893 579.913C64.3893 580.713 63.8522 581.361 63.1897 581.361Z" fill="#4A5568" stroke="#4A5568" stroke-width="5" stroke-miterlimit="10"/>
<path d="M50.2346 599.307C49.5722 599.307 49.0352 598.659 49.0352 597.86C49.0352 597.06 49.5722 596.412 50.2346 596.412C50.8971 596.412 51.4341 597.06 51.4341 597.86C51.4341 598.659 50.8971 599.307 50.2346 599.307Z" fill="#4A5568" stroke="#4A5568" stroke-width="5" stroke-miterlimit="10"/>
<path d="M38.6963 617.163C38.0338 617.163 37.4968 616.515 37.4968 615.716C37.4968 614.917 38.0338 614.269 38.6963 614.269C39.3587 614.269 39.8958 614.917 39.8958 615.716C39.8958 616.515 39.3587 617.163 38.6963 617.163Z" fill="#4A5568" stroke="#4A5568" stroke-width="5" stroke-miterlimit="10"/>
<path d="M29.4347 636.675C28.7723 636.675 28.2352 636.027 28.2352 635.227C28.2352 634.428 28.7723 633.78 29.4347 633.78C30.0972 633.78 30.6343 634.428 30.6343 635.227C30.6343 636.027 30.0972 636.675 29.4347 636.675Z" fill="#4A5568" stroke="#4A5568" stroke-width="5" stroke-miterlimit="10"/>
<path d="M1120.95 365.058C1120.29 365.058 1119.75 364.41 1119.75 363.611C1119.75 362.812 1120.29 362.164 1120.95 362.164C1121.62 362.164 1122.15 362.812 1122.15 363.611C1122.15 364.41 1121.62 365.058 1120.95 365.058Z" fill="#4A5568" stroke="#4A5568" stroke-width="5" stroke-miterlimit="10"/>
<path d="M1111.91 385.35C1111.25 385.35 1110.71 384.702 1110.71 383.903C1110.71 383.103 1111.25 382.455 1111.91 382.455C1112.57 382.455 1113.11 383.103 1113.11 383.903C1113.11 384.702 1112.57 385.35 1111.91 385.35Z" fill="#4A5568" stroke="#4A5568" stroke-width="5" stroke-miterlimit="10"/>
<path d="M1102.2 404.859C1101.53 404.859 1101 404.211 1101 403.411C1101 402.612 1101.53 401.964 1102.2 401.964C1102.86 401.964 1103.4 402.612 1103.4 403.411C1103.4 404.211 1102.86 404.859 1102.2 404.859Z" fill="#4A5568" stroke="#4A5568" stroke-width="5" stroke-miterlimit="10"/>
<path d="M1090.46 422.137C1089.8 422.137 1089.26 421.489 1089.26 420.69C1089.26 419.89 1089.8 419.242 1090.46 419.242C1091.13 419.242 1091.66 419.89 1091.66 420.69C1091.66 421.489 1091.13 422.137 1090.46 422.137Z" fill="#4A5568" stroke="#4A5568" stroke-width="5" stroke-miterlimit="10"/>
<path d="M1077.44 440.751C1076.77 440.751 1076.24 440.103 1076.24 439.303C1076.24 438.504 1076.77 437.856 1077.44 437.856C1078.1 437.856 1078.64 438.504 1078.64 439.303C1078.64 440.103 1078.1 440.751 1077.44 440.751Z" fill="#4A5568" stroke="#4A5568" stroke-width="5" stroke-miterlimit="10"/>
<path d="M1063.21 454.818C1062.55 454.818 1062.01 454.17 1062.01 453.371C1062.01 452.572 1062.55 451.924 1063.21 451.924C1063.87 451.924 1064.41 452.572 1064.41 453.371C1064.41 454.17 1063.87 454.818 1063.21 454.818Z" fill="#4A5568" stroke="#4A5568" stroke-width="5" stroke-miterlimit="10"/>
<path d="M1048.41 471.084C1047.75 471.084 1047.21 470.436 1047.21 469.637C1047.21 468.837 1047.75 468.189 1048.41 468.189C1049.07 468.189 1049.61 468.837 1049.61 469.637C1049.61 470.436 1049.07 471.084 1048.41 471.084Z" fill="#4A5568" stroke="#4A5568" stroke-width="5" stroke-miterlimit="10"/>
<path d="M923.015 509.899C922.353 509.899 921.816 509.251 921.816 508.451C921.816 507.652 922.353 507.004 923.015 507.004C923.678 507.004 924.215 507.652 924.215 508.451C924.215 509.251 923.678 509.899 923.015 509.899Z" fill="#4A5568" stroke="#4A5568" stroke-width="5" stroke-miterlimit="10"/>
<path d="M904.068 509.551C903.406 509.551 902.869 508.903 902.869 508.104C902.869 507.304 903.406 506.656 904.068 506.656C904.731 506.656 905.268 507.304 905.268 508.104C905.268 508.903 904.731 509.551 904.068 509.551Z" fill="#4A5568" stroke="#4A5568" stroke-width="5" stroke-miterlimit="10"/>
<path d="M884.661 509.551C883.998 509.551 883.461 508.903 883.461 508.104C883.461 507.304 883.998 506.656 884.661 506.656C885.323 506.656 885.86 507.304 885.86 508.104C885.86 508.903 885.323 509.551 884.661 509.551Z" fill="#4A5568" stroke="#4A5568" stroke-width="5" stroke-miterlimit="10"/>
<path d="M864.798 509.551C864.135 509.551 863.598 508.903 863.598 508.104C863.598 507.304 864.135 506.656 864.798 506.656C865.46 506.656 865.997 507.304 865.997 508.104C865.997 508.903 865.46 509.551 864.798 509.551Z" fill="#4A5568" stroke="#4A5568" stroke-width="5" stroke-miterlimit="10"/>
<path d="M846.588 509.899C845.925 509.899 845.388 509.251 845.388 508.451C845.388 507.652 845.925 507.004 846.588 507.004C847.25 507.004 847.787 507.652 847.787 508.451C847.787 509.251 847.25 509.899 846.588 509.899Z" fill="#4A5568" stroke="#4A5568" stroke-width="5" stroke-miterlimit="10"/>
<path d="M827.083 508.451C826.42 508.451 825.883 507.803 825.883 507.003C825.883 506.204 826.42 505.556 827.083 505.556C827.745 505.556 828.282 506.204 828.282 507.003C828.282 507.803 827.745 508.451 827.083 508.451Z" fill="#4A5568" stroke="#4A5568" stroke-width="5" stroke-miterlimit="10"/>
<path d="M808.422 508.451C807.76 508.451 807.223 507.803 807.223 507.003C807.223 506.204 807.76 505.556 808.422 505.556C809.085 505.556 809.622 506.204 809.622 507.003C809.622 507.803 809.085 508.451 808.422 508.451Z" fill="#4A5568" stroke="#4A5568" stroke-width="5" stroke-miterlimit="10"/>
<path d="M788.462 509.899C787.8 509.899 787.263 509.251 787.263 508.451C787.263 507.652 787.8 507.004 788.462 507.004C789.125 507.004 789.662 507.652 789.662 508.451C789.662 509.251 789.125 509.899 788.462 509.899Z" fill="#4A5568" stroke="#4A5568" stroke-width="5" stroke-miterlimit="10"/>
<path d="M769.704 511.347C769.042 511.347 768.505 510.699 768.505 509.899C768.505 509.1 769.042 508.452 769.704 508.452C770.367 508.452 770.904 509.1 770.904 509.899C770.904 510.699 770.367 511.347 769.704 511.347Z" fill="#4A5568" stroke="#4A5568" stroke-width="5" stroke-miterlimit="10"/>
<path d="M750.942 510.999C750.279 510.999 749.742 510.351 749.742 509.552C749.742 508.752 750.279 508.104 750.942 508.104C751.604 508.104 752.141 508.752 752.141 509.552C752.141 510.351 751.604 510.999 750.942 510.999Z" fill="#4A5568" stroke="#4A5568" stroke-width="5" stroke-miterlimit="10"/>
<path d="M731.989 510.999C731.327 510.999 730.79 510.351 730.79 509.552C730.79 508.752 731.327 508.104 731.989 508.104C732.652 508.104 733.189 508.752 733.189 509.552C733.189 510.351 732.652 510.999 731.989 510.999Z" fill="#4A5568" stroke="#4A5568" stroke-width="5" stroke-miterlimit="10"/>
<path d="M713.324 510.999C712.661 510.999 712.124 510.351 712.124 509.552C712.124 508.752 712.661 508.104 713.324 508.104C713.986 508.104 714.523 508.752 714.523 509.552C714.523 510.351 713.986 510.999 713.324 510.999Z" fill="#4A5568" stroke="#4A5568" stroke-width="5" stroke-miterlimit="10"/>
<path d="M693.921 510.999C693.259 510.999 692.722 510.351 692.722 509.552C692.722 508.752 693.259 508.104 693.921 508.104C694.584 508.104 695.121 508.752 695.121 509.552C695.121 510.351 694.584 510.999 693.921 510.999Z" fill="#4A5568" stroke="#4A5568" stroke-width="5" stroke-miterlimit="10"/>
<path d="M675.803 510.999C675.141 510.999 674.604 510.351 674.604 509.552C674.604 508.752 675.141 508.104 675.803 508.104C676.466 508.104 677.003 508.752 677.003 509.552C677.003 510.351 676.466 510.999 675.803 510.999Z" fill="#4A5568" stroke="#4A5568" stroke-width="5" stroke-miterlimit="10"/>
<path d="M655.198 510.999C654.536 510.999 653.999 510.351 653.999 509.552C653.999 508.752 654.536 508.104 655.198 508.104C655.861 508.104 656.398 508.752 656.398 509.552C656.398 510.351 655.861 510.999 655.198 510.999Z" fill="#4A5568" stroke="#4A5568" stroke-width="5" stroke-miterlimit="10"/>
<path d="M637.085 509.899C636.423 509.899 635.886 509.251 635.886 508.451C635.886 507.652 636.423 507.004 637.085 507.004C637.748 507.004 638.285 507.652 638.285 508.451C638.285 509.251 637.748 509.899 637.085 509.899Z" fill="#4A5568" stroke="#4A5568" stroke-width="5" stroke-miterlimit="10"/>
<path d="M618.88 511.347C618.218 511.347 617.681 510.699 617.681 509.899C617.681 509.1 618.218 508.452 618.88 508.452C619.543 508.452 620.08 509.1 620.08 509.899C620.08 510.699 619.543 511.347 618.88 511.347Z" fill="#4A5568" stroke="#4A5568" stroke-width="5" stroke-miterlimit="10"/>
<path d="M598.921 510.999C598.258 510.999 597.721 510.351 597.721 509.552C597.721 508.752 598.258 508.104 598.921 508.104C599.583 508.104 600.12 508.752 600.12 509.552C600.12 510.351 599.583 510.999 598.921 510.999Z" fill="#4A5568" stroke="#4A5568" stroke-width="5" stroke-miterlimit="10"/>
<path d="M580.162 510.999C579.5 510.999 578.963 510.351 578.963 509.552C578.963 508.752 579.5 508.104 580.162 508.104C580.825 508.104 581.362 508.752 581.362 509.552C581.362 510.351 580.825 510.999 580.162 510.999Z" fill="#4A5568" stroke="#4A5568" stroke-width="5" stroke-miterlimit="10"/>
<path d="M559.266 510.999C558.604 510.999 558.067 510.351 558.067 509.552C558.067 508.752 558.604 508.104 559.266 508.104C559.929 508.104 560.466 508.752 560.466 509.552C560.466 510.351 559.929 510.999 559.266 510.999Z" fill="#4A5568" stroke="#4A5568" stroke-width="5" stroke-miterlimit="10"/>
<path d="M541.25 510.999C540.588 510.999 540.051 510.351 540.051 509.552C540.051 508.752 540.588 508.104 541.25 508.104C541.913 508.104 542.45 508.752 542.45 509.552C542.45 510.351 541.913 510.999 541.25 510.999Z" fill="#4A5568" stroke="#4A5568" stroke-width="5" stroke-miterlimit="10"/>
<path d="M522.037 510.999C521.375 510.999 520.838 510.351 520.838 509.552C520.838 508.752 521.375 508.104 522.037 508.104C522.7 508.104 523.237 508.752 523.237 509.552C523.237 510.351 522.7 510.999 522.037 510.999Z" fill="#4A5568" stroke="#4A5568" stroke-width="5" stroke-miterlimit="10"/>
<path d="M503.086 511.347C502.423 511.347 501.886 510.699 501.886 509.899C501.886 509.1 502.423 508.452 503.086 508.452C503.748 508.452 504.285 509.1 504.285 509.899C504.285 510.699 503.748 511.347 503.086 511.347Z" fill="#4A5568" stroke="#4A5568" stroke-width="5" stroke-miterlimit="10"/>
<path d="M484.158 510.999C483.496 510.999 482.959 510.351 482.959 509.552C482.959 508.752 483.496 508.104 484.158 508.104C484.821 508.104 485.358 508.752 485.358 509.552C485.358 510.351 484.821 510.999 484.158 510.999Z" fill="#4A5568" stroke="#4A5568" stroke-width="5" stroke-miterlimit="10"/>
<path d="M465.708 510.999C465.045 510.999 464.508 510.351 464.508 509.552C464.508 508.752 465.045 508.104 465.708 508.104C466.37 508.104 466.907 508.752 466.907 509.552C466.907 510.351 466.37 510.999 465.708 510.999Z" fill="#4A5568" stroke="#4A5568" stroke-width="5" stroke-miterlimit="10"/>
<path d="M447.042 511.347C446.38 511.347 445.843 510.699 445.843 509.899C445.843 509.1 446.38 508.452 447.042 508.452C447.705 508.452 448.242 509.1 448.242 509.899C448.242 510.699 447.705 511.347 447.042 511.347Z" fill="#4A5568" stroke="#4A5568" stroke-width="5" stroke-miterlimit="10"/>
<path d="M427.875 511.347C427.212 511.347 426.675 510.699 426.675 509.899C426.675 509.1 427.212 508.452 427.875 508.452C428.537 508.452 429.074 509.1 429.074 509.899C429.074 510.699 428.537 511.347 427.875 511.347Z" fill="#4A5568" stroke="#4A5568" stroke-width="5" stroke-miterlimit="10"/>
<path d="M409.691 510.999C409.028 510.999 408.491 510.351 408.491 509.552C408.491 508.752 409.028 508.104 409.691 508.104C410.353 508.104 410.89 508.752 410.89 509.552C410.89 510.351 410.353 510.999 409.691 510.999Z" fill="#4A5568" stroke="#4A5568" stroke-width="5" stroke-miterlimit="10"/>
<path d="M389.541 510.999C388.879 510.999 388.342 510.351 388.342 509.552C388.342 508.752 388.879 508.104 389.541 508.104C390.203 508.104 390.74 508.752 390.74 509.552C390.74 510.351 390.203 510.999 389.541 510.999Z" fill="#4A5568" stroke="#4A5568" stroke-width="5" stroke-miterlimit="10"/>
<path d="M369.919 511.347C369.257 511.347 368.72 510.699 368.72 509.899C368.72 509.1 369.257 508.452 369.919 508.452C370.581 508.452 371.118 509.1 371.118 509.899C371.118 510.699 370.581 511.347 369.919 511.347Z" fill="#4A5568" stroke="#4A5568" stroke-width="5" stroke-miterlimit="10"/>
<path d="M351.709 510.999C351.046 510.999 350.509 510.351 350.509 509.552C350.509 508.752 351.046 508.104 351.709 508.104C352.371 508.104 352.908 508.752 352.908 509.552C352.908 510.351 352.371 510.999 351.709 510.999Z" fill="#4A5568" stroke="#4A5568" stroke-width="5" stroke-miterlimit="10"/>
<path d="M1032.89 479.882C1032.23 479.882 1031.69 479.234 1031.69 478.435C1031.69 477.635 1032.23 476.987 1032.89 476.987C1033.55 476.987 1034.09 477.635 1034.09 478.435C1034.09 479.234 1033.55 479.882 1032.89 479.882Z" fill="#4A5568" stroke="#4A5568" stroke-width="5" stroke-miterlimit="10"/>
<path d="M1015.43 492.387C1014.76 492.387 1014.23 491.739 1014.23 490.94C1014.23 490.14 1014.76 489.492 1015.43 489.492C1016.09 489.492 1016.63 490.14 1016.63 490.94C1016.63 491.739 1016.09 492.387 1015.43 492.387Z" fill="#4A5568" stroke="#4A5568" stroke-width="5" stroke-miterlimit="10"/>
<path d="M997.964 499.187C997.302 499.187 996.765 498.539 996.765 497.74C996.765 496.941 997.302 496.293 997.964 496.293C998.627 496.293 999.164 496.941 999.164 497.74C999.164 498.539 998.627 499.187 997.964 499.187Z" fill="#4A5568" stroke="#4A5568" stroke-width="5" stroke-miterlimit="10"/>
<path d="M979.201 505.208C978.539 505.208 978.002 504.56 978.002 503.761C978.002 502.962 978.539 502.314 979.201 502.314C979.864 502.314 980.401 502.962 980.401 503.761C980.401 504.56 979.864 505.208 979.201 505.208Z" fill="#4A5568" stroke="#4A5568" stroke-width="5" stroke-miterlimit="10"/>
<path d="M961.088 508.103C960.426 508.103 959.889 507.455 959.889 506.656C959.889 505.856 960.426 505.208 961.088 505.208C961.751 505.208 962.288 505.856 962.288 506.656C962.288 507.455 961.751 508.103 961.088 508.103Z" fill="#4A5568" stroke="#4A5568" stroke-width="5" stroke-miterlimit="10"/>
<path d="M941.68 508.451C941.018 508.451 940.481 507.803 940.481 507.003C940.481 506.204 941.018 505.556 941.68 505.556C942.343 505.556 942.88 506.204 942.88 507.003C942.88 507.803 942.343 508.451 941.68 508.451Z" fill="#4A5568" stroke="#4A5568" stroke-width="5" stroke-miterlimit="10"/>
<path d="M1133.53 276.894C1132.86 276.894 1132.33 276.246 1132.33 275.447C1132.33 274.648 1132.86 274 1133.53 274C1134.19 274 1134.72 274.648 1134.72 275.447C1134.72 276.246 1134.19 276.894 1133.53 276.894Z" fill="#4A5568" stroke="#4A5568" stroke-width="5" stroke-miterlimit="10"/>
<path d="M1132.33 298.024C1131.67 298.024 1131.13 297.376 1131.13 296.577C1131.13 295.777 1131.67 295.129 1132.33 295.129C1132.99 295.129 1133.53 295.777 1133.53 296.577C1133.53 297.376 1132.99 298.024 1132.33 298.024Z" fill="#4A5568" stroke="#4A5568" stroke-width="5" stroke-miterlimit="10"/>
<path d="M1131.13 321.324C1130.46 321.324 1129.93 320.676 1129.93 319.877C1129.93 319.077 1130.46 318.429 1131.13 318.429C1131.79 318.429 1132.33 319.077 1132.33 319.877C1132.33 320.676 1131.79 321.324 1131.13 321.324Z" fill="#4A5568" stroke="#4A5568" stroke-width="5" stroke-miterlimit="10"/>
<path d="M1126.04 343.293C1125.38 343.293 1124.84 342.645 1124.84 341.846C1124.84 341.046 1125.38 340.398 1126.04 340.398C1126.7 340.398 1127.24 341.046 1127.24 341.846C1127.24 342.645 1126.7 343.293 1126.04 343.293Z" fill="#4A5568" stroke="#4A5568" stroke-width="5" stroke-miterlimit="10"/>
<defs>
<filter id="filter0_d_399_15" x="971" y="0" width="273" height="273" filterUnits="userSpaceOnUse" color-interpolation-filters="sRGB">
<feFlood flood-opacity="0" result="BackgroundImageFix"/>
<feColorMatrix in="SourceAlpha" type="matrix" values="0 0 0 0 0 0 0 0 0 0 0 0 0 0 0 0 0 0 127 0" result="hardAlpha"/>
<feOffset dy="4"/>
<feGaussianBlur stdDeviation="2"/>
<feComposite in2="hardAlpha" operator="out"/>
<feColorMatrix type="matrix" values="0 0 0 0 0 0 0 0 0 0 0 0 0 0 0 0 0 0 0.41 0"/>
<feBlend mode="normal" in2="BackgroundImageFix" result="effect1_dropShadow_399_15"/>
<feBlend mode="normal" in="SourceGraphic" in2="effect1_dropShadow_399_15" result="shape"/>
</filter>
</defs>
</svg>
