<svg width="1230" height="704" viewBox="0 0 1230 704" fill="none" xmlns="http://www.w3.org/2000/svg">
<g filter="url(#filter0_d_399_16)">
<circle cx="136.5" cy="132.5" r="132.5" fill="white"/>
</g>
<path d="M197.348 128.203V110.672H182.913V128.203H142.857V110.672H128.422V128.203H88.3652V110.672H74.2913V128.203H53V144.141H74.2913V161.672H88.3652V144.141H128.422V161.672H142.857V144.141H182.913V161.672H197.348V144.141H219V128.203H197.348Z" fill="#E70082" fill-opacity="0.2"/>
<path d="M81.3424 170.082V119.102C81.3424 91.1673 103.598 67.6559 129.819 67.6559V63.0001C101.174 63.0001 76.9354 88.6067 76.9354 119.102V172.41C76.9354 173.807 77.8168 174.738 79.1389 174.738H125.412V202.672H129.819V174.738H138.633V170.082H127.616H81.3424Z" fill="#4A5568"/>
<path d="M98.9705 116.541V135.164C98.9705 136.561 99.8519 137.492 101.174 137.492H109.988V132.836H103.377V116.541H98.9705Z" fill="#4A5568"/>
<path d="M189.314 186.377V179.394C189.314 177.997 188.432 177.066 187.11 177.066H182.703V139.82H187.11C188.432 139.82 189.314 138.889 189.314 137.492V100.246C189.314 98.8494 188.432 97.9182 187.11 97.9182H173.889C172.567 97.9182 171.686 98.8494 171.686 100.246V116.541H167.279V100.246C167.279 98.8494 166.397 97.9182 165.075 97.9182H151.854C150.532 97.9182 149.651 98.8494 149.651 100.246V137.492C149.651 138.889 150.532 139.82 151.854 139.82H156.261V177.066H151.854C150.532 177.066 149.651 177.997 149.651 179.394V186.377C145.905 186.377 143.04 189.403 143.04 193.361V200.344C143.04 201.741 143.922 202.672 145.244 202.672H193.721C195.043 202.672 195.924 201.741 195.924 200.344V193.361C195.924 189.403 193.06 186.377 189.314 186.377ZM154.058 135.164V102.574H162.872V116.541H158.465V121.197H165.075H173.889H180.5V116.541H176.093V102.574H184.907V135.164H180.5C179.178 135.164 178.296 136.095 178.296 137.492V144.476H160.668V139.82H167.279V135.164H158.465H154.058ZM160.668 149.131H178.296V177.066H160.668V149.131ZM154.058 181.721H158.465H180.5H184.907V186.377H154.058V181.721ZM191.517 198.017H147.447V193.361C147.447 191.964 148.329 191.033 149.651 191.033H151.854H187.11H189.314C190.636 191.033 191.517 191.964 191.517 193.361V198.017Z" fill="#4A5568"/>
<path d="M120.344 101.875L145.244 75.5705L159.126 90.2361C160.007 91.1672 161.329 91.1672 162.211 90.2361L180.5 70.9148V76.9672H184.907V65.3279C184.907 63.9311 184.025 63 182.703 63H171.686V67.6557H177.415L160.668 85.3475L146.786 70.682C145.905 69.7508 144.583 69.7508 143.701 70.682L117.26 98.6164L120.344 101.875Z" fill="#4A5568"/>
<path d="M162.872 125.853H158.465V130.508H162.872V125.853Z" fill="#4A5568"/>
<path d="M171.686 125.853H167.279V130.508H171.686V125.853Z" fill="#4A5568"/>
<path d="M180.5 125.853H176.093V130.508H180.5V125.853Z" fill="#4A5568"/>
<path d="M1215.13 642.755C1215.77 642.755 1216.29 642.183 1216.29 641.478C1216.29 640.772 1215.77 640.2 1215.13 640.2C1214.5 640.2 1213.98 640.772 1213.98 641.478C1213.98 642.183 1214.5 642.755 1215.13 642.755Z" fill="#4A5568" stroke="#4A5568" stroke-width="5" stroke-miterlimit="10"/>
<path d="M1221.22 662.844C1221.86 662.844 1222.38 662.272 1222.38 661.566C1222.38 660.86 1221.86 660.288 1221.22 660.288C1220.58 660.288 1220.07 660.86 1220.07 661.566C1220.07 662.272 1220.58 662.844 1221.22 662.844Z" fill="#4A5568" stroke="#4A5568" stroke-width="5" stroke-miterlimit="10"/>
<path d="M1223.53 681.243C1224.17 681.243 1224.69 680.671 1224.69 679.965C1224.69 679.26 1224.17 678.688 1223.53 678.688C1222.89 678.688 1222.37 679.26 1222.37 679.965C1222.37 680.671 1222.89 681.243 1223.53 681.243Z" fill="#4A5568" stroke="#4A5568" stroke-width="5" stroke-miterlimit="10"/>
<path d="M1225.84 701C1226.48 701 1227 700.428 1227 699.722C1227 699.016 1226.48 698.444 1225.84 698.444C1225.21 698.444 1224.69 699.016 1224.69 699.722C1224.69 700.428 1225.21 701 1225.84 701Z" fill="#4A5568" stroke="#4A5568" stroke-width="5" stroke-miterlimit="10"/>
<path d="M1209.52 624.047C1210.16 624.047 1210.67 623.475 1210.67 622.769C1210.67 622.064 1210.16 621.491 1209.52 621.491C1208.88 621.491 1208.36 622.064 1208.36 622.769C1208.36 623.475 1208.88 624.047 1209.52 624.047Z" fill="#4A5568" stroke="#4A5568" stroke-width="5" stroke-miterlimit="10"/>
<path d="M909.549 495.265C910.188 495.265 910.705 494.693 910.705 493.987C910.705 493.281 910.188 492.709 909.549 492.709C908.91 492.709 908.393 493.281 908.393 493.987C908.393 494.693 908.91 495.265 909.549 495.265Z" fill="#4A5568" stroke="#4A5568" stroke-width="5" stroke-miterlimit="10"/>
<path d="M928.164 496.847C928.803 496.847 929.321 496.275 929.321 495.569C929.321 494.863 928.803 494.291 928.164 494.291C927.526 494.291 927.008 494.863 927.008 495.569C927.008 496.275 927.526 496.847 928.164 496.847Z" fill="#4A5568" stroke="#4A5568" stroke-width="5" stroke-miterlimit="10"/>
<path d="M947.056 495.572C947.694 495.572 948.212 495 948.212 494.294C948.212 493.588 947.694 493.016 947.056 493.016C946.417 493.016 945.899 493.588 945.899 494.294C945.899 495 946.417 495.572 947.056 495.572Z" fill="#4A5568" stroke="#4A5568" stroke-width="5" stroke-miterlimit="10"/>
<path d="M964.517 496.847C965.156 496.847 965.674 496.275 965.674 495.569C965.674 494.863 965.156 494.291 964.517 494.291C963.879 494.291 963.361 494.863 963.361 495.569C963.361 496.275 963.879 496.847 964.517 496.847Z" fill="#4A5568" stroke="#4A5568" stroke-width="5" stroke-miterlimit="10"/>
<path d="M983.138 496.847C983.776 496.847 984.294 496.275 984.294 495.569C984.294 494.863 983.776 494.291 983.138 494.291C982.499 494.291 981.981 494.863 981.981 495.569C981.981 496.275 982.499 496.847 983.138 496.847Z" fill="#4A5568" stroke="#4A5568" stroke-width="5" stroke-miterlimit="10"/>
<path d="M1000.62 496.847C1001.26 496.847 1001.77 496.275 1001.77 495.569C1001.77 494.863 1001.26 494.291 1000.62 494.291C999.98 494.291 999.463 494.863 999.463 495.569C999.463 496.275 999.98 496.847 1000.62 496.847Z" fill="#4A5568" stroke="#4A5568" stroke-width="5" stroke-miterlimit="10"/>
<path d="M1019.33 496.847C1019.97 496.847 1020.48 496.275 1020.48 495.569C1020.48 494.863 1019.97 494.291 1019.33 494.291C1018.69 494.291 1018.17 494.863 1018.17 495.569C1018.17 496.275 1018.69 496.847 1019.33 496.847Z" fill="#4A5568" stroke="#4A5568" stroke-width="5" stroke-miterlimit="10"/>
<path d="M1038.11 496.847C1038.74 496.847 1039.26 496.275 1039.26 495.569C1039.26 494.863 1038.74 494.291 1038.11 494.291C1037.47 494.291 1036.95 494.863 1036.95 495.569C1036.95 496.275 1037.47 496.847 1038.11 496.847Z" fill="#4A5568" stroke="#4A5568" stroke-width="5" stroke-miterlimit="10"/>
<path d="M1055.4 498.125C1056.04 498.125 1056.56 497.553 1056.56 496.848C1056.56 496.142 1056.04 495.57 1055.4 495.57C1054.77 495.57 1054.25 496.142 1054.25 496.848C1054.25 497.553 1054.77 498.125 1055.4 498.125Z" fill="#4A5568" stroke="#4A5568" stroke-width="5" stroke-miterlimit="10"/>
<path d="M1073.67 499.403C1074.31 499.403 1074.83 498.831 1074.83 498.125C1074.83 497.42 1074.31 496.848 1073.67 496.848C1073.04 496.848 1072.52 497.42 1072.52 498.125C1072.52 498.831 1073.04 499.403 1073.67 499.403Z" fill="#4A5568" stroke="#4A5568" stroke-width="5" stroke-miterlimit="10"/>
<path d="M1091.57 504.923C1092.21 504.923 1092.73 504.351 1092.73 503.645C1092.73 502.939 1092.21 502.367 1091.57 502.367C1090.94 502.367 1090.42 502.939 1090.42 503.645C1090.42 504.351 1090.94 504.923 1091.57 504.923Z" fill="#4A5568" stroke="#4A5568" stroke-width="5" stroke-miterlimit="10"/>
<path d="M1109.22 513.179C1109.86 513.179 1110.37 512.607 1110.37 511.901C1110.37 511.195 1109.86 510.623 1109.22 510.623C1108.58 510.623 1108.06 511.195 1108.06 511.901C1108.06 512.607 1108.58 513.179 1109.22 513.179Z" fill="#4A5568" stroke="#4A5568" stroke-width="5" stroke-miterlimit="10"/>
<path d="M1124.71 520.873C1125.35 520.873 1125.87 520.301 1125.87 519.595C1125.87 518.889 1125.35 518.317 1124.71 518.317C1124.07 518.317 1123.56 518.889 1123.56 519.595C1123.56 520.301 1124.07 520.873 1124.71 520.873Z" fill="#4A5568" stroke="#4A5568" stroke-width="5" stroke-miterlimit="10"/>
<path d="M1140.3 531.199C1140.94 531.199 1141.45 530.626 1141.45 529.921C1141.45 529.215 1140.94 528.643 1140.3 528.643C1139.66 528.643 1139.14 529.215 1139.14 529.921C1139.14 530.626 1139.66 531.199 1140.3 531.199Z" fill="#4A5568" stroke="#4A5568" stroke-width="5" stroke-miterlimit="10"/>
<path d="M1156.51 544.31C1157.15 544.31 1157.67 543.738 1157.67 543.032C1157.67 542.327 1157.15 541.755 1156.51 541.755C1155.87 541.755 1155.36 542.327 1155.36 543.032C1155.36 543.738 1155.87 544.31 1156.51 544.31Z" fill="#4A5568" stroke="#4A5568" stroke-width="5" stroke-miterlimit="10"/>
<path d="M1168.98 557.393C1169.62 557.393 1170.13 556.821 1170.13 556.115C1170.13 555.409 1169.62 554.837 1168.98 554.837C1168.34 554.837 1167.82 555.409 1167.82 556.115C1167.82 556.821 1168.34 557.393 1168.98 557.393Z" fill="#4A5568" stroke="#4A5568" stroke-width="5" stroke-miterlimit="10"/>
<path d="M1181.46 573.239C1182.1 573.239 1182.62 572.667 1182.62 571.961C1182.62 571.255 1182.1 570.683 1181.46 570.683C1180.83 570.683 1180.31 571.255 1180.31 571.961C1180.31 572.667 1180.83 573.239 1181.46 573.239Z" fill="#4A5568" stroke="#4A5568" stroke-width="5" stroke-miterlimit="10"/>
<path d="M1192.59 589.006C1193.23 589.006 1193.74 588.433 1193.74 587.728C1193.74 587.022 1193.23 586.45 1192.59 586.45C1191.95 586.45 1191.43 587.022 1191.43 587.728C1191.43 588.433 1191.95 589.006 1192.59 589.006Z" fill="#4A5568" stroke="#4A5568" stroke-width="5" stroke-miterlimit="10"/>
<path d="M1201.52 606.234C1202.16 606.234 1202.67 605.662 1202.67 604.956C1202.67 604.251 1202.16 603.679 1201.52 603.679C1200.88 603.679 1200.36 604.251 1200.36 604.956C1200.36 605.662 1200.88 606.234 1201.52 606.234Z" fill="#4A5568" stroke="#4A5568" stroke-width="5" stroke-miterlimit="10"/>
<path d="M149.276 366.402C149.914 366.402 150.432 365.83 150.432 365.124C150.432 364.419 149.914 363.847 149.276 363.847C148.637 363.847 148.119 364.419 148.119 365.124C148.119 365.83 148.637 366.402 149.276 366.402Z" fill="#4A5568" stroke="#4A5568" stroke-width="5" stroke-miterlimit="10"/>
<path d="M157.991 384.32C158.63 384.32 159.148 383.748 159.148 383.042C159.148 382.336 158.63 381.764 157.991 381.764C157.353 381.764 156.835 382.336 156.835 383.042C156.835 383.748 157.353 384.32 157.991 384.32Z" fill="#4A5568" stroke="#4A5568" stroke-width="5" stroke-miterlimit="10"/>
<path d="M167.358 401.545C167.997 401.545 168.515 400.973 168.515 400.267C168.515 399.562 167.997 398.99 167.358 398.99C166.72 398.99 166.202 399.562 166.202 400.267C166.202 400.973 166.72 401.545 167.358 401.545Z" fill="#4A5568" stroke="#4A5568" stroke-width="5" stroke-miterlimit="10"/>
<path d="M178.669 416.802C179.307 416.802 179.825 416.23 179.825 415.524C179.825 414.818 179.307 414.246 178.669 414.246C178.03 414.246 177.512 414.818 177.512 415.524C177.512 416.23 178.03 416.802 178.669 416.802Z" fill="#4A5568" stroke="#4A5568" stroke-width="5" stroke-miterlimit="10"/>
<path d="M191.227 433.237C191.866 433.237 192.383 432.665 192.383 431.959C192.383 431.253 191.866 430.681 191.227 430.681C190.588 430.681 190.071 431.253 190.071 431.959C190.071 432.665 190.588 433.237 191.227 433.237Z" fill="#4A5568" stroke="#4A5568" stroke-width="5" stroke-miterlimit="10"/>
<path d="M204.939 445.658C205.578 445.658 206.096 445.086 206.096 444.38C206.096 443.675 205.578 443.102 204.939 443.102C204.301 443.102 203.783 443.675 203.783 444.38C203.783 445.086 204.301 445.658 204.939 445.658Z" fill="#4A5568" stroke="#4A5568" stroke-width="5" stroke-miterlimit="10"/>
<path d="M219.209 460.021C219.848 460.021 220.366 459.449 220.366 458.743C220.366 458.037 219.848 457.465 219.209 457.465C218.571 457.465 218.053 458.037 218.053 458.743C218.053 459.449 218.571 460.021 219.209 460.021Z" fill="#4A5568" stroke="#4A5568" stroke-width="5" stroke-miterlimit="10"/>
<path d="M340.091 494.293C340.73 494.293 341.247 493.721 341.247 493.015C341.247 492.31 340.73 491.737 340.091 491.737C339.453 491.737 338.935 492.31 338.935 493.015C338.935 493.721 339.453 494.293 340.091 494.293Z" fill="#4A5568" stroke="#4A5568" stroke-width="5" stroke-miterlimit="10"/>
<path d="M358.357 493.986C358.995 493.986 359.513 493.414 359.513 492.708C359.513 492.003 358.995 491.43 358.357 491.43C357.718 491.43 357.2 492.003 357.2 492.708C357.2 493.414 357.718 493.986 358.357 493.986Z" fill="#4A5568" stroke="#4A5568" stroke-width="5" stroke-miterlimit="10"/>
<path d="M377.066 493.986C377.704 493.986 378.222 493.414 378.222 492.708C378.222 492.003 377.704 491.43 377.066 491.43C376.427 491.43 375.909 492.003 375.909 492.708C375.909 493.414 376.427 493.986 377.066 493.986Z" fill="#4A5568" stroke="#4A5568" stroke-width="5" stroke-miterlimit="10"/>
<path d="M396.214 493.986C396.853 493.986 397.37 493.414 397.37 492.708C397.37 492.003 396.853 491.43 396.214 491.43C395.575 491.43 395.058 492.003 395.058 492.708C395.058 493.414 395.575 493.986 396.214 493.986Z" fill="#4A5568" stroke="#4A5568" stroke-width="5" stroke-miterlimit="10"/>
<path d="M413.769 494.293C414.407 494.293 414.925 493.721 414.925 493.015C414.925 492.31 414.407 491.737 413.769 491.737C413.13 491.737 412.612 492.31 412.612 493.015C412.612 493.721 413.13 494.293 413.769 494.293Z" fill="#4A5568" stroke="#4A5568" stroke-width="5" stroke-miterlimit="10"/>
<path d="M432.572 493.015C433.21 493.015 433.728 492.443 433.728 491.737C433.728 491.031 433.21 490.459 432.572 490.459C431.933 490.459 431.415 491.031 431.415 491.737C431.415 492.443 431.933 493.015 432.572 493.015Z" fill="#4A5568" stroke="#4A5568" stroke-width="5" stroke-miterlimit="10"/>
<path d="M450.561 493.015C451.199 493.015 451.717 492.443 451.717 491.737C451.717 491.031 451.199 490.459 450.561 490.459C449.922 490.459 449.404 491.031 449.404 491.737C449.404 492.443 449.922 493.015 450.561 493.015Z" fill="#4A5568" stroke="#4A5568" stroke-width="5" stroke-miterlimit="10"/>
<path d="M469.802 494.293C470.441 494.293 470.959 493.721 470.959 493.015C470.959 492.31 470.441 491.737 469.802 491.737C469.164 491.737 468.646 492.31 468.646 493.015C468.646 493.721 469.164 494.293 469.802 494.293Z" fill="#4A5568" stroke="#4A5568" stroke-width="5" stroke-miterlimit="10"/>
<path d="M487.885 495.572C488.524 495.572 489.042 495 489.042 494.294C489.042 493.588 488.524 493.016 487.885 493.016C487.247 493.016 486.729 493.588 486.729 494.294C486.729 495 487.247 495.572 487.885 495.572Z" fill="#4A5568" stroke="#4A5568" stroke-width="5" stroke-miterlimit="10"/>
<path d="M505.973 495.265C506.611 495.265 507.129 494.693 507.129 493.987C507.129 493.281 506.611 492.709 505.973 492.709C505.334 492.709 504.816 493.281 504.816 493.987C504.816 494.693 505.334 495.265 505.973 495.265Z" fill="#4A5568" stroke="#4A5568" stroke-width="5" stroke-miterlimit="10"/>
<path d="M524.243 495.265C524.882 495.265 525.399 494.693 525.399 493.987C525.399 493.281 524.882 492.709 524.243 492.709C523.604 492.709 523.087 493.281 523.087 493.987C523.087 494.693 523.604 495.265 524.243 495.265Z" fill="#4A5568" stroke="#4A5568" stroke-width="5" stroke-miterlimit="10"/>
<path d="M542.237 495.265C542.875 495.265 543.393 494.693 543.393 493.987C543.393 493.281 542.875 492.709 542.237 492.709C541.598 492.709 541.08 493.281 541.08 493.987C541.08 494.693 541.598 495.265 542.237 495.265Z" fill="#4A5568" stroke="#4A5568" stroke-width="5" stroke-miterlimit="10"/>
<path d="M560.941 495.265C561.58 495.265 562.097 494.693 562.097 493.987C562.097 493.281 561.58 492.709 560.941 492.709C560.303 492.709 559.785 493.281 559.785 493.987C559.785 494.693 560.303 495.265 560.941 495.265Z" fill="#4A5568" stroke="#4A5568" stroke-width="5" stroke-miterlimit="10"/>
<path d="M578.407 495.265C579.046 495.265 579.564 494.693 579.564 493.987C579.564 493.281 579.046 492.709 578.407 492.709C577.769 492.709 577.251 493.281 577.251 493.987C577.251 494.693 577.769 495.265 578.407 495.265Z" fill="#4A5568" stroke="#4A5568" stroke-width="5" stroke-miterlimit="10"/>
<path d="M598.271 495.265C598.909 495.265 599.427 494.693 599.427 493.987C599.427 493.281 598.909 492.709 598.271 492.709C597.632 492.709 597.114 493.281 597.114 493.987C597.114 494.693 597.632 495.265 598.271 495.265Z" fill="#4A5568" stroke="#4A5568" stroke-width="5" stroke-miterlimit="10"/>
<path d="M615.732 494.293C616.371 494.293 616.888 493.721 616.888 493.015C616.888 492.31 616.371 491.737 615.732 491.737C615.093 491.737 614.576 492.31 614.576 493.015C614.576 493.721 615.093 494.293 615.732 494.293Z" fill="#4A5568" stroke="#4A5568" stroke-width="5" stroke-miterlimit="10"/>
<path d="M633.282 495.572C633.921 495.572 634.438 495 634.438 494.294C634.438 493.588 633.921 493.016 633.282 493.016C632.643 493.016 632.126 493.588 632.126 494.294C632.126 495 632.643 495.572 633.282 495.572Z" fill="#4A5568" stroke="#4A5568" stroke-width="5" stroke-miterlimit="10"/>
<path d="M652.523 495.265C653.162 495.265 653.68 494.693 653.68 493.987C653.68 493.281 653.162 492.709 652.523 492.709C651.885 492.709 651.367 493.281 651.367 493.987C651.367 494.693 651.885 495.265 652.523 495.265Z" fill="#4A5568" stroke="#4A5568" stroke-width="5" stroke-miterlimit="10"/>
<path d="M670.606 495.265C671.245 495.265 671.763 494.693 671.763 493.987C671.763 493.281 671.245 492.709 670.606 492.709C669.968 492.709 669.45 493.281 669.45 493.987C669.45 494.693 669.968 495.265 670.606 495.265Z" fill="#4A5568" stroke="#4A5568" stroke-width="5" stroke-miterlimit="10"/>
<path d="M690.751 495.265C691.389 495.265 691.907 494.693 691.907 493.987C691.907 493.281 691.389 492.709 690.751 492.709C690.112 492.709 689.595 493.281 689.595 493.987C689.595 494.693 690.112 495.265 690.751 495.265Z" fill="#4A5568" stroke="#4A5568" stroke-width="5" stroke-miterlimit="10"/>
<path d="M708.118 495.265C708.757 495.265 709.275 494.693 709.275 493.987C709.275 493.281 708.757 492.709 708.118 492.709C707.48 492.709 706.962 493.281 706.962 493.987C706.962 494.693 707.48 495.265 708.118 495.265Z" fill="#4A5568" stroke="#4A5568" stroke-width="5" stroke-miterlimit="10"/>
<path d="M726.64 495.265C727.279 495.265 727.796 494.693 727.796 493.987C727.796 493.281 727.279 492.709 726.64 492.709C726.002 492.709 725.484 493.281 725.484 493.987C725.484 494.693 726.002 495.265 726.64 495.265Z" fill="#4A5568" stroke="#4A5568" stroke-width="5" stroke-miterlimit="10"/>
<path d="M744.91 495.572C745.549 495.572 746.066 495 746.066 494.294C746.066 493.588 745.549 493.016 744.91 493.016C744.271 493.016 743.754 493.588 743.754 494.294C743.754 495 744.271 495.572 744.91 495.572Z" fill="#4A5568" stroke="#4A5568" stroke-width="5" stroke-miterlimit="10"/>
<path d="M763.156 495.265C763.795 495.265 764.312 494.693 764.312 493.987C764.312 493.281 763.795 492.709 763.156 492.709C762.517 492.709 762 493.281 762 493.987C762 494.693 762.517 495.265 763.156 495.265Z" fill="#4A5568" stroke="#4A5568" stroke-width="5" stroke-miterlimit="10"/>
<path d="M780.943 495.265C781.581 495.265 782.099 494.693 782.099 493.987C782.099 493.281 781.581 492.709 780.943 492.709C780.304 492.709 779.786 493.281 779.786 493.987C779.786 494.693 780.304 495.265 780.943 495.265Z" fill="#4A5568" stroke="#4A5568" stroke-width="5" stroke-miterlimit="10"/>
<path d="M798.937 495.572C799.575 495.572 800.093 495 800.093 494.294C800.093 493.588 799.575 493.016 798.937 493.016C798.298 493.016 797.78 493.588 797.78 494.294C797.78 495 798.298 495.572 798.937 495.572Z" fill="#4A5568" stroke="#4A5568" stroke-width="5" stroke-miterlimit="10"/>
<path d="M817.414 495.572C818.053 495.572 818.57 495 818.57 494.294C818.57 493.588 818.053 493.016 817.414 493.016C816.775 493.016 816.258 493.588 816.258 494.294C816.258 495 816.775 495.572 817.414 495.572Z" fill="#4A5568" stroke="#4A5568" stroke-width="5" stroke-miterlimit="10"/>
<path d="M834.944 495.265C835.582 495.265 836.1 494.693 836.1 493.987C836.1 493.281 835.582 492.709 834.944 492.709C834.305 492.709 833.788 493.281 833.788 493.987C833.788 494.693 834.305 495.265 834.944 495.265Z" fill="#4A5568" stroke="#4A5568" stroke-width="5" stroke-miterlimit="10"/>
<path d="M854.368 495.265C855.007 495.265 855.525 494.693 855.525 493.987C855.525 493.281 855.007 492.709 854.368 492.709C853.73 492.709 853.212 493.281 853.212 493.987C853.212 494.693 853.73 495.265 854.368 495.265Z" fill="#4A5568" stroke="#4A5568" stroke-width="5" stroke-miterlimit="10"/>
<path d="M873.285 495.572C873.923 495.572 874.441 495 874.441 494.294C874.441 493.588 873.923 493.016 873.285 493.016C872.646 493.016 872.128 493.588 872.128 494.294C872.128 495 872.646 495.572 873.285 495.572Z" fill="#4A5568" stroke="#4A5568" stroke-width="5" stroke-miterlimit="10"/>
<path d="M890.84 495.265C891.478 495.265 891.996 494.693 891.996 493.987C891.996 493.281 891.478 492.709 890.84 492.709C890.201 492.709 889.683 493.281 889.683 493.987C889.683 494.693 890.201 495.265 890.84 495.265Z" fill="#4A5568" stroke="#4A5568" stroke-width="5" stroke-miterlimit="10"/>
<path d="M234.17 467.789C234.808 467.789 235.326 467.217 235.326 466.512C235.326 465.806 234.808 465.234 234.17 465.234C233.531 465.234 233.013 465.806 233.013 466.512C233.013 467.217 233.531 467.789 234.17 467.789Z" fill="#4A5568" stroke="#4A5568" stroke-width="5" stroke-miterlimit="10"/>
<path d="M251.004 478.831C251.643 478.831 252.161 478.259 252.161 477.553C252.161 476.847 251.643 476.275 251.004 476.275C250.366 476.275 249.848 476.847 249.848 477.553C249.848 478.259 250.366 478.831 251.004 478.831Z" fill="#4A5568" stroke="#4A5568" stroke-width="5" stroke-miterlimit="10"/>
<path d="M267.839 484.836C268.478 484.836 268.996 484.264 268.996 483.558C268.996 482.852 268.478 482.28 267.839 482.28C267.201 482.28 266.683 482.852 266.683 483.558C266.683 484.264 267.201 484.836 267.839 484.836Z" fill="#4A5568" stroke="#4A5568" stroke-width="5" stroke-miterlimit="10"/>
<path d="M285.927 490.152C286.566 490.152 287.083 489.58 287.083 488.874C287.083 488.168 286.566 487.596 285.927 487.596C285.288 487.596 284.771 488.168 284.771 488.874C284.771 489.58 285.288 490.152 285.927 490.152Z" fill="#4A5568" stroke="#4A5568" stroke-width="5" stroke-miterlimit="10"/>
<path d="M303.388 492.708C304.027 492.708 304.544 492.136 304.544 491.43C304.544 490.724 304.027 490.152 303.388 490.152C302.749 490.152 302.232 490.724 302.232 491.43C302.232 492.136 302.749 492.708 303.388 492.708Z" fill="#4A5568" stroke="#4A5568" stroke-width="5" stroke-miterlimit="10"/>
<path d="M322.097 493.015C322.736 493.015 323.254 492.443 323.254 491.737C323.254 491.031 322.736 490.459 322.097 490.459C321.459 490.459 320.941 491.031 320.941 491.737C320.941 492.443 321.459 493.015 322.097 493.015Z" fill="#4A5568" stroke="#4A5568" stroke-width="5" stroke-miterlimit="10"/>
<path d="M137.156 288.556C137.795 288.556 138.313 287.984 138.313 287.278C138.313 286.572 137.795 286 137.156 286C136.518 286 136 286.572 136 287.278C136 287.984 136.518 288.556 137.156 288.556Z" fill="#4A5568" stroke="#4A5568" stroke-width="5" stroke-miterlimit="10"/>
<path d="M138.311 307.212C138.949 307.212 139.467 306.64 139.467 305.935C139.467 305.229 138.949 304.657 138.311 304.657C137.672 304.657 137.154 305.229 137.154 305.935C137.154 306.64 137.672 307.212 138.311 307.212Z" fill="#4A5568" stroke="#4A5568" stroke-width="5" stroke-miterlimit="10"/>
<path d="M139.47 327.786C140.108 327.786 140.626 327.214 140.626 326.508C140.626 325.802 140.108 325.23 139.47 325.23C138.831 325.23 138.313 325.802 138.313 326.508C138.313 327.214 138.831 327.786 139.47 327.786Z" fill="#4A5568" stroke="#4A5568" stroke-width="5" stroke-miterlimit="10"/>
<path d="M144.373 347.184C145.011 347.184 145.529 346.612 145.529 345.906C145.529 345.201 145.011 344.628 144.373 344.628C143.734 344.628 143.216 345.201 143.216 345.906C143.216 346.612 143.734 347.184 144.373 347.184Z" fill="#4A5568" stroke="#4A5568" stroke-width="5" stroke-miterlimit="10"/>
<defs>
<filter id="filter0_d_399_16" x="0" y="0" width="273" height="273" filterUnits="userSpaceOnUse" color-interpolation-filters="sRGB">
<feFlood flood-opacity="0" result="BackgroundImageFix"/>
<feColorMatrix in="SourceAlpha" type="matrix" values="0 0 0 0 0 0 0 0 0 0 0 0 0 0 0 0 0 0 127 0" result="hardAlpha"/>
<feOffset dy="4"/>
<feGaussianBlur stdDeviation="2"/>
<feComposite in2="hardAlpha" operator="out"/>
<feColorMatrix type="matrix" values="0 0 0 0 0 0 0 0 0 0 0 0 0 0 0 0 0 0 0.41 0"/>
<feBlend mode="normal" in2="BackgroundImageFix" result="effect1_dropShadow_399_16"/>
<feBlend mode="normal" in="SourceGraphic" in2="effect1_dropShadow_399_16" result="shape"/>
</filter>
</defs>
</svg>
