<svg width="1805" height="587" viewBox="0 0 1805 587" fill="none" xmlns="http://www.w3.org/2000/svg">
<g filter="url(#filter0_d_202_3828)">
<rect x="321.081" width="350.986" height="576.396" fill="white"/>
</g>
<g filter="url(#filter1_d_202_3828)">
<rect x="1131.05" width="350.986" height="578.908" fill="white"/>
</g>
<g filter="url(#filter2_d_202_3828)">
<rect x="717.274" width="350.986" height="576.396" fill="white"/>
</g>
<g filter="url(#filter3_d_202_3828)">
<rect x="4" y="151.32" width="1797" height="90.4151" fill="white"/>
</g>
<g filter="url(#filter4_d_202_3828)">
<rect x="4" y="258.688" width="1797" height="90.4151" fill="white"/>
</g>
<g filter="url(#filter5_d_202_3828)">
<rect x="4" y="365.427" width="1797" height="90.4151" fill="white"/>
</g>
<path d="M1321.49 245.208V116.786H1217.81V245.208H930.087V116.786H826.404V245.208H538.685V116.786H437.595V245.208H284.663V361.955H437.595V490.376H538.685V361.955H826.404V490.376H930.087V361.955H1217.81V490.376H1321.49V361.955H1477.01V245.208H1321.49Z" fill="#B2B2B2"/>
<path d="M1321.49 245.208V116.786H1217.81V245.208H930.087V116.786H826.404V245.208H538.685V116.786H437.595V245.208H284.663V361.955H437.595V490.376H538.685V361.955H826.404V490.376H930.087V361.955H1217.81V490.376H1321.49V361.955H1477.01V245.208H1321.49Z" fill="#E70082"/>
<path d="M429.112 338.363H421.725V281.391H401.604V274.829H449.233V281.391H429.112V338.363ZM586.731 338.363H551.313V274.829H586.731V281.391H558.701V301.859H585.036V308.377H558.701V331.757H586.731V338.363ZM697.416 280.521C690.434 280.521 684.915 282.854 680.859 287.518C676.832 292.153 674.818 298.513 674.818 306.596C674.818 314.91 676.759 321.342 680.642 325.891C684.553 330.41 690.115 332.67 697.329 332.67C701.762 332.67 706.817 331.873 712.496 330.28V336.755C708.092 338.406 702.66 339.232 696.199 339.232C686.841 339.232 679.613 336.393 674.514 330.714C669.444 325.036 666.909 316.967 666.909 306.509C666.909 299.961 668.126 294.225 670.56 289.3C673.022 284.375 676.557 280.579 681.163 277.914C685.799 275.249 691.245 273.916 697.503 273.916C704.166 273.916 709.99 275.133 714.973 277.566L711.844 283.911C707.035 281.651 702.225 280.521 697.416 280.521ZM843.953 338.363H836.565V308.464H803.104V338.363H795.716V274.829H803.104V301.859H836.565V274.829H843.953V338.363ZM980.408 338.363H971.978L937.255 285.041H936.908C937.371 291.299 937.603 297.035 937.603 302.25V338.363H930.78V274.829H939.124L973.759 327.933H974.107C974.049 327.151 973.919 324.645 973.716 320.415C973.513 316.156 973.441 313.114 973.499 311.289V274.829H980.408V338.363ZM1067.24 338.363V274.829H1074.62V338.363H1067.24ZM1196.87 338.363H1161.45V274.829H1196.87V281.391H1168.84V301.859H1195.17V308.377H1168.84V331.757H1196.87V338.363ZM1326.24 338.363H1317.55L1294.39 307.552L1287.74 313.462V338.363H1280.35V274.829H1287.74V306.335L1316.55 274.829H1325.28L1299.73 302.424L1326.24 338.363Z" fill="white"/>
<path d="M349.303 56.6494H355.37V65.3286C354.426 65.6297 353.465 65.8576 352.489 66.0122C351.512 66.1668 350.381 66.2441 349.095 66.2441C346.393 66.2441 344.29 65.4425 342.784 63.8394C341.279 62.228 340.526 59.9738 340.526 57.0767C340.526 55.2212 340.896 53.5977 341.637 52.2061C342.385 50.8063 343.46 49.7402 344.859 49.0078C346.259 48.2673 347.899 47.897 349.779 47.897C351.683 47.897 353.457 48.2469 355.101 48.9468L354.295 50.7778C352.684 50.0942 351.134 49.7524 349.645 49.7524C347.472 49.7524 345.775 50.3994 344.554 51.6934C343.333 52.9873 342.723 54.7817 342.723 57.0767C342.723 59.4855 343.309 61.3125 344.481 62.5576C345.661 63.8027 347.39 64.4253 349.669 64.4253C350.906 64.4253 352.114 64.2829 353.294 63.998V58.5049H349.303V56.6494ZM369.615 66H359.667V48.1533H369.615V49.9966H361.742V55.7461H369.139V57.5771H361.742V64.1445H369.615V66ZM373.583 48.1533H378.624C380.992 48.1533 382.705 48.5073 383.763 49.2153C384.821 49.9233 385.35 51.0423 385.35 52.5723C385.35 53.6302 385.053 54.505 384.459 55.1968C383.873 55.8804 383.014 56.3239 381.883 56.5273V56.6494C384.593 57.1133 385.948 58.5374 385.948 60.9219C385.948 62.5169 385.407 63.762 384.325 64.6572C383.25 65.5524 381.745 66 379.808 66H373.583V48.1533ZM375.658 55.7949H379.076C380.541 55.7949 381.594 55.5671 382.237 55.1113C382.88 54.6475 383.202 53.8703 383.202 52.7798C383.202 51.7788 382.844 51.0586 382.127 50.6191C381.411 50.1715 380.272 49.9478 378.709 49.9478H375.658V55.7949ZM375.658 57.5527V64.23H379.381C380.821 64.23 381.904 63.9533 382.628 63.3999C383.36 62.8384 383.727 61.9635 383.727 60.7754C383.727 59.6686 383.352 58.8548 382.604 58.334C381.863 57.8132 380.732 57.5527 379.21 57.5527H375.658ZM391.869 58.5781V66H389.793V48.1533H394.688C396.878 48.1533 398.493 48.5724 399.535 49.4106C400.584 50.2489 401.109 51.5103 401.109 53.1948C401.109 55.5549 399.913 57.1499 397.521 57.98L402.367 66H399.913L395.592 58.5781H391.869ZM391.869 56.7959H394.713C396.178 56.7959 397.252 56.507 397.936 55.9292C398.619 55.3433 398.961 54.4684 398.961 53.3047C398.961 52.1247 398.611 51.2743 397.911 50.7534C397.219 50.2326 396.104 49.9722 394.566 49.9722H391.869V56.7959ZM418.724 48.1533V59.7012C418.724 61.7357 418.11 63.3348 416.881 64.4985C415.652 65.6623 413.963 66.2441 411.815 66.2441C409.667 66.2441 408.002 65.6582 406.822 64.4863C405.65 63.3145 405.064 61.7031 405.064 59.6523V48.1533H407.14V59.7988C407.14 61.2881 407.547 62.4315 408.36 63.229C409.174 64.0265 410.37 64.4253 411.949 64.4253C413.455 64.4253 414.614 64.0265 415.428 63.229C416.242 62.4233 416.649 61.2718 416.649 59.7744V48.1533H418.724ZM423.46 66V48.1533H425.536V66H423.46ZM443.333 66H440.892L434.386 57.3452L432.518 59.0054V66H430.443V48.1533H432.518V57.0034L440.611 48.1533H443.065L435.887 55.9048L443.333 66ZM455.87 61.2515C455.87 62.8221 455.3 64.0469 454.161 64.9258C453.022 65.8047 451.476 66.2441 449.522 66.2441C447.407 66.2441 445.779 65.9715 444.64 65.4263V63.4243C445.372 63.7336 446.17 63.9777 447.032 64.1567C447.895 64.3358 448.749 64.4253 449.596 64.4253C450.979 64.4253 452.021 64.1649 452.721 63.644C453.421 63.1151 453.771 62.3826 453.771 61.4468C453.771 60.8283 453.644 60.3237 453.392 59.9331C453.148 59.5343 452.733 59.1681 452.147 58.8345C451.569 58.5008 450.686 58.1224 449.498 57.6992C447.838 57.1051 446.65 56.4012 445.934 55.5874C445.226 54.7736 444.872 53.7116 444.872 52.4014C444.872 51.026 445.388 49.9315 446.422 49.1177C447.455 48.3039 448.823 47.897 450.523 47.897C452.298 47.897 453.929 48.2225 455.418 48.8735L454.771 50.6802C453.299 50.0617 451.866 49.7524 450.475 49.7524C449.376 49.7524 448.517 49.9884 447.899 50.4604C447.28 50.9325 446.971 51.5876 446.971 52.4258C446.971 53.0443 447.085 53.5529 447.313 53.9517C447.541 54.3423 447.923 54.7044 448.46 55.0381C449.006 55.3636 449.836 55.7257 450.951 56.1245C452.822 56.7918 454.108 57.508 454.808 58.2729C455.516 59.0379 455.87 60.0308 455.87 61.2515ZM469.713 48.1533H471.947L465.514 66H463.463L457.066 48.1533H459.264L463.365 59.7012C463.837 61.0277 464.212 62.3175 464.488 63.5708C464.781 62.2524 465.164 60.9382 465.636 59.6279L469.713 48.1533ZM476.488 58.5781V66H474.413V48.1533H479.308C481.497 48.1533 483.112 48.5724 484.154 49.4106C485.204 50.2489 485.729 51.5103 485.729 53.1948C485.729 55.5549 484.532 57.1499 482.14 57.98L486.986 66H484.532L480.211 58.5781H476.488ZM476.488 56.7959H479.332C480.797 56.7959 481.871 56.507 482.555 55.9292C483.238 55.3433 483.58 54.4684 483.58 53.3047C483.58 52.1247 483.23 51.2743 482.53 50.7534C481.839 50.2326 480.724 49.9722 479.186 49.9722H476.488V56.7959ZM489.867 66V48.1533H491.942V66H489.867ZM506.798 66H496.849V48.1533H506.798V49.9966H498.924V55.7461H506.322V57.5771H498.924V64.1445H506.798V66ZM524.706 66H522.337L512.584 51.022H512.486C512.617 52.7798 512.682 54.3911 512.682 55.856V66H510.765V48.1533H513.109L522.838 63.0703H522.936C522.919 62.8506 522.883 62.1466 522.826 60.9585C522.769 59.7622 522.748 58.9077 522.765 58.395V48.1533H524.706V66ZM543.858 56.9058C543.858 59.8517 543.057 62.106 541.454 63.6685C539.859 65.2228 537.56 66 534.557 66H529.613V48.1533H535.082C537.857 48.1533 540.013 48.9224 541.551 50.4604C543.089 51.9985 543.858 54.147 543.858 56.9058ZM541.661 56.979C541.661 54.6515 541.075 52.8978 539.903 51.7178C538.74 50.5378 537.006 49.9478 534.703 49.9478H531.688V64.2056H534.215C536.689 64.2056 538.548 63.5993 539.793 62.3867C541.039 61.166 541.661 59.3634 541.661 56.979ZM557.799 66H547.85V48.1533H557.799V49.9966H549.925V55.7461H557.323V57.5771H549.925V64.1445H557.799V66ZM561.766 66V48.1533H563.841V64.1201H571.715V66H561.766ZM574.754 66V48.1533H576.83V66H574.754ZM579.137 70.6997C578.372 70.6997 577.77 70.5898 577.33 70.3701V68.6001C577.908 68.7629 578.51 68.8442 579.137 68.8442C579.942 68.8442 580.553 68.6001 580.968 68.1118C581.391 67.6235 581.603 66.9196 581.603 66V48.1533H583.678V65.8291C583.678 67.3753 583.287 68.5716 582.506 69.418C581.725 70.2725 580.602 70.6997 579.137 70.6997ZM601.317 66H598.875L592.369 57.3452L590.501 59.0054V66H588.426V48.1533H590.501V57.0034L598.595 48.1533H601.048L593.871 55.9048L601.317 66ZM617.333 66H615.257V57.6016H605.858V66H603.783V48.1533H605.858V55.7461H615.257V48.1533H617.333V66ZM632.188 66H622.24V48.1533H632.188V49.9966H624.315V55.7461H631.712V57.5771H624.315V64.1445H632.188V66ZM636.156 66V48.1533H638.231V66H636.156ZM657.384 56.9058C657.384 59.8517 656.582 62.106 654.979 63.6685C653.384 65.2228 651.085 66 648.082 66H643.138V48.1533H648.607C651.382 48.1533 653.539 48.9224 655.077 50.4604C656.615 51.9985 657.384 54.147 657.384 56.9058ZM655.187 56.979C655.187 54.6515 654.601 52.8978 653.429 51.7178C652.265 50.5378 650.532 49.9478 648.229 49.9478H645.213V64.2056H647.74C650.214 64.2056 652.074 63.5993 653.319 62.3867C654.564 61.166 655.187 59.3634 655.187 56.979Z" fill="black"/>
<path d="M61.1865 192.21C59.2253 192.21 57.675 192.866 56.5356 194.176C55.4045 195.478 54.8389 197.264 54.8389 199.535C54.8389 201.87 55.3841 203.677 56.4746 204.955C57.5732 206.224 59.1357 206.859 61.1621 206.859C62.4072 206.859 63.8273 206.635 65.4224 206.188V208.006C64.1854 208.47 62.6595 208.702 60.8447 208.702C58.2161 208.702 56.1857 207.905 54.7534 206.31C53.3293 204.715 52.6172 202.448 52.6172 199.51C52.6172 197.671 52.959 196.06 53.6426 194.676C54.3343 193.293 55.3271 192.227 56.6211 191.478C57.9232 190.729 59.4531 190.355 61.2109 190.355C63.0827 190.355 64.7184 190.697 66.1182 191.38L65.2393 193.163C63.8883 192.528 62.5374 192.21 61.1865 192.21ZM71.3916 201.036V208.458H69.3164V190.611H74.2114C76.4006 190.611 78.016 191.03 79.0576 191.869C80.1074 192.707 80.6323 193.968 80.6323 195.653C80.6323 198.013 79.436 199.608 77.0435 200.438L81.8896 208.458H79.436L75.1147 201.036H71.3916ZM71.3916 199.254H74.2358C75.7007 199.254 76.7749 198.965 77.4585 198.387C78.1421 197.801 78.4839 196.926 78.4839 195.763C78.4839 194.583 78.134 193.732 77.4341 193.211C76.7424 192.691 75.6274 192.43 74.0894 192.43H71.3916V199.254ZM94.7192 208.458H84.7705V190.611H94.7192V192.455H86.8457V198.204H94.2432V200.035H86.8457V206.603H94.7192V208.458ZM109.905 208.458L107.683 202.782H100.53L98.3325 208.458H96.2329L103.289 190.538H105.034L112.053 208.458H109.905ZM107.036 200.914L104.961 195.384C104.692 194.684 104.416 193.826 104.131 192.809C103.952 193.59 103.695 194.448 103.362 195.384L101.262 200.914H107.036ZM120 208.458H117.925V192.455H112.273V190.611H125.652V192.455H120V208.458ZM128.35 208.458V190.611H130.425V208.458H128.35ZM145.525 190.611H147.759L141.326 208.458H139.275L132.878 190.611H135.076L139.177 202.159C139.649 203.486 140.024 204.776 140.3 206.029C140.593 204.71 140.976 203.396 141.448 202.086L145.525 190.611ZM150.225 208.458V190.611H152.3V208.458H150.225ZM162.7 208.458H160.625V192.455H154.973V190.611H168.352V192.455H162.7V208.458ZM180.999 208.458H171.05V190.611H180.999V192.455H173.125V198.204H180.522V200.035H173.125V206.603H180.999V208.458ZM184.966 208.458V190.611H187.041V208.458H184.966ZM197.441 208.458H195.366V192.455H189.714V190.611H203.093V192.455H197.441V208.458Z" fill="black"/>
<path d="M59.0381 315.198H56.9629V299.195H51.311V297.352H64.6899V299.195H59.0381V315.198ZM77.3364 315.198H67.3877V297.352H77.3364V299.195H69.4629V304.944H76.8604V306.775H69.4629V313.343H77.3364V315.198ZM88.9453 298.951C86.984 298.951 85.4338 299.606 84.2944 300.916C83.1632 302.218 82.5977 304.004 82.5977 306.275C82.5977 308.611 83.1429 310.417 84.2334 311.695C85.332 312.964 86.8945 313.599 88.9209 313.599C90.166 313.599 91.5861 313.375 93.1812 312.928V314.747C91.9442 315.21 90.4183 315.442 88.6035 315.442C85.9749 315.442 83.9445 314.645 82.5122 313.05C81.0881 311.455 80.376 309.188 80.376 306.25C80.376 304.411 80.7178 302.8 81.4014 301.417C82.0931 300.033 83.0859 298.967 84.3799 298.218C85.682 297.47 87.2119 297.095 88.9697 297.095C90.8415 297.095 92.4772 297.437 93.877 298.121L92.998 299.903C91.6471 299.268 90.2962 298.951 88.9453 298.951ZM110.625 315.198H108.55V306.8H99.1504V315.198H97.0752V297.352H99.1504V304.944H108.55V297.352H110.625V315.198ZM129.473 315.198H127.104L117.351 300.22H117.253C117.384 301.978 117.449 303.589 117.449 305.054V315.198H115.532V297.352H117.876L127.605 312.269H127.703C127.686 312.049 127.65 311.345 127.593 310.157C127.536 308.96 127.515 308.106 127.532 307.593V297.352H129.473V315.198ZM134.38 315.198V297.352H136.455V315.198H134.38ZM151.311 315.198H141.362V297.352H151.311V299.195H143.438V304.944H150.835V306.775H143.438V313.343H151.311V315.198ZM168.169 315.198H165.728L159.221 306.543L157.354 308.204V315.198H155.278V297.352H157.354V306.202L165.447 297.352H167.9L160.723 305.103L168.169 315.198Z" fill="black"/>
<path d="M63.6157 415.934C63.6157 417.504 63.0461 418.729 61.9067 419.608C60.7674 420.487 59.2212 420.927 57.2681 420.927C55.1522 420.927 53.5246 420.654 52.3853 420.109V418.107C53.1177 418.416 53.9152 418.66 54.7778 418.839C55.6405 419.018 56.495 419.108 57.3413 419.108C58.7248 419.108 59.7664 418.847 60.4663 418.326C61.1662 417.797 61.5161 417.065 61.5161 416.129C61.5161 415.511 61.39 415.006 61.1377 414.615C60.8936 414.217 60.4785 413.851 59.8926 413.517C59.3148 413.183 58.4318 412.805 57.2437 412.382C55.5835 411.788 54.3953 411.084 53.6792 410.27C52.9712 409.456 52.6172 408.394 52.6172 407.084C52.6172 405.708 53.134 404.614 54.1675 403.8C55.201 402.986 56.5682 402.579 58.269 402.579C60.0431 402.579 61.6748 402.905 63.1641 403.556L62.5171 405.363C61.0441 404.744 59.6118 404.435 58.2202 404.435C57.1216 404.435 56.263 404.671 55.6445 405.143C55.026 405.615 54.7168 406.27 54.7168 407.108C54.7168 407.727 54.8307 408.235 55.0586 408.634C55.2865 409.025 55.6689 409.387 56.2061 409.72C56.7513 410.046 57.5814 410.408 58.6963 410.807C60.568 411.474 61.8538 412.19 62.5537 412.955C63.2617 413.72 63.6157 414.713 63.6157 415.934ZM77.2144 420.682H67.2656V402.836H77.2144V404.679H69.3408V410.428H76.7383V412.26H69.3408V418.827H77.2144V420.682ZM83.2568 413.26V420.682H81.1816V402.836H86.0767C88.2658 402.836 89.8812 403.255 90.9229 404.093C91.9727 404.931 92.4976 406.193 92.4976 407.877C92.4976 410.237 91.3013 411.832 88.9087 412.662L93.7549 420.682H91.3013L86.98 413.26H83.2568ZM83.2568 411.478H86.1011C87.5659 411.478 88.6401 411.189 89.3237 410.612C90.0073 410.026 90.3491 409.151 90.3491 407.987C90.3491 406.807 89.9992 405.957 89.2993 405.436C88.6076 404.915 87.4927 404.655 85.9546 404.655H83.2568V411.478ZM106.829 402.836H109.062L102.629 420.682H100.579L94.1821 402.836H96.3794L100.481 414.384C100.953 415.71 101.327 417 101.604 418.253C101.897 416.935 102.279 415.621 102.751 414.31L106.829 402.836ZM111.528 420.682V402.836H113.604V420.682H111.528ZM126.152 404.435C124.191 404.435 122.641 405.09 121.501 406.4C120.37 407.702 119.805 409.489 119.805 411.759C119.805 414.095 120.35 415.901 121.44 417.179C122.539 418.448 124.102 419.083 126.128 419.083C127.373 419.083 128.793 418.859 130.388 418.412V420.231C129.151 420.695 127.625 420.927 125.811 420.927C123.182 420.927 121.152 420.129 119.719 418.534C118.295 416.939 117.583 414.672 117.583 411.735C117.583 409.895 117.925 408.284 118.608 406.901C119.3 405.517 120.293 404.451 121.587 403.702C122.889 402.954 124.419 402.579 126.177 402.579C128.049 402.579 129.684 402.921 131.084 403.605L130.205 405.387C128.854 404.752 127.503 404.435 126.152 404.435ZM144.231 420.682H134.282V402.836H144.231V404.679H136.357V410.428H143.755V412.26H136.357V418.827H144.231V420.682Z" fill="black"/>
<path d="M1274.62 74.0912H1272.54V58.0878H1266.89V56.2445H1280.27V58.0878H1274.62V74.0912ZM1298.46 65.1434C1298.46 67.9999 1297.73 70.246 1296.29 71.8817C1294.85 73.5175 1292.84 74.3353 1290.27 74.3353C1287.64 74.3353 1285.61 73.5337 1284.18 71.9305C1282.75 70.3192 1282.04 68.0487 1282.04 65.119C1282.04 62.2137 1282.76 59.9636 1284.19 58.3685C1285.62 56.7653 1287.66 55.9637 1290.29 55.9637C1292.86 55.9637 1294.86 56.7775 1296.3 58.4052C1297.74 60.0328 1298.46 62.2788 1298.46 65.1434ZM1284.24 65.1434C1284.24 67.5604 1284.75 69.3955 1285.78 70.6488C1286.81 71.8939 1288.31 72.5165 1290.27 72.5165C1292.25 72.5165 1293.74 71.8939 1294.75 70.6488C1295.76 69.4037 1296.26 67.5686 1296.26 65.1434C1296.26 62.7427 1295.76 60.9239 1294.75 59.6869C1293.75 58.4418 1292.26 57.8192 1290.29 57.8192C1288.31 57.8192 1286.81 58.4458 1285.78 59.6991C1284.75 60.9442 1284.24 62.759 1284.24 65.1434ZM1317.94 65.1434C1317.94 67.9999 1317.22 70.246 1315.77 71.8817C1314.33 73.5175 1312.32 74.3353 1309.75 74.3353C1307.12 74.3353 1305.09 73.5337 1303.66 71.9305C1302.24 70.3192 1301.52 68.0487 1301.52 65.119C1301.52 62.2137 1302.24 59.9636 1303.67 58.3685C1305.1 56.7653 1307.14 55.9637 1309.77 55.9637C1312.34 55.9637 1314.34 56.7775 1315.78 58.4052C1317.22 60.0328 1317.94 62.2788 1317.94 65.1434ZM1303.72 65.1434C1303.72 67.5604 1304.23 69.3955 1305.26 70.6488C1306.29 71.8939 1307.79 72.5165 1309.75 72.5165C1311.73 72.5165 1313.22 71.8939 1314.23 70.6488C1315.24 69.4037 1315.74 67.5686 1315.74 65.1434C1315.74 62.7427 1315.24 60.9239 1314.23 59.6869C1313.23 58.4418 1311.74 57.8192 1309.77 57.8192C1307.8 57.8192 1306.29 58.4458 1305.26 59.6991C1304.23 60.9442 1303.72 62.759 1303.72 65.1434ZM1321.93 74.0912V56.2445H1324.01V72.2113H1331.88V74.0912H1321.93ZM1344.99 69.3427C1344.99 70.9133 1344.42 72.1381 1343.28 73.017C1342.14 73.8959 1340.6 74.3353 1338.64 74.3353C1336.53 74.3353 1334.9 74.0627 1333.76 73.5175V71.5155C1334.49 71.8247 1335.29 72.0689 1336.15 72.2479C1337.02 72.427 1337.87 72.5165 1338.72 72.5165C1340.1 72.5165 1341.14 72.2561 1341.84 71.7352C1342.54 71.2063 1342.89 70.4738 1342.89 69.538C1342.89 68.9195 1342.77 68.4149 1342.51 68.0243C1342.27 67.6255 1341.85 67.2593 1341.27 66.9257C1340.69 66.592 1339.81 66.2136 1338.62 65.7904C1336.96 65.1963 1335.77 64.4924 1335.06 63.6786C1334.35 62.8648 1333.99 61.8028 1333.99 60.4926C1333.99 59.1172 1334.51 58.0227 1335.54 57.2089C1336.58 56.3951 1337.94 55.9882 1339.65 55.9882C1341.42 55.9882 1343.05 56.3137 1344.54 56.9647L1343.89 58.7714C1342.42 58.1529 1340.99 57.8436 1339.6 57.8436C1338.5 57.8436 1337.64 58.0796 1337.02 58.5516C1336.4 59.0236 1336.09 59.6788 1336.09 60.517C1336.09 61.1355 1336.21 61.6441 1336.44 62.0428C1336.66 62.4335 1337.05 62.7956 1337.58 63.1293C1338.13 63.4548 1338.96 63.8169 1340.07 64.2157C1341.94 64.883 1343.23 65.5992 1343.93 66.3641C1344.64 67.1291 1344.99 68.1219 1344.99 69.3427Z" fill="black"/>
<path d="M1549.35 206.574H1547.28V188.728H1557.23V190.571H1549.35V197.102H1556.75V198.945H1549.35V206.574ZM1573.67 188.728V200.276C1573.67 202.31 1573.05 203.909 1571.83 205.073C1570.6 206.237 1568.91 206.819 1566.76 206.819C1564.61 206.819 1562.95 206.233 1561.77 205.061C1560.59 203.889 1560.01 202.278 1560.01 200.227V188.728H1562.08V200.373C1562.08 201.863 1562.49 203.006 1563.3 203.803C1564.12 204.601 1565.31 205 1566.89 205C1568.4 205 1569.56 204.601 1570.37 203.803C1571.19 202.998 1571.59 201.846 1571.59 200.349V188.728H1573.67ZM1592.35 206.574H1589.98L1580.22 191.596H1580.13C1580.26 193.354 1580.32 194.966 1580.32 196.43V206.574H1578.4V188.728H1580.75L1590.48 203.645H1590.58C1590.56 203.425 1590.52 202.721 1590.47 201.533C1590.41 200.337 1590.39 199.482 1590.4 198.969V188.728H1592.35V206.574ZM1604.89 190.327C1602.93 190.327 1601.38 190.982 1600.24 192.292C1599.11 193.594 1598.55 195.381 1598.55 197.651C1598.55 199.987 1599.09 201.793 1600.18 203.071C1601.28 204.341 1602.84 204.975 1604.87 204.975C1606.11 204.975 1607.53 204.752 1609.13 204.304V206.123C1607.89 206.587 1606.37 206.819 1604.55 206.819C1601.92 206.819 1599.89 206.021 1598.46 204.426C1597.04 202.831 1596.32 200.565 1596.32 197.627C1596.32 195.788 1596.67 194.176 1597.35 192.793C1598.04 191.409 1599.03 190.343 1600.33 189.594C1601.63 188.846 1603.16 188.471 1604.92 188.471C1606.79 188.471 1608.43 188.813 1609.83 189.497L1608.95 191.279C1607.6 190.644 1606.24 190.327 1604.89 190.327ZM1618.52 206.574H1616.44V190.571H1610.79V188.728H1624.17V190.571H1618.52V206.574ZM1626.87 206.574V188.728H1628.94V206.574H1626.87ZM1649.34 197.627C1649.34 200.483 1648.62 202.729 1647.17 204.365C1645.73 206.001 1643.72 206.819 1641.15 206.819C1638.52 206.819 1636.49 206.017 1635.06 204.414C1633.63 202.802 1632.92 200.532 1632.92 197.602C1632.92 194.697 1633.64 192.447 1635.07 190.852C1636.5 189.249 1638.54 188.447 1641.17 188.447C1643.74 188.447 1645.74 189.261 1647.18 190.888C1648.62 192.516 1649.34 194.762 1649.34 197.627ZM1635.12 197.627C1635.12 200.044 1635.63 201.879 1636.66 203.132C1637.69 204.377 1639.19 205 1641.15 205C1643.13 205 1644.62 204.377 1645.63 203.132C1646.64 201.887 1647.14 200.052 1647.14 197.627C1647.14 195.226 1646.64 193.407 1645.63 192.17C1644.63 190.925 1643.14 190.302 1641.17 190.302C1639.2 190.302 1637.69 190.929 1636.66 192.182C1635.63 193.427 1635.12 195.242 1635.12 197.627ZM1667.27 206.574H1664.9L1655.15 191.596H1655.05C1655.18 193.354 1655.25 194.966 1655.25 196.43V206.574H1653.33V188.728H1655.68L1665.4 203.645H1665.5C1665.49 203.425 1665.45 202.721 1665.39 201.533C1665.34 200.337 1665.31 199.482 1665.33 198.969V188.728H1667.27V206.574ZM1683.4 206.574L1681.18 200.898H1674.02L1671.83 206.574H1669.73L1676.78 188.655H1678.53L1685.55 206.574H1683.4ZM1680.53 199.031L1678.45 193.501C1678.19 192.801 1677.91 191.942 1677.62 190.925C1677.44 191.706 1677.19 192.565 1676.85 193.501L1674.75 199.031H1680.53ZM1688 206.574V188.728H1690.07V204.695H1697.95V206.574H1688ZM1700.99 206.574V188.728H1703.06V206.574H1700.99ZM1713.46 206.574H1711.39V190.571H1705.74V188.728H1719.12V190.571H1713.46V206.574ZM1731.76 206.574H1721.81V188.728H1731.76V190.571H1723.89V196.321H1731.29V198.152H1723.89V204.719H1731.76V206.574ZM1735.73 206.574V188.728H1737.8V206.574H1735.73ZM1748.2 206.574H1746.13V190.571H1740.48V188.728H1753.86V190.571H1748.2V206.574Z" fill="black"/>
<path d="M1603.59 304.848C1603.59 307.794 1602.79 310.048 1601.19 311.611C1599.59 313.165 1597.29 313.942 1594.29 313.942H1589.35V296.096H1594.81C1597.59 296.096 1599.75 296.865 1601.28 298.403C1602.82 299.941 1603.59 302.089 1603.59 304.848ZM1601.39 304.921C1601.39 302.594 1600.81 300.84 1599.64 299.66C1598.47 298.48 1596.74 297.89 1594.44 297.89H1591.42V312.148H1593.95C1596.42 312.148 1598.28 311.542 1599.53 310.329C1600.77 309.108 1601.39 307.306 1601.39 304.921ZM1612.12 305.019L1616.88 296.096H1619.13L1613.17 307.021V313.942H1611.07V307.119L1605.13 296.096H1607.4L1612.12 305.019ZM1635.54 313.942H1633.17L1623.42 298.964H1623.32C1623.45 300.722 1623.51 302.333 1623.51 303.798V313.942H1621.6V296.096H1623.94L1633.67 311.013H1633.77C1633.75 310.793 1633.71 310.089 1633.66 308.901C1633.6 307.705 1633.58 306.85 1633.6 306.337V296.096H1635.54V313.942ZM1651.66 313.942L1649.44 308.266H1642.29L1640.09 313.942H1637.99L1645.05 296.022H1646.79L1653.81 313.942H1651.66ZM1648.79 306.398L1646.72 300.869C1646.45 300.169 1646.17 299.31 1645.89 298.293C1645.71 299.074 1645.45 299.933 1645.12 300.869L1643.02 306.398H1648.79ZM1664.16 313.942L1658.11 298.122H1658.01C1658.12 299.375 1658.18 300.865 1658.18 302.59V313.942H1656.26V296.096H1659.39L1665.04 310.817H1665.14L1670.84 296.096H1673.94V313.942H1671.86V302.443C1671.86 301.125 1671.92 299.693 1672.04 298.146H1671.94L1665.83 313.942H1664.16ZM1678.85 313.942V296.096H1680.92V313.942H1678.85ZM1695.78 313.942H1685.83V296.096H1695.78V297.939H1687.9V303.688H1695.3V305.52H1687.9V312.087H1695.78V313.942ZM1712.64 313.942H1710.19L1703.69 305.288L1701.82 306.948V313.942H1699.75V296.096H1701.82V304.946L1709.91 296.096H1712.37L1705.19 303.847L1712.64 313.942Z" fill="black"/>
<path d="M1575.64 404.435C1573.68 404.435 1572.13 405.09 1570.99 406.4C1569.86 407.702 1569.29 409.489 1569.29 411.759C1569.29 414.095 1569.84 415.901 1570.93 417.179C1572.03 418.448 1573.59 419.083 1575.61 419.083C1576.86 419.083 1578.28 418.859 1579.88 418.412V420.231C1578.64 420.695 1577.11 420.927 1575.3 420.927C1572.67 420.927 1570.64 420.129 1569.21 418.534C1567.78 416.939 1567.07 414.672 1567.07 411.735C1567.07 409.895 1567.41 408.284 1568.1 406.901C1568.79 405.517 1569.78 404.451 1571.07 403.702C1572.38 402.954 1573.91 402.579 1575.66 402.579C1577.54 402.579 1579.17 402.921 1580.57 403.605L1579.69 405.387C1578.34 404.752 1576.99 404.435 1575.64 404.435ZM1599.26 411.735C1599.26 414.591 1598.54 416.837 1597.09 418.473C1595.65 420.109 1593.64 420.927 1591.07 420.927C1588.44 420.927 1586.41 420.125 1584.98 418.522C1583.55 416.91 1582.84 414.64 1582.84 411.71C1582.84 408.805 1583.56 406.555 1584.99 404.96C1586.42 403.357 1588.46 402.555 1591.09 402.555C1593.66 402.555 1595.66 403.369 1597.1 404.996C1598.54 406.624 1599.26 408.87 1599.26 411.735ZM1585.04 411.735C1585.04 414.152 1585.55 415.987 1586.58 417.24C1587.61 418.485 1589.11 419.108 1591.07 419.108C1593.05 419.108 1594.54 418.485 1595.55 417.24C1596.56 415.995 1597.06 414.16 1597.06 411.735C1597.06 409.334 1596.56 407.515 1595.55 406.278C1594.55 405.033 1593.06 404.41 1591.09 404.41C1589.12 404.41 1587.61 405.037 1586.58 406.29C1585.55 407.535 1585.04 409.35 1585.04 411.735ZM1617.19 420.682H1614.82L1605.07 405.704H1604.97C1605.1 407.462 1605.17 409.073 1605.17 410.538V420.682H1603.25V402.836H1605.6L1615.32 417.753H1615.42C1615.41 417.533 1615.37 416.829 1615.31 415.641C1615.26 414.445 1615.23 413.59 1615.25 413.077V402.836H1617.19V420.682ZM1627.59 420.682H1625.52V404.679H1619.87V402.836H1633.24V404.679H1627.59V420.682ZM1635.94 420.682V402.836H1638.02V420.682H1635.94ZM1656.86 420.682H1654.5L1644.74 405.704H1644.65C1644.78 407.462 1644.84 409.073 1644.84 410.538V420.682H1642.92V402.836H1645.27L1655 417.753H1655.09C1655.08 417.533 1655.04 416.829 1654.98 415.641C1654.93 414.445 1654.91 413.59 1654.92 413.077V402.836H1656.86V420.682ZM1675.25 402.836V414.384C1675.25 416.418 1674.63 418.017 1673.41 419.181C1672.18 420.345 1670.49 420.927 1668.34 420.927C1666.19 420.927 1664.53 420.341 1663.35 419.169C1662.17 417.997 1661.59 416.385 1661.59 414.335V402.836H1663.66V414.481C1663.66 415.97 1664.07 417.114 1664.88 417.911C1665.7 418.709 1666.89 419.108 1668.47 419.108C1669.98 419.108 1671.14 418.709 1671.95 417.911C1672.77 417.106 1673.17 415.954 1673.17 414.457V402.836H1675.25ZM1679.98 420.682V402.836H1682.06V420.682H1679.98ZM1677.59 399.552C1677.59 399.129 1677.7 398.824 1677.91 398.636C1678.13 398.449 1678.39 398.356 1678.69 398.356C1679 398.356 1679.26 398.449 1679.48 398.636C1679.71 398.824 1679.83 399.129 1679.83 399.552C1679.83 399.959 1679.71 400.264 1679.48 400.468C1679.26 400.663 1679 400.76 1678.69 400.76C1678.39 400.76 1678.13 400.663 1677.91 400.468C1677.7 400.264 1677.59 399.959 1677.59 399.552ZM1682.24 399.552C1682.24 399.129 1682.35 398.824 1682.56 398.636C1682.78 398.449 1683.04 398.356 1683.34 398.356C1683.64 398.356 1683.9 398.449 1684.12 398.636C1684.35 398.824 1684.46 399.129 1684.46 399.552C1684.46 399.959 1684.35 400.264 1684.12 400.468C1683.9 400.663 1683.64 400.76 1683.34 400.76C1683.04 400.76 1682.78 400.663 1682.56 400.468C1682.35 400.264 1682.24 399.959 1682.24 399.552ZM1692.46 420.682H1690.39V404.679H1684.73V402.836H1698.11V404.679H1692.46V420.682ZM1710.76 420.682H1700.81V402.836H1710.76V404.679H1702.89V410.428H1710.28V412.26H1702.89V418.827H1710.76V420.682ZM1714.73 420.682V402.836H1716.8V420.682H1714.73ZM1727.2 420.682H1725.13V404.679H1719.47V402.836H1732.85V404.679H1727.2V420.682Z" fill="black"/>
<path d="M1267.61 545.003H1265.53V536.605H1256.13V545.003H1254.06V527.156H1256.13V534.749H1265.53V527.156H1267.61V545.003ZM1288 536.055C1288 538.912 1287.28 541.158 1285.83 542.794C1284.39 544.429 1282.38 545.247 1279.81 545.247C1277.18 545.247 1275.15 544.446 1273.72 542.843C1272.3 541.231 1271.59 538.961 1271.59 536.031C1271.59 533.126 1272.3 530.876 1273.73 529.281C1275.17 527.677 1277.2 526.876 1279.84 526.876C1282.4 526.876 1284.4 527.69 1285.84 529.317C1287.28 530.945 1288 533.191 1288 536.055ZM1273.78 536.055C1273.78 538.472 1274.3 540.308 1275.32 541.561C1276.35 542.806 1277.85 543.428 1279.81 543.428C1281.79 543.428 1283.28 542.806 1284.29 541.561C1285.3 540.316 1285.81 538.481 1285.81 536.055C1285.81 533.655 1285.3 531.836 1284.29 530.599C1283.29 529.354 1281.81 528.731 1279.84 528.731C1277.86 528.731 1276.35 529.358 1275.32 530.611C1274.3 531.856 1273.78 533.671 1273.78 536.055ZM1302.07 540.255C1302.07 541.825 1301.5 543.05 1300.36 543.929C1299.22 544.808 1297.67 545.247 1295.72 545.247C1293.6 545.247 1291.98 544.975 1290.84 544.429V542.427C1291.57 542.737 1292.37 542.981 1293.23 543.16C1294.09 543.339 1294.95 543.428 1295.79 543.428C1297.18 543.428 1298.22 543.168 1298.92 542.647C1299.62 542.118 1299.97 541.386 1299.97 540.45C1299.97 539.831 1299.84 539.327 1299.59 538.936C1299.34 538.538 1298.93 538.171 1298.34 537.838C1297.77 537.504 1296.88 537.126 1295.69 536.702C1294.03 536.108 1292.85 535.404 1292.13 534.591C1291.42 533.777 1291.07 532.715 1291.07 531.405C1291.07 530.029 1291.58 528.935 1292.62 528.121C1293.65 527.307 1295.02 526.9 1296.72 526.9C1298.49 526.9 1300.13 527.226 1301.61 527.877L1300.97 529.683C1299.49 529.065 1298.06 528.756 1296.67 528.756C1295.57 528.756 1294.71 528.992 1294.1 529.464C1293.48 529.936 1293.17 530.591 1293.17 531.429C1293.17 532.047 1293.28 532.556 1293.51 532.955C1293.74 533.345 1294.12 533.708 1294.66 534.041C1295.2 534.367 1296.03 534.729 1297.15 535.128C1299.02 535.795 1300.3 536.511 1301 537.276C1301.71 538.041 1302.07 539.034 1302.07 540.255ZM1311.21 545.003H1309.13V529H1303.48V527.156H1316.86V529H1311.21V545.003ZM1319.56 545.003V527.156H1321.63V545.003H1319.56ZM1340.48 545.003H1338.11L1328.36 530.025H1328.26C1328.39 531.783 1328.46 533.394 1328.46 534.859V545.003H1326.54V527.156H1328.89L1338.61 542.073H1338.71C1338.7 541.854 1338.66 541.15 1338.6 539.962C1338.55 538.765 1338.52 537.911 1338.54 537.398V527.156H1340.48V545.003ZM1353.24 535.653H1359.31V544.332C1358.36 544.633 1357.4 544.861 1356.42 545.015C1355.45 545.17 1354.32 545.247 1353.03 545.247C1350.33 545.247 1348.23 544.446 1346.72 542.843C1345.21 541.231 1344.46 538.977 1344.46 536.08C1344.46 534.224 1344.83 532.601 1345.57 531.209C1346.32 529.809 1347.4 528.743 1348.79 528.011C1350.19 527.27 1351.83 526.9 1353.71 526.9C1355.62 526.9 1357.39 527.25 1359.04 527.95L1358.23 529.781C1356.62 529.097 1355.07 528.756 1353.58 528.756C1351.41 528.756 1349.71 529.403 1348.49 530.697C1347.27 531.99 1346.66 533.785 1346.66 536.08C1346.66 538.489 1347.24 540.316 1348.42 541.561C1349.6 542.806 1351.33 543.428 1353.6 543.428C1354.84 543.428 1356.05 543.286 1357.23 543.001V537.508H1353.24V535.653Z" fill="black"/>
<path d="M825.577 551.91H823.502V543.511H814.103V551.91H812.027V534.063H814.103V541.656H823.502V534.063H825.577V551.91ZM840.433 551.91H830.484V534.063H840.433V535.906H832.56V541.656H839.957V543.487H832.56V550.054H840.433V551.91ZM844.4 551.91V534.063H846.476V550.03H854.349V551.91H844.4ZM868.705 539.263C868.705 541.07 868.086 542.461 866.849 543.438C865.62 544.406 863.858 544.891 861.563 544.891H859.464V551.91H857.389V534.063H862.015C866.475 534.063 868.705 535.796 868.705 539.263ZM859.464 543.108H861.332C863.171 543.108 864.501 542.811 865.323 542.217C866.145 541.623 866.556 540.671 866.556 539.361C866.556 538.181 866.17 537.302 865.396 536.724C864.623 536.146 863.419 535.857 861.783 535.857H859.464V543.108ZM886.698 542.815C886.698 545.761 885.896 548.016 884.293 549.578C882.698 551.132 880.399 551.91 877.396 551.91H872.452V534.063H877.921C880.696 534.063 882.853 534.832 884.391 536.37C885.929 537.908 886.698 540.057 886.698 542.815ZM884.5 542.889C884.5 540.561 883.915 538.807 882.743 537.627C881.579 536.447 879.846 535.857 877.542 535.857H874.527V550.115H877.054C879.528 550.115 881.388 549.509 882.633 548.296C883.878 547.076 884.5 545.273 884.5 542.889ZM900.638 551.91H890.689V534.063H900.638V535.906H892.765V541.656H900.162V543.487H892.765V550.054H900.638V551.91ZM914.676 547.161C914.676 548.732 914.107 549.957 912.967 550.835C911.828 551.714 910.282 552.154 908.329 552.154C906.213 552.154 904.585 551.881 903.446 551.336V549.334C904.178 549.643 904.976 549.887 905.838 550.066C906.701 550.245 907.556 550.335 908.402 550.335C909.785 550.335 910.827 550.075 911.527 549.554C912.227 549.025 912.577 548.292 912.577 547.356C912.577 546.738 912.451 546.233 912.198 545.843C911.954 545.444 911.539 545.078 910.953 544.744C910.375 544.41 909.492 544.032 908.304 543.609C906.644 543.015 905.456 542.311 904.74 541.497C904.032 540.683 903.678 539.621 903.678 538.311C903.678 536.936 904.194 535.841 905.228 535.027C906.262 534.214 907.629 533.807 909.33 533.807C911.104 533.807 912.735 534.132 914.225 534.783L913.578 536.59C912.105 535.971 910.672 535.662 909.281 535.662C908.182 535.662 907.324 535.898 906.705 536.37C906.087 536.842 905.777 537.497 905.777 538.335C905.777 538.954 905.891 539.463 906.119 539.861C906.347 540.252 906.729 540.614 907.267 540.948C907.812 541.273 908.642 541.635 909.757 542.034C911.629 542.701 912.914 543.418 913.614 544.183C914.322 544.948 914.676 545.94 914.676 547.161ZM931.217 551.91H928.775L922.269 543.255L920.401 544.915V551.91H918.326V534.063H920.401V542.913L928.495 534.063H930.948L923.771 541.814L931.217 551.91Z" fill="black"/>
<path d="M455.306 551.91L453.084 546.233H445.931L443.734 551.91H441.634L448.69 533.99H450.436L457.455 551.91H455.306ZM452.438 544.366L450.362 538.836C450.094 538.136 449.817 537.278 449.532 536.26C449.353 537.042 449.097 537.9 448.763 538.836L446.664 544.366H452.438ZM474.154 542.815C474.154 545.761 473.352 548.016 471.749 549.578C470.154 551.132 467.855 551.91 464.852 551.91H459.908V534.063H465.377C468.152 534.063 470.309 534.832 471.847 536.37C473.385 537.908 474.154 540.057 474.154 542.815ZM471.957 542.889C471.957 540.561 471.371 538.807 470.199 537.627C469.035 536.447 467.302 535.857 464.999 535.857H461.983V550.115H464.51C466.984 550.115 468.844 549.509 470.089 548.296C471.334 547.076 471.957 545.273 471.957 542.889ZM488.338 534.063H490.572L484.139 551.91H482.088L475.692 534.063H477.889L481.991 545.611C482.463 546.937 482.837 548.227 483.114 549.48C483.407 548.162 483.789 546.848 484.261 545.538L488.338 534.063ZM493.038 551.91V534.063H495.113V551.91H493.038ZM509.969 551.91H500.021V534.063H509.969V535.906H502.096V541.656H509.493V543.487H502.096V550.054H509.969V551.91ZM524.007 547.161C524.007 548.732 523.438 549.957 522.298 550.835C521.159 551.714 519.613 552.154 517.66 552.154C515.544 552.154 513.916 551.881 512.777 551.336V549.334C513.509 549.643 514.307 549.887 515.169 550.066C516.032 550.245 516.887 550.335 517.733 550.335C519.116 550.335 520.158 550.075 520.858 549.554C521.558 549.025 521.908 548.292 521.908 547.356C521.908 546.738 521.782 546.233 521.529 545.843C521.285 545.444 520.87 545.078 520.284 544.744C519.706 544.41 518.823 544.032 517.635 543.609C515.975 543.015 514.787 542.311 514.071 541.497C513.363 540.683 513.009 539.621 513.009 538.311C513.009 536.936 513.526 535.841 514.559 535.027C515.593 534.214 516.96 533.807 518.661 533.807C520.435 533.807 522.066 534.132 523.556 534.783L522.909 536.59C521.436 535.971 520.003 535.662 518.612 535.662C517.513 535.662 516.655 535.898 516.036 536.37C515.418 536.842 515.108 537.497 515.108 538.335C515.108 538.954 515.222 539.463 515.45 539.861C515.678 540.252 516.061 540.614 516.598 540.948C517.143 541.273 517.973 541.635 519.088 542.034C520.96 542.701 522.245 543.418 522.945 544.183C523.653 544.948 524.007 545.94 524.007 547.161Z" fill="black"/>
<path d="M761.944 38.0522C761.944 40.9087 761.22 43.1548 759.771 44.7905C758.331 46.4263 756.325 47.2441 753.753 47.2441C751.125 47.2441 749.094 46.4425 747.662 44.8394C746.238 43.228 745.526 40.9575 745.526 38.0278C745.526 35.1226 746.242 32.8724 747.674 31.2773C749.107 29.6742 751.141 28.8726 753.778 28.8726C756.341 28.8726 758.343 29.6864 759.784 31.314C761.224 32.9416 761.944 35.1877 761.944 38.0522ZM747.723 38.0522C747.723 40.4692 748.236 42.3044 749.261 43.5576C750.295 44.8027 751.792 45.4253 753.753 45.4253C755.731 45.4253 757.224 44.8027 758.233 43.5576C759.243 42.3125 759.747 40.4774 759.747 38.0522C759.747 35.6515 759.243 33.8327 758.233 32.5957C757.232 31.3506 755.747 30.728 753.778 30.728C751.8 30.728 750.295 31.3547 749.261 32.6079C748.236 33.853 747.723 35.6678 747.723 38.0522ZM779.876 47H777.508L767.755 32.022H767.657C767.787 33.7798 767.853 35.3911 767.853 36.856V47H765.936V29.1533H768.28L778.009 44.0703H778.106C778.09 43.8506 778.054 43.1466 777.997 41.9585C777.94 40.7622 777.919 39.9077 777.936 39.395V29.1533H779.876V47ZM790.277 47H788.202V30.9966H782.55V29.1533H795.929V30.9966H790.277V47ZM814.203 47H812.152L808.551 35.0493C808.38 34.5203 808.189 33.853 807.977 33.0474C807.765 32.2417 807.656 31.7575 807.647 31.5947C807.468 32.6689 807.184 33.8449 806.793 35.1226L803.302 47H801.251L796.502 29.1533H798.7L801.52 40.1763C801.91 41.7225 802.195 43.1222 802.374 44.3755C802.594 42.8862 802.919 41.4295 803.351 40.0054L806.549 29.1533H808.746L812.103 40.103C812.494 41.3644 812.823 42.7886 813.092 44.3755C813.246 43.2199 813.539 41.812 813.971 40.1519L816.778 29.1533H818.976L814.203 47ZM831.72 47H821.771V29.1533H831.72V30.9966H823.846V36.7461H831.244V38.5771H823.846V45.1445H831.72V47ZM837.762 39.5781V47H835.687V29.1533H840.582C842.771 29.1533 844.387 29.5724 845.428 30.4106C846.478 31.2489 847.003 32.5103 847.003 34.1948C847.003 36.5549 845.807 38.1499 843.414 38.98L848.26 47H845.807L841.485 39.5781H837.762ZM837.762 37.7959H840.606C842.071 37.7959 843.146 37.507 843.829 36.9292C844.513 36.3433 844.854 35.4684 844.854 34.3047C844.854 33.1247 844.505 32.2743 843.805 31.7534C843.113 31.2326 841.998 30.9722 840.46 30.9722H837.762V37.7959ZM862.457 34.3535C862.457 36.1602 861.839 37.5518 860.602 38.5283C859.373 39.4967 857.611 39.981 855.316 39.981H853.216V47H851.141V29.1533H855.768C860.227 29.1533 862.457 30.8867 862.457 34.3535ZM853.216 38.1987H855.084C856.923 38.1987 858.254 37.9017 859.076 37.3076C859.898 36.7135 860.309 35.7614 860.309 34.4512C860.309 33.2712 859.922 32.3923 859.149 31.8145C858.376 31.2367 857.171 30.9478 855.536 30.9478H853.216V38.1987ZM872.674 29.1533L866.021 47H863.995L870.648 29.1533H872.674ZM748.529 81H746.454V63.1533H756.402V64.9966H748.529V71.5273H755.926V73.3706H748.529V81ZM772.845 63.1533V74.7012C772.845 76.7357 772.231 78.3348 771.002 79.4985C769.773 80.6623 768.084 81.2441 765.936 81.2441C763.788 81.2441 762.123 80.6582 760.943 79.4863C759.771 78.3145 759.186 76.7031 759.186 74.6523V63.1533H761.261V74.7988C761.261 76.2881 761.668 77.4315 762.481 78.229C763.295 79.0265 764.492 79.4253 766.07 79.4253C767.576 79.4253 768.736 79.0265 769.549 78.229C770.363 77.4233 770.77 76.2718 770.77 74.7744V63.1533H772.845ZM791.522 81H789.154L779.4 66.022H779.303C779.433 67.7798 779.498 69.3911 779.498 70.856V81H777.582V63.1533H779.925L789.654 78.0703H789.752C789.736 77.8506 789.699 77.1466 789.642 75.9585C789.585 74.7622 789.565 73.9077 789.581 73.395V63.1533H791.522V81ZM804.071 64.7524C802.11 64.7524 800.559 65.4076 799.42 66.7178C798.289 68.0199 797.723 69.8062 797.723 72.0767C797.723 74.4123 798.268 76.2189 799.359 77.4966C800.458 78.7661 802.02 79.4009 804.046 79.4009C805.292 79.4009 806.712 79.1771 808.307 78.7295V80.5483C807.07 81.0122 805.544 81.2441 803.729 81.2441C801.1 81.2441 799.07 80.4466 797.638 78.8516C796.214 77.2565 795.501 74.9901 795.501 72.0522C795.501 70.2131 795.843 68.6017 796.527 67.2183C797.219 65.8348 798.211 64.7687 799.505 64.02C800.807 63.2713 802.337 62.897 804.095 62.897C805.967 62.897 807.603 63.2388 809.002 63.9224L808.124 65.7046C806.773 65.0698 805.422 64.7524 804.071 64.7524ZM817.694 81H815.619V64.9966H809.967V63.1533H823.346V64.9966H817.694V81ZM826.043 81V63.1533H828.119V81H826.043ZM848.517 72.0522C848.517 74.9087 847.792 77.1548 846.344 78.7905C844.903 80.4263 842.897 81.2441 840.326 81.2441C837.697 81.2441 835.667 80.4425 834.234 78.8394C832.81 77.228 832.098 74.9575 832.098 72.0278C832.098 69.1226 832.814 66.8724 834.247 65.2773C835.679 63.6742 837.713 62.8726 840.35 62.8726C842.914 62.8726 844.916 63.6864 846.356 65.314C847.796 66.9416 848.517 69.1877 848.517 72.0522ZM834.295 72.0522C834.295 74.4692 834.808 76.3044 835.833 77.5576C836.867 78.8027 838.364 79.4253 840.326 79.4253C842.303 79.4253 843.797 78.8027 844.806 77.5576C845.815 76.3125 846.319 74.4774 846.319 72.0522C846.319 69.6515 845.815 67.8327 844.806 66.5957C843.805 65.3506 842.319 64.728 840.35 64.728C838.373 64.728 836.867 65.3547 835.833 66.6079C834.808 67.853 834.295 69.6678 834.295 72.0522ZM866.449 81H864.081L854.327 66.022H854.229C854.36 67.7798 854.425 69.3911 854.425 70.856V81H852.508V63.1533H854.852L864.581 78.0703H864.679C864.662 77.8506 864.626 77.1466 864.569 75.9585C864.512 74.7622 864.492 73.9077 864.508 73.395V63.1533H866.449V81ZM881.305 81H871.356V63.1533H881.305V64.9966H873.431V70.7461H880.829V72.5771H873.431V79.1445H881.305V81ZM895.221 81H885.272V63.1533H895.221V64.9966H887.347V70.7461H894.745V72.5771H887.347V79.1445H895.221V81ZM899.188 81V63.1533H901.263V79.1201H909.137V81H899.188ZM926.52 71.6494H932.586V80.3286C931.642 80.6297 930.682 80.8576 929.706 81.0122C928.729 81.1668 927.598 81.2441 926.312 81.2441C923.61 81.2441 921.507 80.4425 920.001 78.8394C918.495 77.228 917.743 74.9738 917.743 72.0767C917.743 70.2212 918.113 68.5977 918.854 67.2061C919.602 65.8063 920.676 64.7402 922.076 64.0078C923.476 63.2673 925.116 62.897 926.996 62.897C928.9 62.897 930.674 63.2469 932.318 63.9468L931.512 65.7778C929.901 65.0942 928.351 64.7524 926.861 64.7524C924.688 64.7524 922.992 65.3994 921.771 66.6934C920.55 67.9873 919.94 69.7817 919.94 72.0767C919.94 74.4855 920.526 76.3125 921.698 77.5576C922.878 78.8027 924.607 79.4253 926.886 79.4253C928.123 79.4253 929.331 79.2829 930.511 78.998V73.5049H926.52V71.6494ZM938.958 73.5781V81H936.883V63.1533H941.778C943.967 63.1533 945.583 63.5724 946.625 64.4106C947.674 65.2489 948.199 66.5103 948.199 68.1948C948.199 70.5549 947.003 72.1499 944.61 72.98L949.457 81H947.003L942.682 73.5781H938.958ZM938.958 71.7959H941.803C943.268 71.7959 944.342 71.507 945.025 70.9292C945.709 70.3433 946.051 69.4684 946.051 68.3047C946.051 67.1247 945.701 66.2743 945.001 65.7534C944.309 65.2326 943.194 64.9722 941.656 64.9722H938.958V71.7959ZM963.556 81L961.334 75.3237H954.181L951.983 81H949.884L956.939 63.0801H958.685L965.704 81H963.556ZM960.687 73.4561L958.612 67.9263C958.343 67.2264 958.067 66.3678 957.782 65.3506C957.603 66.1318 957.346 66.9904 957.013 67.9263L954.913 73.4561H960.687ZM970.233 81H968.158V63.1533H978.106V64.9966H970.233V71.5273H977.63V73.3706H970.233V81ZM981.073 81V63.1533H983.148V81H981.073ZM998.126 76.2515C998.126 77.8221 997.556 79.0469 996.417 79.9258C995.278 80.8047 993.731 81.2441 991.778 81.2441C989.662 81.2441 988.035 80.9715 986.896 80.4263V78.4243C987.628 78.7336 988.425 78.9777 989.288 79.1567C990.151 79.3358 991.005 79.4253 991.852 79.4253C993.235 79.4253 994.277 79.1649 994.977 78.644C995.676 78.1151 996.026 77.3826 996.026 76.4468C996.026 75.8283 995.9 75.3237 995.648 74.9331C995.404 74.5343 994.989 74.1681 994.403 73.8345C993.825 73.5008 992.942 73.1224 991.754 72.6992C990.094 72.1051 988.906 71.4012 988.189 70.5874C987.481 69.7736 987.127 68.7116 987.127 67.4014C987.127 66.026 987.644 64.9315 988.678 64.1177C989.711 63.3039 991.078 62.897 992.779 62.897C994.553 62.897 996.185 63.2225 997.674 63.8735L997.027 65.6802C995.554 65.0617 994.122 64.7524 992.73 64.7524C991.632 64.7524 990.773 64.9884 990.155 65.4604C989.536 65.9325 989.227 66.5876 989.227 67.4258C989.227 68.0443 989.341 68.5529 989.569 68.9517C989.797 69.3423 990.179 69.7044 990.716 70.0381C991.262 70.3636 992.092 70.7257 993.207 71.1245C995.078 71.7918 996.364 72.508 997.064 73.2729C997.772 74.0379 998.126 75.0308 998.126 76.2515ZM1015.33 81H1013.25V72.6016H1003.85V81H1001.78V63.1533H1003.85V70.7461H1013.25V63.1533H1015.33V81Z" fill="black"/>
<defs>
<filter id="filter0_d_202_3828" x="317.081" y="0" width="358.986" height="584.396" filterUnits="userSpaceOnUse" color-interpolation-filters="sRGB">
<feFlood flood-opacity="0" result="BackgroundImageFix"/>
<feColorMatrix in="SourceAlpha" type="matrix" values="0 0 0 0 0 0 0 0 0 0 0 0 0 0 0 0 0 0 127 0" result="hardAlpha"/>
<feOffset dy="4"/>
<feGaussianBlur stdDeviation="2"/>
<feComposite in2="hardAlpha" operator="out"/>
<feColorMatrix type="matrix" values="0 0 0 0 0 0 0 0 0 0 0 0 0 0 0 0 0 0 0.25 0"/>
<feBlend mode="normal" in2="BackgroundImageFix" result="effect1_dropShadow_202_3828"/>
<feBlend mode="normal" in="SourceGraphic" in2="effect1_dropShadow_202_3828" result="shape"/>
</filter>
<filter id="filter1_d_202_3828" x="1127.05" y="0" width="358.986" height="586.908" filterUnits="userSpaceOnUse" color-interpolation-filters="sRGB">
<feFlood flood-opacity="0" result="BackgroundImageFix"/>
<feColorMatrix in="SourceAlpha" type="matrix" values="0 0 0 0 0 0 0 0 0 0 0 0 0 0 0 0 0 0 127 0" result="hardAlpha"/>
<feOffset dy="4"/>
<feGaussianBlur stdDeviation="2"/>
<feComposite in2="hardAlpha" operator="out"/>
<feColorMatrix type="matrix" values="0 0 0 0 0 0 0 0 0 0 0 0 0 0 0 0 0 0 0.25 0"/>
<feBlend mode="normal" in2="BackgroundImageFix" result="effect1_dropShadow_202_3828"/>
<feBlend mode="normal" in="SourceGraphic" in2="effect1_dropShadow_202_3828" result="shape"/>
</filter>
<filter id="filter2_d_202_3828" x="713.274" y="0" width="358.986" height="584.396" filterUnits="userSpaceOnUse" color-interpolation-filters="sRGB">
<feFlood flood-opacity="0" result="BackgroundImageFix"/>
<feColorMatrix in="SourceAlpha" type="matrix" values="0 0 0 0 0 0 0 0 0 0 0 0 0 0 0 0 0 0 127 0" result="hardAlpha"/>
<feOffset dy="4"/>
<feGaussianBlur stdDeviation="2"/>
<feComposite in2="hardAlpha" operator="out"/>
<feColorMatrix type="matrix" values="0 0 0 0 0 0 0 0 0 0 0 0 0 0 0 0 0 0 0.25 0"/>
<feBlend mode="normal" in2="BackgroundImageFix" result="effect1_dropShadow_202_3828"/>
<feBlend mode="normal" in="SourceGraphic" in2="effect1_dropShadow_202_3828" result="shape"/>
</filter>
<filter id="filter3_d_202_3828" x="0" y="151.32" width="1805" height="98.4152" filterUnits="userSpaceOnUse" color-interpolation-filters="sRGB">
<feFlood flood-opacity="0" result="BackgroundImageFix"/>
<feColorMatrix in="SourceAlpha" type="matrix" values="0 0 0 0 0 0 0 0 0 0 0 0 0 0 0 0 0 0 127 0" result="hardAlpha"/>
<feOffset dy="4"/>
<feGaussianBlur stdDeviation="2"/>
<feComposite in2="hardAlpha" operator="out"/>
<feColorMatrix type="matrix" values="0 0 0 0 0 0 0 0 0 0 0 0 0 0 0 0 0 0 0.25 0"/>
<feBlend mode="normal" in2="BackgroundImageFix" result="effect1_dropShadow_202_3828"/>
<feBlend mode="normal" in="SourceGraphic" in2="effect1_dropShadow_202_3828" result="shape"/>
</filter>
<filter id="filter4_d_202_3828" x="0" y="258.688" width="1805" height="98.415" filterUnits="userSpaceOnUse" color-interpolation-filters="sRGB">
<feFlood flood-opacity="0" result="BackgroundImageFix"/>
<feColorMatrix in="SourceAlpha" type="matrix" values="0 0 0 0 0 0 0 0 0 0 0 0 0 0 0 0 0 0 127 0" result="hardAlpha"/>
<feOffset dy="4"/>
<feGaussianBlur stdDeviation="2"/>
<feComposite in2="hardAlpha" operator="out"/>
<feColorMatrix type="matrix" values="0 0 0 0 0 0 0 0 0 0 0 0 0 0 0 0 0 0 0.25 0"/>
<feBlend mode="normal" in2="BackgroundImageFix" result="effect1_dropShadow_202_3828"/>
<feBlend mode="normal" in="SourceGraphic" in2="effect1_dropShadow_202_3828" result="shape"/>
</filter>
<filter id="filter5_d_202_3828" x="0" y="365.427" width="1805" height="98.415" filterUnits="userSpaceOnUse" color-interpolation-filters="sRGB">
<feFlood flood-opacity="0" result="BackgroundImageFix"/>
<feColorMatrix in="SourceAlpha" type="matrix" values="0 0 0 0 0 0 0 0 0 0 0 0 0 0 0 0 0 0 127 0" result="hardAlpha"/>
<feOffset dy="4"/>
<feGaussianBlur stdDeviation="2"/>
<feComposite in2="hardAlpha" operator="out"/>
<feColorMatrix type="matrix" values="0 0 0 0 0 0 0 0 0 0 0 0 0 0 0 0 0 0 0.25 0"/>
<feBlend mode="normal" in2="BackgroundImageFix" result="effect1_dropShadow_202_3828"/>
<feBlend mode="normal" in="SourceGraphic" in2="effect1_dropShadow_202_3828" result="shape"/>
</filter>
</defs>
</svg>
