<svg width="1253" height="647" viewBox="0 0 1253 647" fill="none" xmlns="http://www.w3.org/2000/svg">
<path d="M15.3082 590.668C14.6457 590.668 14.1087 590.144 14.1087 589.497C14.1087 588.851 14.6457 588.327 15.3082 588.327C15.9706 588.327 16.5076 588.851 16.5076 589.497C16.5076 590.144 15.9706 590.668 15.3082 590.668Z" fill="#4A5568" stroke="#4A5568" stroke-width="5" stroke-miterlimit="10"/>
<path d="M8.99407 609.062C8.33166 609.062 7.79466 608.538 7.79466 607.892C7.79466 607.246 8.33166 606.722 8.99407 606.722C9.65649 606.722 10.1935 607.246 10.1935 607.892C10.1935 608.538 9.65649 609.062 8.99407 609.062Z" fill="#4A5568" stroke="#4A5568" stroke-width="5" stroke-miterlimit="10"/>
<path d="M6.59992 625.909C5.93744 625.909 5.40039 625.385 5.40039 624.739C5.40039 624.093 5.93744 623.569 6.59992 623.569C7.26239 623.569 7.79944 624.093 7.79944 624.739C7.79944 625.385 7.26239 625.909 6.59992 625.909Z" fill="#4A5568" stroke="#4A5568" stroke-width="5" stroke-miterlimit="10"/>
<path d="M4.19931 644C3.53684 644 2.99981 643.476 2.99981 642.83C2.99981 642.184 3.53684 641.66 4.19931 641.66C4.86177 641.66 5.3988 642.184 5.3988 642.83C5.3988 643.476 4.86177 644 4.19931 644Z" fill="#4A5568" stroke="#4A5568" stroke-width="5" stroke-miterlimit="10"/>
<path d="M21.1363 573.537C20.4739 573.537 19.9369 573.013 19.9369 572.367C19.9369 571.721 20.4739 571.197 21.1363 571.197C21.7987 571.197 22.3357 571.721 22.3357 572.367C22.3357 573.013 21.7987 573.537 21.1363 573.537Z" fill="#4A5568" stroke="#4A5568" stroke-width="5" stroke-miterlimit="10"/>
<path d="M332.301 455.616C331.638 455.616 331.101 455.092 331.101 454.446C331.101 453.8 331.638 453.276 332.301 453.276C332.963 453.276 333.5 453.8 333.5 454.446C333.5 455.092 332.963 455.616 332.301 455.616Z" fill="#4A5568" stroke="#4A5568" stroke-width="5" stroke-miterlimit="10"/>
<path d="M312.99 457.065C312.328 457.065 311.791 456.541 311.791 455.894C311.791 455.248 312.328 454.724 312.99 454.724C313.653 454.724 314.19 455.248 314.19 455.894C314.19 456.541 313.653 457.065 312.99 457.065Z" fill="#4A5568" stroke="#4A5568" stroke-width="5" stroke-miterlimit="10"/>
<path d="M293.394 455.897C292.732 455.897 292.195 455.373 292.195 454.727C292.195 454.081 292.732 453.557 293.394 453.557C294.056 453.557 294.594 454.081 294.594 454.727C294.594 455.373 294.056 455.897 293.394 455.897Z" fill="#4A5568" stroke="#4A5568" stroke-width="5" stroke-miterlimit="10"/>
<path d="M275.281 457.065C274.618 457.065 274.081 456.541 274.081 455.894C274.081 455.248 274.618 454.724 275.281 454.724C275.943 454.724 276.48 455.248 276.48 455.894C276.48 456.541 275.943 457.065 275.281 457.065Z" fill="#4A5568" stroke="#4A5568" stroke-width="5" stroke-miterlimit="10"/>
<path d="M255.965 457.065C255.303 457.065 254.766 456.541 254.766 455.894C254.766 455.248 255.303 454.724 255.965 454.724C256.628 454.724 257.165 455.248 257.165 455.894C257.165 456.541 256.628 457.065 255.965 457.065Z" fill="#4A5568" stroke="#4A5568" stroke-width="5" stroke-miterlimit="10"/>
<path d="M237.832 457.065C237.17 457.065 236.633 456.541 236.633 455.894C236.633 455.248 237.17 454.724 237.832 454.724C238.494 454.724 239.031 455.248 239.031 455.894C239.031 456.541 238.494 457.065 237.832 457.065Z" fill="#4A5568" stroke="#4A5568" stroke-width="5" stroke-miterlimit="10"/>
<path d="M218.425 457.065C217.762 457.065 217.225 456.541 217.225 455.894C217.225 455.248 217.762 454.724 218.425 454.724C219.087 454.724 219.624 455.248 219.624 455.894C219.624 456.541 219.087 457.065 218.425 457.065Z" fill="#4A5568" stroke="#4A5568" stroke-width="5" stroke-miterlimit="10"/>
<path d="M198.945 457.065C198.283 457.065 197.746 456.541 197.746 455.894C197.746 455.248 198.283 454.724 198.945 454.724C199.608 454.724 200.145 455.248 200.145 455.894C200.145 456.541 199.608 457.065 198.945 457.065Z" fill="#4A5568" stroke="#4A5568" stroke-width="5" stroke-miterlimit="10"/>
<path d="M181.001 458.235C180.338 458.235 179.801 457.712 179.801 457.065C179.801 456.419 180.338 455.896 181.001 455.896C181.663 455.896 182.2 456.419 182.2 457.065C182.2 457.712 181.663 458.235 181.001 458.235Z" fill="#4A5568" stroke="#4A5568" stroke-width="5" stroke-miterlimit="10"/>
<path d="M162.049 459.405C161.387 459.405 160.85 458.881 160.85 458.235C160.85 457.589 161.387 457.065 162.049 457.065C162.712 457.065 163.249 457.589 163.249 458.235C163.249 458.881 162.712 459.405 162.049 459.405Z" fill="#4A5568" stroke="#4A5568" stroke-width="5" stroke-miterlimit="10"/>
<path d="M143.481 464.459C142.818 464.459 142.281 463.935 142.281 463.289C142.281 462.643 142.818 462.119 143.481 462.119C144.143 462.119 144.68 462.643 144.68 463.289C144.68 463.935 144.143 464.459 143.481 464.459Z" fill="#4A5568" stroke="#4A5568" stroke-width="5" stroke-miterlimit="10"/>
<path d="M125.178 472.019C124.516 472.019 123.979 471.495 123.979 470.849C123.979 470.203 124.516 469.679 125.178 469.679C125.841 469.679 126.378 470.203 126.378 470.849C126.378 471.495 125.841 472.019 125.178 472.019Z" fill="#4A5568" stroke="#4A5568" stroke-width="5" stroke-miterlimit="10"/>
<path d="M109.107 479.065C108.444 479.065 107.907 478.541 107.907 477.895C107.907 477.248 108.444 476.725 109.107 476.725C109.769 476.725 110.306 477.248 110.306 477.895C110.306 478.541 109.769 479.065 109.107 479.065Z" fill="#4A5568" stroke="#4A5568" stroke-width="5" stroke-miterlimit="10"/>
<path d="M92.9383 488.519C92.2758 488.519 91.7388 487.995 91.7388 487.349C91.7388 486.703 92.2758 486.179 92.9383 486.179C93.6007 486.179 94.1377 486.703 94.1377 487.349C94.1377 487.995 93.6007 488.519 92.9383 488.519Z" fill="#4A5568" stroke="#4A5568" stroke-width="5" stroke-miterlimit="10"/>
<path d="M76.1197 500.525C75.4572 500.525 74.9202 500.001 74.9202 499.355C74.9202 498.709 75.4572 498.185 76.1197 498.185C76.7821 498.185 77.3191 498.709 77.3191 499.355C77.3191 500.001 76.7821 500.525 76.1197 500.525Z" fill="#4A5568" stroke="#4A5568" stroke-width="5" stroke-miterlimit="10"/>
<path d="M63.1897 512.505C62.5271 512.505 61.99 511.981 61.99 511.334C61.99 510.688 62.5271 510.164 63.1897 510.164C63.8522 510.164 64.3893 510.688 64.3893 511.334C64.3893 511.981 63.8522 512.505 63.1897 512.505Z" fill="#4A5568" stroke="#4A5568" stroke-width="5" stroke-miterlimit="10"/>
<path d="M50.2346 527.014C49.5722 527.014 49.0352 526.49 49.0352 525.844C49.0352 525.198 49.5722 524.674 50.2346 524.674C50.8971 524.674 51.4341 525.198 51.4341 525.844C51.4341 526.49 50.8971 527.014 50.2346 527.014Z" fill="#4A5568" stroke="#4A5568" stroke-width="5" stroke-miterlimit="10"/>
<path d="M38.6963 541.451C38.0338 541.451 37.4968 540.927 37.4968 540.281C37.4968 539.635 38.0338 539.111 38.6963 539.111C39.3587 539.111 39.8958 539.635 39.8958 540.281C39.8958 540.927 39.3587 541.451 38.6963 541.451Z" fill="#4A5568" stroke="#4A5568" stroke-width="5" stroke-miterlimit="10"/>
<path d="M29.4347 557.226C28.7723 557.226 28.2352 556.703 28.2352 556.056C28.2352 555.41 28.7723 554.886 29.4347 554.886C30.0972 554.886 30.6343 555.41 30.6343 556.056C30.6343 556.703 30.0972 557.226 29.4347 557.226Z" fill="#4A5568" stroke="#4A5568" stroke-width="5" stroke-miterlimit="10"/>
<path d="M1120.95 337.621C1120.29 337.621 1119.75 337.098 1119.75 336.451C1119.75 335.805 1120.29 335.281 1120.95 335.281C1121.62 335.281 1122.15 335.805 1122.15 336.451C1122.15 337.098 1121.62 337.621 1120.95 337.621Z" fill="#4A5568" stroke="#4A5568" stroke-width="5" stroke-miterlimit="10"/>
<path d="M1111.91 354.028C1111.25 354.028 1110.71 353.504 1110.71 352.858C1110.71 352.211 1111.25 351.687 1111.91 351.687C1112.57 351.687 1113.11 352.211 1113.11 352.858C1113.11 353.504 1112.57 354.028 1111.91 354.028Z" fill="#4A5568" stroke="#4A5568" stroke-width="5" stroke-miterlimit="10"/>
<path d="M1102.2 369.801C1101.53 369.801 1101 369.277 1101 368.631C1101 367.984 1101.53 367.46 1102.2 367.46C1102.86 367.46 1103.4 367.984 1103.4 368.631C1103.4 369.277 1102.86 369.801 1102.2 369.801Z" fill="#4A5568" stroke="#4A5568" stroke-width="5" stroke-miterlimit="10"/>
<path d="M1090.46 383.771C1089.8 383.771 1089.26 383.247 1089.26 382.6C1089.26 381.954 1089.8 381.43 1090.46 381.43C1091.13 381.43 1091.66 381.954 1091.66 382.6C1091.66 383.247 1091.13 383.771 1090.46 383.771Z" fill="#4A5568" stroke="#4A5568" stroke-width="5" stroke-miterlimit="10"/>
<path d="M1077.44 398.82C1076.77 398.82 1076.24 398.296 1076.24 397.649C1076.24 397.003 1076.77 396.479 1077.44 396.479C1078.1 396.479 1078.64 397.003 1078.64 397.649C1078.64 398.296 1078.1 398.82 1077.44 398.82Z" fill="#4A5568" stroke="#4A5568" stroke-width="5" stroke-miterlimit="10"/>
<path d="M1063.21 410.193C1062.55 410.193 1062.01 409.669 1062.01 409.023C1062.01 408.377 1062.55 407.853 1063.21 407.853C1063.87 407.853 1064.41 408.377 1064.41 409.023C1064.41 409.669 1063.87 410.193 1063.21 410.193Z" fill="#4A5568" stroke="#4A5568" stroke-width="5" stroke-miterlimit="10"/>
<path d="M1048.41 423.344C1047.75 423.344 1047.21 422.82 1047.21 422.174C1047.21 421.528 1047.75 421.004 1048.41 421.004C1049.07 421.004 1049.61 421.528 1049.61 422.174C1049.61 422.82 1049.07 423.344 1048.41 423.344Z" fill="#4A5568" stroke="#4A5568" stroke-width="5" stroke-miterlimit="10"/>
<path d="M923.015 454.727C922.353 454.727 921.816 454.203 921.816 453.556C921.816 452.91 922.353 452.386 923.015 452.386C923.678 452.386 924.215 452.91 924.215 453.556C924.215 454.203 923.678 454.727 923.015 454.727Z" fill="#4A5568" stroke="#4A5568" stroke-width="5" stroke-miterlimit="10"/>
<path d="M904.068 454.445C903.406 454.445 902.869 453.921 902.869 453.275C902.869 452.629 903.406 452.105 904.068 452.105C904.731 452.105 905.268 452.629 905.268 453.275C905.268 453.921 904.731 454.445 904.068 454.445Z" fill="#4A5568" stroke="#4A5568" stroke-width="5" stroke-miterlimit="10"/>
<path d="M884.661 454.445C883.998 454.445 883.461 453.921 883.461 453.275C883.461 452.629 883.998 452.105 884.661 452.105C885.323 452.105 885.86 452.629 885.86 453.275C885.86 453.921 885.323 454.445 884.661 454.445Z" fill="#4A5568" stroke="#4A5568" stroke-width="5" stroke-miterlimit="10"/>
<path d="M864.798 454.445C864.135 454.445 863.598 453.921 863.598 453.275C863.598 452.629 864.135 452.105 864.798 452.105C865.46 452.105 865.997 452.629 865.997 453.275C865.997 453.921 865.46 454.445 864.798 454.445Z" fill="#4A5568" stroke="#4A5568" stroke-width="5" stroke-miterlimit="10"/>
<path d="M846.588 454.727C845.925 454.727 845.388 454.203 845.388 453.556C845.388 452.91 845.925 452.386 846.588 452.386C847.25 452.386 847.787 452.91 847.787 453.556C847.787 454.203 847.25 454.727 846.588 454.727Z" fill="#4A5568" stroke="#4A5568" stroke-width="5" stroke-miterlimit="10"/>
<path d="M827.083 453.556C826.42 453.556 825.883 453.032 825.883 452.386C825.883 451.739 826.42 451.216 827.083 451.216C827.745 451.216 828.282 451.739 828.282 452.386C828.282 453.032 827.745 453.556 827.083 453.556Z" fill="#4A5568" stroke="#4A5568" stroke-width="5" stroke-miterlimit="10"/>
<path d="M808.422 453.556C807.76 453.556 807.223 453.032 807.223 452.386C807.223 451.739 807.76 451.216 808.422 451.216C809.085 451.216 809.622 451.739 809.622 452.386C809.622 453.032 809.085 453.556 808.422 453.556Z" fill="#4A5568" stroke="#4A5568" stroke-width="5" stroke-miterlimit="10"/>
<path d="M788.462 454.727C787.8 454.727 787.263 454.203 787.263 453.556C787.263 452.91 787.8 452.386 788.462 452.386C789.125 452.386 789.662 452.91 789.662 453.556C789.662 454.203 789.125 454.727 788.462 454.727Z" fill="#4A5568" stroke="#4A5568" stroke-width="5" stroke-miterlimit="10"/>
<path d="M769.704 455.897C769.042 455.897 768.505 455.373 768.505 454.727C768.505 454.081 769.042 453.557 769.704 453.557C770.367 453.557 770.904 454.081 770.904 454.727C770.904 455.373 770.367 455.897 769.704 455.897Z" fill="#4A5568" stroke="#4A5568" stroke-width="5" stroke-miterlimit="10"/>
<path d="M750.942 455.616C750.279 455.616 749.742 455.092 749.742 454.446C749.742 453.8 750.279 453.276 750.942 453.276C751.604 453.276 752.141 453.8 752.141 454.446C752.141 455.092 751.604 455.616 750.942 455.616Z" fill="#4A5568" stroke="#4A5568" stroke-width="5" stroke-miterlimit="10"/>
<path d="M731.989 455.616C731.327 455.616 730.79 455.092 730.79 454.446C730.79 453.8 731.327 453.276 731.989 453.276C732.652 453.276 733.189 453.8 733.189 454.446C733.189 455.092 732.652 455.616 731.989 455.616Z" fill="#4A5568" stroke="#4A5568" stroke-width="5" stroke-miterlimit="10"/>
<path d="M713.324 455.616C712.661 455.616 712.124 455.092 712.124 454.446C712.124 453.8 712.661 453.276 713.324 453.276C713.986 453.276 714.523 453.8 714.523 454.446C714.523 455.092 713.986 455.616 713.324 455.616Z" fill="#4A5568" stroke="#4A5568" stroke-width="5" stroke-miterlimit="10"/>
<path d="M693.921 455.616C693.259 455.616 692.722 455.092 692.722 454.446C692.722 453.8 693.259 453.276 693.921 453.276C694.584 453.276 695.121 453.8 695.121 454.446C695.121 455.092 694.584 455.616 693.921 455.616Z" fill="#4A5568" stroke="#4A5568" stroke-width="5" stroke-miterlimit="10"/>
<path d="M675.803 455.616C675.141 455.616 674.604 455.092 674.604 454.446C674.604 453.8 675.141 453.276 675.803 453.276C676.466 453.276 677.003 453.8 677.003 454.446C677.003 455.092 676.466 455.616 675.803 455.616Z" fill="#4A5568" stroke="#4A5568" stroke-width="5" stroke-miterlimit="10"/>
<path d="M655.198 455.616C654.536 455.616 653.999 455.092 653.999 454.446C653.999 453.8 654.536 453.276 655.198 453.276C655.861 453.276 656.398 453.8 656.398 454.446C656.398 455.092 655.861 455.616 655.198 455.616Z" fill="#4A5568" stroke="#4A5568" stroke-width="5" stroke-miterlimit="10"/>
<path d="M637.085 454.727C636.423 454.727 635.886 454.203 635.886 453.556C635.886 452.91 636.423 452.386 637.085 452.386C637.748 452.386 638.285 452.91 638.285 453.556C638.285 454.203 637.748 454.727 637.085 454.727Z" fill="#4A5568" stroke="#4A5568" stroke-width="5" stroke-miterlimit="10"/>
<path d="M618.88 455.897C618.218 455.897 617.681 455.373 617.681 454.727C617.681 454.081 618.218 453.557 618.88 453.557C619.543 453.557 620.08 454.081 620.08 454.727C620.08 455.373 619.543 455.897 618.88 455.897Z" fill="#4A5568" stroke="#4A5568" stroke-width="5" stroke-miterlimit="10"/>
<path d="M598.921 455.616C598.258 455.616 597.721 455.092 597.721 454.446C597.721 453.8 598.258 453.276 598.921 453.276C599.583 453.276 600.12 453.8 600.12 454.446C600.12 455.092 599.583 455.616 598.921 455.616Z" fill="#4A5568" stroke="#4A5568" stroke-width="5" stroke-miterlimit="10"/>
<path d="M580.162 455.616C579.5 455.616 578.963 455.092 578.963 454.446C578.963 453.8 579.5 453.276 580.162 453.276C580.825 453.276 581.362 453.8 581.362 454.446C581.362 455.092 580.825 455.616 580.162 455.616Z" fill="#4A5568" stroke="#4A5568" stroke-width="5" stroke-miterlimit="10"/>
<path d="M559.266 455.616C558.604 455.616 558.067 455.092 558.067 454.446C558.067 453.8 558.604 453.276 559.266 453.276C559.929 453.276 560.466 453.8 560.466 454.446C560.466 455.092 559.929 455.616 559.266 455.616Z" fill="#4A5568" stroke="#4A5568" stroke-width="5" stroke-miterlimit="10"/>
<path d="M541.25 455.616C540.588 455.616 540.051 455.092 540.051 454.446C540.051 453.8 540.588 453.276 541.25 453.276C541.913 453.276 542.45 453.8 542.45 454.446C542.45 455.092 541.913 455.616 541.25 455.616Z" fill="#4A5568" stroke="#4A5568" stroke-width="5" stroke-miterlimit="10"/>
<path d="M522.037 455.616C521.375 455.616 520.838 455.092 520.838 454.446C520.838 453.8 521.375 453.276 522.037 453.276C522.7 453.276 523.237 453.8 523.237 454.446C523.237 455.092 522.7 455.616 522.037 455.616Z" fill="#4A5568" stroke="#4A5568" stroke-width="5" stroke-miterlimit="10"/>
<path d="M503.086 455.897C502.423 455.897 501.886 455.373 501.886 454.727C501.886 454.081 502.423 453.557 503.086 453.557C503.748 453.557 504.285 454.081 504.285 454.727C504.285 455.373 503.748 455.897 503.086 455.897Z" fill="#4A5568" stroke="#4A5568" stroke-width="5" stroke-miterlimit="10"/>
<path d="M484.158 455.616C483.496 455.616 482.959 455.092 482.959 454.446C482.959 453.8 483.496 453.276 484.158 453.276C484.821 453.276 485.358 453.8 485.358 454.446C485.358 455.092 484.821 455.616 484.158 455.616Z" fill="#4A5568" stroke="#4A5568" stroke-width="5" stroke-miterlimit="10"/>
<path d="M465.708 455.616C465.045 455.616 464.508 455.092 464.508 454.446C464.508 453.8 465.045 453.276 465.708 453.276C466.37 453.276 466.907 453.8 466.907 454.446C466.907 455.092 466.37 455.616 465.708 455.616Z" fill="#4A5568" stroke="#4A5568" stroke-width="5" stroke-miterlimit="10"/>
<path d="M447.042 455.897C446.38 455.897 445.843 455.373 445.843 454.727C445.843 454.081 446.38 453.557 447.042 453.557C447.705 453.557 448.242 454.081 448.242 454.727C448.242 455.373 447.705 455.897 447.042 455.897Z" fill="#4A5568" stroke="#4A5568" stroke-width="5" stroke-miterlimit="10"/>
<path d="M427.875 455.897C427.212 455.897 426.675 455.373 426.675 454.727C426.675 454.081 427.212 453.557 427.875 453.557C428.537 453.557 429.074 454.081 429.074 454.727C429.074 455.373 428.537 455.897 427.875 455.897Z" fill="#4A5568" stroke="#4A5568" stroke-width="5" stroke-miterlimit="10"/>
<path d="M409.691 455.616C409.028 455.616 408.491 455.092 408.491 454.446C408.491 453.8 409.028 453.276 409.691 453.276C410.353 453.276 410.89 453.8 410.89 454.446C410.89 455.092 410.353 455.616 409.691 455.616Z" fill="#4A5568" stroke="#4A5568" stroke-width="5" stroke-miterlimit="10"/>
<path d="M389.541 455.616C388.879 455.616 388.342 455.092 388.342 454.446C388.342 453.8 388.879 453.276 389.541 453.276C390.203 453.276 390.74 453.8 390.74 454.446C390.74 455.092 390.203 455.616 389.541 455.616Z" fill="#4A5568" stroke="#4A5568" stroke-width="5" stroke-miterlimit="10"/>
<path d="M369.919 455.897C369.257 455.897 368.72 455.373 368.72 454.727C368.72 454.081 369.257 453.557 369.919 453.557C370.581 453.557 371.118 454.081 371.118 454.727C371.118 455.373 370.581 455.897 369.919 455.897Z" fill="#4A5568" stroke="#4A5568" stroke-width="5" stroke-miterlimit="10"/>
<path d="M351.709 455.616C351.046 455.616 350.509 455.092 350.509 454.446C350.509 453.8 351.046 453.276 351.709 453.276C352.371 453.276 352.908 453.8 352.908 454.446C352.908 455.092 352.371 455.616 351.709 455.616Z" fill="#4A5568" stroke="#4A5568" stroke-width="5" stroke-miterlimit="10"/>
<path d="M1032.89 430.458C1032.23 430.458 1031.69 429.934 1031.69 429.288C1031.69 428.641 1032.23 428.117 1032.89 428.117C1033.55 428.117 1034.09 428.641 1034.09 429.288C1034.09 429.934 1033.55 430.458 1032.89 430.458Z" fill="#4A5568" stroke="#4A5568" stroke-width="5" stroke-miterlimit="10"/>
<path d="M1015.43 440.568C1014.76 440.568 1014.23 440.044 1014.23 439.398C1014.23 438.752 1014.76 438.228 1015.43 438.228C1016.09 438.228 1016.63 438.752 1016.63 439.398C1016.63 440.044 1016.09 440.568 1015.43 440.568Z" fill="#4A5568" stroke="#4A5568" stroke-width="5" stroke-miterlimit="10"/>
<path d="M997.964 446.066C997.302 446.066 996.765 445.543 996.765 444.896C996.765 444.25 997.302 443.726 997.964 443.726C998.627 443.726 999.164 444.25 999.164 444.896C999.164 445.543 998.627 446.066 997.964 446.066Z" fill="#4A5568" stroke="#4A5568" stroke-width="5" stroke-miterlimit="10"/>
<path d="M979.201 450.934C978.539 450.934 978.002 450.411 978.002 449.764C978.002 449.118 978.539 448.594 979.201 448.594C979.864 448.594 980.401 449.118 980.401 449.764C980.401 450.411 979.864 450.934 979.201 450.934Z" fill="#4A5568" stroke="#4A5568" stroke-width="5" stroke-miterlimit="10"/>
<path d="M961.088 453.275C960.426 453.275 959.889 452.751 959.889 452.105C959.889 451.458 960.426 450.935 961.088 450.935C961.751 450.935 962.288 451.458 962.288 452.105C962.288 452.751 961.751 453.275 961.088 453.275Z" fill="#4A5568" stroke="#4A5568" stroke-width="5" stroke-miterlimit="10"/>
<path d="M941.68 453.556C941.018 453.556 940.481 453.032 940.481 452.386C940.481 451.739 941.018 451.216 941.68 451.216C942.343 451.216 942.88 451.739 942.88 452.386C942.88 453.032 942.343 453.556 941.68 453.556Z" fill="#4A5568" stroke="#4A5568" stroke-width="5" stroke-miterlimit="10"/>
<path d="M1133.53 266.34C1132.86 266.34 1132.33 265.816 1132.33 265.17C1132.33 264.524 1132.86 264 1133.53 264C1134.19 264 1134.72 264.524 1134.72 265.17C1134.72 265.816 1134.19 266.34 1133.53 266.34Z" fill="#4A5568" stroke="#4A5568" stroke-width="5" stroke-miterlimit="10"/>
<path d="M1132.33 283.423C1131.67 283.423 1131.13 282.9 1131.13 282.253C1131.13 281.607 1131.67 281.083 1132.33 281.083C1132.99 281.083 1133.53 281.607 1133.53 282.253C1133.53 282.9 1132.99 283.423 1132.33 283.423Z" fill="#4A5568" stroke="#4A5568" stroke-width="5" stroke-miterlimit="10"/>
<path d="M1131.13 302.262C1130.46 302.262 1129.93 301.738 1129.93 301.092C1129.93 300.446 1130.46 299.922 1131.13 299.922C1131.79 299.922 1132.33 300.446 1132.33 301.092C1132.33 301.738 1131.79 302.262 1131.13 302.262Z" fill="#4A5568" stroke="#4A5568" stroke-width="5" stroke-miterlimit="10"/>
<path d="M1126.04 320.024C1125.38 320.024 1124.84 319.5 1124.84 318.854C1124.84 318.208 1125.38 317.684 1126.04 317.684C1126.7 317.684 1127.24 318.208 1127.24 318.854C1127.24 319.5 1126.7 320.024 1126.04 320.024Z" fill="#4A5568" stroke="#4A5568" stroke-width="5" stroke-miterlimit="10"/>
<g filter="url(#filter0_d_399_18)">
<circle cx="1117" cy="132" r="132" fill="white"/>
</g>
<path d="M1179.74 124.188V107H1165.57V124.188H1126.23V107H1112.06V124.188H1072.73V107H1058.91V124.188H1038V139.812H1058.91V157H1072.73V139.812H1112.06V157H1126.23V139.812H1165.57V157H1179.74V139.812H1201V124.188H1179.74Z" fill="#E70082" fill-opacity="0.2"/>
<path d="M1175.32 142.717H1169.8V214.349H1175.32V142.717Z" fill="#4A5568"/>
<path d="M1048.52 175.778V115.443C1048.52 82.3822 1076.36 54.5562 1109.16 54.5562V49.0461C1073.33 49.0461 1043.01 79.3516 1043.01 115.443V178.533C1043.01 180.186 1044.11 181.288 1045.76 181.288H1103.65V214.349H1109.16V181.288H1120.19V175.778H1106.41H1048.52Z" fill="#4A5568"/>
<path d="M1070.57 112.412V134.452C1070.57 136.105 1071.67 137.207 1073.33 137.207H1084.35V131.697H1076.08V112.412H1070.57Z" fill="#4A5568"/>
<path d="M1145.82 49.0459C1121.57 49.0459 1101.72 68.8822 1101.72 93.1266C1101.72 114.065 1116.33 131.973 1136.73 136.105V150.983H1133.97C1132.32 150.983 1131.21 152.085 1131.21 153.738V189.553C1131.21 191.206 1132.32 192.308 1133.97 192.308H1136.73V200.573C1136.73 202.226 1137.83 203.328 1139.48 203.328H1153.27C1154.92 203.328 1156.02 202.226 1156.02 200.573V192.308H1158.78C1160.43 192.308 1161.54 191.206 1161.54 189.553V153.738C1161.54 152.085 1160.43 150.983 1158.78 150.983H1156.02V136.105C1175.87 131.422 1189.93 113.789 1189.93 93.1266C1189.93 68.8822 1170.08 49.0459 1145.82 49.0459ZM1150.51 197.818H1142.24V192.308H1150.51V197.818ZM1156.02 186.798H1153.27H1139.48H1136.73V181.288H1147.75V175.778H1136.73V167.513H1147.75V162.003H1136.73V156.493H1139.48H1153.27H1156.02V186.798ZM1152.71 131.146C1151.34 131.422 1150.51 132.524 1150.51 133.901V150.983H1142.24V133.901C1142.24 132.524 1141.41 131.422 1140.03 131.146C1121.02 128.391 1107.23 112.412 1107.23 93.1266C1107.23 71.9128 1124.6 54.556 1145.82 54.556C1167.05 54.556 1184.41 71.9128 1184.41 93.1266C1184.41 111.861 1171.18 127.84 1152.71 131.146Z" fill="#4A5568"/>
<path d="M1146.1 60.0659H1145.27C1145.27 60.0659 1145.27 60.0659 1145 60.0659C1126.8 60.6169 1112.75 75.2187 1112.75 93.1265C1112.75 111.31 1127.63 126.187 1145.82 126.187C1162.09 126.187 1176.42 113.514 1178.35 97.259C1178.63 96.708 1178.9 96.4325 1178.9 95.8815C1178.9 95.606 1178.9 95.055 1178.9 94.7795C1179.18 94.2285 1179.18 93.6775 1179.18 93.1265C1179.18 74.9432 1164.29 60.0659 1146.1 60.0659ZM1173.66 93.1265H1148.03V87.6164H1161.54V82.1063H1148.03V76.5962H1156.02V71.0861H1148.03V65.576C1162.36 66.678 1173.66 78.5247 1173.66 93.1265ZM1145.82 120.677C1130.66 120.677 1118.26 108.279 1118.26 93.1265C1118.26 79.0757 1128.46 67.78 1142.24 65.8515V95.8815C1142.24 97.5345 1143.34 98.6365 1145 98.6365H1145.27H1172.56C1170.08 111.31 1158.78 120.677 1145.82 120.677Z" fill="#4A5568"/>
<defs>
<filter id="filter0_d_399_18" x="981" y="0" width="272" height="272" filterUnits="userSpaceOnUse" color-interpolation-filters="sRGB">
<feFlood flood-opacity="0" result="BackgroundImageFix"/>
<feColorMatrix in="SourceAlpha" type="matrix" values="0 0 0 0 0 0 0 0 0 0 0 0 0 0 0 0 0 0 127 0" result="hardAlpha"/>
<feOffset dy="4"/>
<feGaussianBlur stdDeviation="2"/>
<feComposite in2="hardAlpha" operator="out"/>
<feColorMatrix type="matrix" values="0 0 0 0 0 0 0 0 0 0 0 0 0 0 0 0 0 0 0.41 0"/>
<feBlend mode="normal" in2="BackgroundImageFix" result="effect1_dropShadow_399_18"/>
<feBlend mode="normal" in="SourceGraphic" in2="effect1_dropShadow_399_18" result="shape"/>
</filter>
</defs>
</svg>
