<svg width="1240" height="699" viewBox="0 0 1240 699" fill="none" xmlns="http://www.w3.org/2000/svg">
<g filter="url(#filter0_d_399_17)">
<circle cx="136.5" cy="132.5" r="132.5" fill="white"/>
</g>
<path d="M196.739 124.188V107H182.565V124.188H143.233V107H129.059V124.188H89.7261V107H75.9065V124.188H55V139.812H75.9065V157H89.7261V139.812H129.059V157H143.233V139.812H182.565V157H196.739V139.812H218V124.188H196.739Z" fill="#E70082" fill-opacity="0.2"/>
<path d="M174.062 164.227H169.483V205.436H174.062V164.227Z" fill="#4A5568"/>
<path d="M68.7506 173.384V123.247C68.7506 97.3772 88.8971 75.1703 114.767 72.652L114.309 68.0732C86.1499 70.8205 64.1719 95.0878 64.1719 123.247V175.674C64.1719 177.047 65.0876 177.963 66.4612 177.963H114.538V205.436H119.117V177.963H128.274V173.384H116.827H68.7506Z" fill="#4A5568"/>
<path d="M87.0658 120.729V139.044C87.0658 140.417 87.9815 141.333 89.3552 141.333H98.5127V136.754H91.6445V120.729H87.0658Z" fill="#4A5568"/>
<path d="M185.509 68.0732H125.985C124.611 68.0732 123.696 68.989 123.696 70.3626V104.703H128.274V72.652H183.219V109.282H178.641V113.861H185.509C186.882 113.861 187.798 112.945 187.798 111.571V70.3626C187.798 68.989 186.882 68.0732 185.509 68.0732Z" fill="#4A5568"/>
<path d="M142.698 82.4963L135.83 89.3645C134.914 90.2802 134.914 91.6538 135.83 92.5696L142.698 99.4377L145.903 96.2326L140.637 90.967L145.903 85.7015L142.698 82.4963Z" fill="#4A5568"/>
<path d="M153.366 100.958L162.478 82.7339L158.383 80.6863L149.271 98.9101L153.366 100.958Z" fill="#4A5568"/>
<path d="M168.797 82.4963L165.591 85.7015L170.857 90.967L165.591 96.2326L168.797 99.4377L175.665 92.5696C176.58 91.6538 176.58 90.2802 175.665 89.3645L168.797 82.4963Z" fill="#4A5568"/>
<path d="M171.773 109.282H112.249C110.875 109.282 109.96 110.198 109.96 111.571V152.78C109.96 154.154 110.875 155.069 112.249 155.069H136.516L154.145 172.698C154.602 173.155 155.06 173.384 155.747 173.384C155.976 173.384 156.434 173.384 156.663 173.155C157.579 172.927 158.037 172.011 158.037 171.095V155.069H171.773C173.146 155.069 174.062 154.154 174.062 152.78V111.571C174.062 110.198 173.146 109.282 171.773 109.282ZM169.483 150.491H155.747C154.374 150.491 153.458 151.406 153.458 152.78V165.601L139.035 151.178C138.577 150.72 138.119 150.491 137.432 150.491H114.538V113.861H169.483V150.491Z" fill="#4A5568"/>
<path d="M132.853 118.439H128.275V145.912H132.853V118.439Z" fill="#4A5568"/>
<path d="M123.696 120.729H119.117V125.308H123.696V120.729Z" fill="#4A5568"/>
<path d="M123.696 129.886H119.117V134.465H123.696V129.886Z" fill="#4A5568"/>
<path d="M123.696 139.044H119.117V143.623H123.696V139.044Z" fill="#4A5568"/>
<path d="M164.905 120.729H137.432V125.308H164.905V120.729Z" fill="#4A5568"/>
<path d="M164.905 129.886H137.432V134.465H164.905V129.886Z" fill="#4A5568"/>
<path d="M164.905 139.044H137.432V143.623H164.905V139.044Z" fill="#4A5568"/>
<path d="M1224.88 637.755C1225.54 637.755 1226.07 637.183 1226.07 636.478C1226.07 635.772 1225.54 635.2 1224.88 635.2C1224.23 635.2 1223.7 635.772 1223.7 636.478C1223.7 637.183 1224.23 637.755 1224.88 637.755Z" fill="#4A5568" stroke="#4A5568" stroke-width="5" stroke-miterlimit="10"/>
<path d="M1231.1 657.844C1231.75 657.844 1232.28 657.272 1232.28 656.566C1232.28 655.86 1231.75 655.288 1231.1 655.288C1230.45 655.288 1229.92 655.86 1229.92 656.566C1229.92 657.272 1230.45 657.844 1231.1 657.844Z" fill="#4A5568" stroke="#4A5568" stroke-width="5" stroke-miterlimit="10"/>
<path d="M1233.46 676.243C1234.11 676.243 1234.64 675.671 1234.64 674.965C1234.64 674.26 1234.11 673.688 1233.46 673.688C1232.8 673.688 1232.28 674.26 1232.28 674.965C1232.28 675.671 1232.8 676.243 1233.46 676.243Z" fill="#4A5568" stroke="#4A5568" stroke-width="5" stroke-miterlimit="10"/>
<path d="M1235.82 696C1236.47 696 1237 695.428 1237 694.722C1237 694.016 1236.47 693.444 1235.82 693.444C1235.17 693.444 1234.64 694.016 1234.64 694.722C1234.64 695.428 1235.17 696 1235.82 696Z" fill="#4A5568" stroke="#4A5568" stroke-width="5" stroke-miterlimit="10"/>
<path d="M1219.15 619.047C1219.8 619.047 1220.33 618.475 1220.33 617.769C1220.33 617.064 1219.8 616.491 1219.15 616.491C1218.5 616.491 1217.97 617.064 1217.97 617.769C1217.97 618.475 1218.5 619.047 1219.15 619.047Z" fill="#4A5568" stroke="#4A5568" stroke-width="5" stroke-miterlimit="10"/>
<path d="M912.857 490.265C913.509 490.265 914.037 489.693 914.037 488.987C914.037 488.281 913.509 487.709 912.857 487.709C912.205 487.709 911.676 488.281 911.676 488.987C911.676 489.693 912.205 490.265 912.857 490.265Z" fill="#4A5568" stroke="#4A5568" stroke-width="5" stroke-miterlimit="10"/>
<path d="M931.865 491.847C932.517 491.847 933.045 491.275 933.045 490.569C933.045 489.863 932.517 489.291 931.865 489.291C931.212 489.291 930.684 489.863 930.684 490.569C930.684 491.275 931.212 491.847 931.865 491.847Z" fill="#4A5568" stroke="#4A5568" stroke-width="5" stroke-miterlimit="10"/>
<path d="M951.154 490.572C951.806 490.572 952.335 490 952.335 489.294C952.335 488.588 951.806 488.016 951.154 488.016C950.502 488.016 949.973 488.588 949.973 489.294C949.973 490 950.502 490.572 951.154 490.572Z" fill="#4A5568" stroke="#4A5568" stroke-width="5" stroke-miterlimit="10"/>
<path d="M968.984 491.847C969.636 491.847 970.164 491.275 970.164 490.569C970.164 489.863 969.636 489.291 968.984 489.291C968.332 489.291 967.803 489.863 967.803 490.569C967.803 491.275 968.332 491.847 968.984 491.847Z" fill="#4A5568" stroke="#4A5568" stroke-width="5" stroke-miterlimit="10"/>
<path d="M987.997 491.847C988.649 491.847 989.177 491.275 989.177 490.569C989.177 489.863 988.649 489.291 987.997 489.291C987.345 489.291 986.816 489.863 986.816 490.569C986.816 491.275 987.345 491.847 987.997 491.847Z" fill="#4A5568" stroke="#4A5568" stroke-width="5" stroke-miterlimit="10"/>
<path d="M1005.85 491.847C1006.5 491.847 1007.03 491.275 1007.03 490.569C1007.03 489.863 1006.5 489.291 1005.85 489.291C1005.19 489.291 1004.67 489.863 1004.67 490.569C1004.67 491.275 1005.19 491.847 1005.85 491.847Z" fill="#4A5568" stroke="#4A5568" stroke-width="5" stroke-miterlimit="10"/>
<path d="M1024.95 491.847C1025.6 491.847 1026.13 491.275 1026.13 490.569C1026.13 489.863 1025.6 489.291 1024.95 489.291C1024.3 489.291 1023.77 489.863 1023.77 490.569C1023.77 491.275 1024.3 491.847 1024.95 491.847Z" fill="#4A5568" stroke="#4A5568" stroke-width="5" stroke-miterlimit="10"/>
<path d="M1044.12 491.847C1044.78 491.847 1045.3 491.275 1045.3 490.569C1045.3 489.863 1044.78 489.291 1044.12 489.291C1043.47 489.291 1042.94 489.863 1042.94 490.569C1042.94 491.275 1043.47 491.847 1044.12 491.847Z" fill="#4A5568" stroke="#4A5568" stroke-width="5" stroke-miterlimit="10"/>
<path d="M1061.79 493.125C1062.44 493.125 1062.97 492.553 1062.97 491.848C1062.97 491.142 1062.44 490.57 1061.79 490.57C1061.13 490.57 1060.61 491.142 1060.61 491.848C1060.61 492.553 1061.13 493.125 1061.79 493.125Z" fill="#4A5568" stroke="#4A5568" stroke-width="5" stroke-miterlimit="10"/>
<path d="M1080.44 494.403C1081.09 494.403 1081.62 493.831 1081.62 493.125C1081.62 492.42 1081.09 491.848 1080.44 491.848C1079.79 491.848 1079.26 492.42 1079.26 493.125C1079.26 493.831 1079.79 494.403 1080.44 494.403Z" fill="#4A5568" stroke="#4A5568" stroke-width="5" stroke-miterlimit="10"/>
<path d="M1098.72 499.923C1099.37 499.923 1099.9 499.351 1099.9 498.645C1099.9 497.939 1099.37 497.367 1098.72 497.367C1098.07 497.367 1097.54 497.939 1097.54 498.645C1097.54 499.351 1098.07 499.923 1098.72 499.923Z" fill="#4A5568" stroke="#4A5568" stroke-width="5" stroke-miterlimit="10"/>
<path d="M1116.74 508.179C1117.39 508.179 1117.92 507.607 1117.92 506.901C1117.92 506.195 1117.39 505.623 1116.74 505.623C1116.08 505.623 1115.55 506.195 1115.55 506.901C1115.55 507.607 1116.08 508.179 1116.74 508.179Z" fill="#4A5568" stroke="#4A5568" stroke-width="5" stroke-miterlimit="10"/>
<path d="M1132.56 515.873C1133.21 515.873 1133.74 515.301 1133.74 514.595C1133.74 513.889 1133.21 513.317 1132.56 513.317C1131.9 513.317 1131.37 513.889 1131.37 514.595C1131.37 515.301 1131.9 515.873 1132.56 515.873Z" fill="#4A5568" stroke="#4A5568" stroke-width="5" stroke-miterlimit="10"/>
<path d="M1148.47 526.198C1149.12 526.198 1149.65 525.626 1149.65 524.92C1149.65 524.215 1149.12 523.643 1148.47 523.643C1147.82 523.643 1147.29 524.215 1147.29 524.92C1147.29 525.626 1147.82 526.198 1148.47 526.198Z" fill="#4A5568" stroke="#4A5568" stroke-width="5" stroke-miterlimit="10"/>
<path d="M1165.03 539.31C1165.68 539.31 1166.21 538.738 1166.21 538.032C1166.21 537.326 1165.68 536.754 1165.03 536.754C1164.37 536.754 1163.85 537.326 1163.85 538.032C1163.85 538.738 1164.37 539.31 1165.03 539.31Z" fill="#4A5568" stroke="#4A5568" stroke-width="5" stroke-miterlimit="10"/>
<path d="M1177.75 552.393C1178.41 552.393 1178.93 551.821 1178.93 551.115C1178.93 550.409 1178.41 549.837 1177.75 549.837C1177.1 549.837 1176.57 550.409 1176.57 551.115C1176.57 551.821 1177.1 552.393 1177.75 552.393Z" fill="#4A5568" stroke="#4A5568" stroke-width="5" stroke-miterlimit="10"/>
<path d="M1190.5 568.239C1191.16 568.239 1191.69 567.667 1191.69 566.961C1191.69 566.255 1191.16 565.683 1190.5 565.683C1189.85 565.683 1189.32 566.255 1189.32 566.961C1189.32 567.667 1189.85 568.239 1190.5 568.239Z" fill="#4A5568" stroke="#4A5568" stroke-width="5" stroke-miterlimit="10"/>
<path d="M1201.86 584.006C1202.51 584.006 1203.04 583.433 1203.04 582.728C1203.04 582.022 1202.51 581.45 1201.86 581.45C1201.21 581.45 1200.68 582.022 1200.68 582.728C1200.68 583.433 1201.21 584.006 1201.86 584.006Z" fill="#4A5568" stroke="#4A5568" stroke-width="5" stroke-miterlimit="10"/>
<path d="M1210.98 601.235C1211.63 601.235 1212.16 600.662 1212.16 599.957C1212.16 599.251 1211.63 598.679 1210.98 598.679C1210.33 598.679 1209.8 599.251 1209.8 599.957C1209.8 600.662 1210.33 601.235 1210.98 601.235Z" fill="#4A5568" stroke="#4A5568" stroke-width="5" stroke-miterlimit="10"/>
<path d="M136.555 361.402C137.207 361.402 137.736 360.83 137.736 360.124C137.736 359.419 137.207 358.847 136.555 358.847C135.903 358.847 135.375 359.419 135.375 360.124C135.375 360.83 135.903 361.402 136.555 361.402Z" fill="#4A5568" stroke="#4A5568" stroke-width="5" stroke-miterlimit="10"/>
<path d="M145.455 379.32C146.107 379.32 146.636 378.748 146.636 378.042C146.636 377.336 146.107 376.764 145.455 376.764C144.803 376.764 144.274 377.336 144.274 378.042C144.274 378.748 144.803 379.32 145.455 379.32Z" fill="#4A5568" stroke="#4A5568" stroke-width="5" stroke-miterlimit="10"/>
<path d="M155.019 396.545C155.672 396.545 156.2 395.973 156.2 395.267C156.2 394.562 155.672 393.99 155.019 393.99C154.367 393.99 153.839 394.562 153.839 395.267C153.839 395.973 154.367 396.545 155.019 396.545Z" fill="#4A5568" stroke="#4A5568" stroke-width="5" stroke-miterlimit="10"/>
<path d="M166.568 411.802C167.22 411.802 167.749 411.23 167.749 410.524C167.749 409.818 167.22 409.246 166.568 409.246C165.916 409.246 165.388 409.818 165.388 410.524C165.388 411.23 165.916 411.802 166.568 411.802Z" fill="#4A5568" stroke="#4A5568" stroke-width="5" stroke-miterlimit="10"/>
<path d="M179.391 428.237C180.043 428.237 180.572 427.665 180.572 426.959C180.572 426.253 180.043 425.681 179.391 425.681C178.739 425.681 178.211 426.253 178.211 426.959C178.211 427.665 178.739 428.237 179.391 428.237Z" fill="#4A5568" stroke="#4A5568" stroke-width="5" stroke-miterlimit="10"/>
<path d="M193.393 440.658C194.045 440.658 194.573 440.086 194.573 439.38C194.573 438.675 194.045 438.103 193.393 438.103C192.741 438.103 192.212 438.675 192.212 439.38C192.212 440.086 192.741 440.658 193.393 440.658Z" fill="#4A5568" stroke="#4A5568" stroke-width="5" stroke-miterlimit="10"/>
<path d="M207.964 455.021C208.616 455.021 209.144 454.448 209.144 453.743C209.144 453.037 208.616 452.465 207.964 452.465C207.311 452.465 206.783 453.037 206.783 453.743C206.783 454.448 207.311 455.021 207.964 455.021Z" fill="#4A5568" stroke="#4A5568" stroke-width="5" stroke-miterlimit="10"/>
<path d="M331.394 489.293C332.046 489.293 332.574 488.721 332.574 488.015C332.574 487.309 332.046 486.737 331.394 486.737C330.742 486.737 330.213 487.309 330.213 488.015C330.213 488.721 330.742 489.293 331.394 489.293Z" fill="#4A5568" stroke="#4A5568" stroke-width="5" stroke-miterlimit="10"/>
<path d="M350.044 488.986C350.696 488.986 351.225 488.414 351.225 487.708C351.225 487.003 350.696 486.43 350.044 486.43C349.392 486.43 348.863 487.003 348.863 487.708C348.863 488.414 349.392 488.986 350.044 488.986Z" fill="#4A5568" stroke="#4A5568" stroke-width="5" stroke-miterlimit="10"/>
<path d="M369.148 488.986C369.8 488.986 370.328 488.414 370.328 487.708C370.328 487.003 369.8 486.43 369.148 486.43C368.496 486.43 367.967 487.003 367.967 487.708C367.967 488.414 368.496 488.986 369.148 488.986Z" fill="#4A5568" stroke="#4A5568" stroke-width="5" stroke-miterlimit="10"/>
<path d="M388.7 488.986C389.352 488.986 389.88 488.414 389.88 487.708C389.88 487.003 389.352 486.43 388.7 486.43C388.048 486.43 387.519 487.003 387.519 487.708C387.519 488.414 388.048 488.986 388.7 488.986Z" fill="#4A5568" stroke="#4A5568" stroke-width="5" stroke-miterlimit="10"/>
<path d="M406.624 489.293C407.276 489.293 407.805 488.721 407.805 488.015C407.805 487.309 407.276 486.737 406.624 486.737C405.972 486.737 405.444 487.309 405.444 488.015C405.444 488.721 405.972 489.293 406.624 489.293Z" fill="#4A5568" stroke="#4A5568" stroke-width="5" stroke-miterlimit="10"/>
<path d="M425.824 488.015C426.476 488.015 427.004 487.442 427.004 486.737C427.004 486.031 426.476 485.459 425.824 485.459C425.172 485.459 424.643 486.031 424.643 486.737C424.643 487.442 425.172 488.015 425.824 488.015Z" fill="#4A5568" stroke="#4A5568" stroke-width="5" stroke-miterlimit="10"/>
<path d="M444.192 488.015C444.844 488.015 445.373 487.442 445.373 486.737C445.373 486.031 444.844 485.459 444.192 485.459C443.54 485.459 443.011 486.031 443.011 486.737C443.011 487.442 443.54 488.015 444.192 488.015Z" fill="#4A5568" stroke="#4A5568" stroke-width="5" stroke-miterlimit="10"/>
<path d="M463.839 489.293C464.491 489.293 465.02 488.721 465.02 488.015C465.02 487.309 464.491 486.737 463.839 486.737C463.187 486.737 462.659 487.309 462.659 488.015C462.659 488.721 463.187 489.293 463.839 489.293Z" fill="#4A5568" stroke="#4A5568" stroke-width="5" stroke-miterlimit="10"/>
<path d="M482.304 490.572C482.956 490.572 483.484 490 483.484 489.294C483.484 488.588 482.956 488.016 482.304 488.016C481.652 488.016 481.123 488.588 481.123 489.294C481.123 490 481.652 490.572 482.304 490.572Z" fill="#4A5568" stroke="#4A5568" stroke-width="5" stroke-miterlimit="10"/>
<path d="M500.772 490.265C501.425 490.265 501.953 489.693 501.953 488.987C501.953 488.281 501.425 487.709 500.772 487.709C500.12 487.709 499.592 488.281 499.592 488.987C499.592 489.693 500.12 490.265 500.772 490.265Z" fill="#4A5568" stroke="#4A5568" stroke-width="5" stroke-miterlimit="10"/>
<path d="M519.428 490.265C520.08 490.265 520.609 489.693 520.609 488.987C520.609 488.281 520.08 487.709 519.428 487.709C518.776 487.709 518.247 488.281 518.247 488.987C518.247 489.693 518.776 490.265 519.428 490.265Z" fill="#4A5568" stroke="#4A5568" stroke-width="5" stroke-miterlimit="10"/>
<path d="M537.801 490.265C538.453 490.265 538.981 489.693 538.981 488.987C538.981 488.281 538.453 487.709 537.801 487.709C537.149 487.709 536.62 488.281 536.62 488.987C536.62 489.693 537.149 490.265 537.801 490.265Z" fill="#4A5568" stroke="#4A5568" stroke-width="5" stroke-miterlimit="10"/>
<path d="M556.9 490.265C557.552 490.265 558.08 489.693 558.08 488.987C558.08 488.281 557.552 487.709 556.9 487.709C556.248 487.709 555.719 488.281 555.719 488.987C555.719 489.693 556.248 490.265 556.9 490.265Z" fill="#4A5568" stroke="#4A5568" stroke-width="5" stroke-miterlimit="10"/>
<path d="M574.734 490.265C575.386 490.265 575.915 489.693 575.915 488.987C575.915 488.281 575.386 487.709 574.734 487.709C574.082 487.709 573.553 488.281 573.553 488.987C573.553 489.693 574.082 490.265 574.734 490.265Z" fill="#4A5568" stroke="#4A5568" stroke-width="5" stroke-miterlimit="10"/>
<path d="M595.016 490.265C595.668 490.265 596.197 489.693 596.197 488.987C596.197 488.281 595.668 487.709 595.016 487.709C594.364 487.709 593.835 488.281 593.835 488.987C593.835 489.693 594.364 490.265 595.016 490.265Z" fill="#4A5568" stroke="#4A5568" stroke-width="5" stroke-miterlimit="10"/>
<path d="M612.845 489.293C613.498 489.293 614.026 488.721 614.026 488.015C614.026 487.309 613.498 486.737 612.845 486.737C612.193 486.737 611.665 487.309 611.665 488.015C611.665 488.721 612.193 489.293 612.845 489.293Z" fill="#4A5568" stroke="#4A5568" stroke-width="5" stroke-miterlimit="10"/>
<path d="M630.765 490.572C631.417 490.572 631.946 490 631.946 489.294C631.946 488.588 631.417 488.016 630.765 488.016C630.113 488.016 629.585 488.588 629.585 489.294C629.585 490 630.113 490.572 630.765 490.572Z" fill="#4A5568" stroke="#4A5568" stroke-width="5" stroke-miterlimit="10"/>
<path d="M650.413 490.265C651.065 490.265 651.593 489.693 651.593 488.987C651.593 488.281 651.065 487.709 650.413 487.709C649.761 487.709 649.232 488.281 649.232 488.987C649.232 489.693 649.761 490.265 650.413 490.265Z" fill="#4A5568" stroke="#4A5568" stroke-width="5" stroke-miterlimit="10"/>
<path d="M668.877 490.265C669.529 490.265 670.057 489.693 670.057 488.987C670.057 488.281 669.529 487.709 668.877 487.709C668.225 487.709 667.696 488.281 667.696 488.987C667.696 489.693 668.225 490.265 668.877 490.265Z" fill="#4A5568" stroke="#4A5568" stroke-width="5" stroke-miterlimit="10"/>
<path d="M689.446 490.265C690.098 490.265 690.626 489.693 690.626 488.987C690.626 488.281 690.098 487.709 689.446 487.709C688.794 487.709 688.265 488.281 688.265 488.987C688.265 489.693 688.794 490.265 689.446 490.265Z" fill="#4A5568" stroke="#4A5568" stroke-width="5" stroke-miterlimit="10"/>
<path d="M707.179 490.265C707.832 490.265 708.36 489.693 708.36 488.987C708.36 488.281 707.832 487.709 707.179 487.709C706.527 487.709 705.999 488.281 705.999 488.987C705.999 489.693 706.527 490.265 707.179 490.265Z" fill="#4A5568" stroke="#4A5568" stroke-width="5" stroke-miterlimit="10"/>
<path d="M726.092 490.265C726.744 490.265 727.272 489.693 727.272 488.987C727.272 488.281 726.744 487.709 726.092 487.709C725.44 487.709 724.911 488.281 724.911 488.987C724.911 489.693 725.44 490.265 726.092 490.265Z" fill="#4A5568" stroke="#4A5568" stroke-width="5" stroke-miterlimit="10"/>
<path d="M744.747 490.572C745.399 490.572 745.927 490 745.927 489.294C745.927 488.588 745.399 488.016 744.747 488.016C744.095 488.016 743.566 488.588 743.566 489.294C743.566 490 744.095 490.572 744.747 490.572Z" fill="#4A5568" stroke="#4A5568" stroke-width="5" stroke-miterlimit="10"/>
<path d="M763.377 490.265C764.03 490.265 764.558 489.693 764.558 488.987C764.558 488.281 764.03 487.709 763.377 487.709C762.725 487.709 762.197 488.281 762.197 488.987C762.197 489.693 762.725 490.265 763.377 490.265Z" fill="#4A5568" stroke="#4A5568" stroke-width="5" stroke-miterlimit="10"/>
<path d="M781.539 490.265C782.191 490.265 782.72 489.693 782.72 488.987C782.72 488.281 782.191 487.709 781.539 487.709C780.887 487.709 780.358 488.281 780.358 488.987C780.358 489.693 780.887 490.265 781.539 490.265Z" fill="#4A5568" stroke="#4A5568" stroke-width="5" stroke-miterlimit="10"/>
<path d="M799.912 490.572C800.564 490.572 801.093 490 801.093 489.294C801.093 488.588 800.564 488.016 799.912 488.016C799.26 488.016 798.732 488.588 798.732 489.294C798.732 490 799.26 490.572 799.912 490.572Z" fill="#4A5568" stroke="#4A5568" stroke-width="5" stroke-miterlimit="10"/>
<path d="M818.779 490.572C819.431 490.572 819.96 490 819.96 489.294C819.96 488.588 819.431 488.016 818.779 488.016C818.127 488.016 817.599 488.588 817.599 489.294C817.599 490 818.127 490.572 818.779 490.572Z" fill="#4A5568" stroke="#4A5568" stroke-width="5" stroke-miterlimit="10"/>
<path d="M836.679 490.265C837.331 490.265 837.859 489.693 837.859 488.987C837.859 488.281 837.331 487.709 836.679 487.709C836.027 487.709 835.498 488.281 835.498 488.987C835.498 489.693 836.027 490.265 836.679 490.265Z" fill="#4A5568" stroke="#4A5568" stroke-width="5" stroke-miterlimit="10"/>
<path d="M856.513 490.265C857.165 490.265 857.693 489.693 857.693 488.987C857.693 488.281 857.165 487.709 856.513 487.709C855.861 487.709 855.332 488.281 855.332 488.987C855.332 489.693 855.861 490.265 856.513 490.265Z" fill="#4A5568" stroke="#4A5568" stroke-width="5" stroke-miterlimit="10"/>
<path d="M875.828 490.572C876.48 490.572 877.008 490 877.008 489.294C877.008 488.588 876.48 488.016 875.828 488.016C875.176 488.016 874.647 488.588 874.647 489.294C874.647 490 875.176 490.572 875.828 490.572Z" fill="#4A5568" stroke="#4A5568" stroke-width="5" stroke-miterlimit="10"/>
<path d="M893.753 490.265C894.405 490.265 894.934 489.693 894.934 488.987C894.934 488.281 894.405 487.709 893.753 487.709C893.101 487.709 892.572 488.281 892.572 488.987C892.572 489.693 893.101 490.265 893.753 490.265Z" fill="#4A5568" stroke="#4A5568" stroke-width="5" stroke-miterlimit="10"/>
<path d="M223.239 462.789C223.891 462.789 224.42 462.217 224.42 461.512C224.42 460.806 223.891 460.234 223.239 460.234C222.587 460.234 222.059 460.806 222.059 461.512C222.059 462.217 222.587 462.789 223.239 462.789Z" fill="#4A5568" stroke="#4A5568" stroke-width="5" stroke-miterlimit="10"/>
<path d="M240.429 473.831C241.081 473.831 241.61 473.259 241.61 472.553C241.61 471.848 241.081 471.275 240.429 471.275C239.777 471.275 239.248 471.848 239.248 472.553C239.248 473.259 239.777 473.831 240.429 473.831Z" fill="#4A5568" stroke="#4A5568" stroke-width="5" stroke-miterlimit="10"/>
<path d="M257.619 479.836C258.271 479.836 258.799 479.264 258.799 478.558C258.799 477.852 258.271 477.28 257.619 477.28C256.966 477.28 256.438 477.852 256.438 478.558C256.438 479.264 256.966 479.836 257.619 479.836Z" fill="#4A5568" stroke="#4A5568" stroke-width="5" stroke-miterlimit="10"/>
<path d="M276.088 485.152C276.74 485.152 277.268 484.58 277.268 483.874C277.268 483.168 276.74 482.596 276.088 482.596C275.436 482.596 274.907 483.168 274.907 483.874C274.907 484.58 275.436 485.152 276.088 485.152Z" fill="#4A5568" stroke="#4A5568" stroke-width="5" stroke-miterlimit="10"/>
<path d="M293.917 487.708C294.569 487.708 295.098 487.136 295.098 486.43C295.098 485.724 294.569 485.152 293.917 485.152C293.265 485.152 292.736 485.724 292.736 486.43C292.736 487.136 293.265 487.708 293.917 487.708Z" fill="#4A5568" stroke="#4A5568" stroke-width="5" stroke-miterlimit="10"/>
<path d="M313.021 488.015C313.673 488.015 314.201 487.442 314.201 486.737C314.201 486.031 313.673 485.459 313.021 485.459C312.368 485.459 311.84 486.031 311.84 486.737C311.84 487.442 312.368 488.015 313.021 488.015Z" fill="#4A5568" stroke="#4A5568" stroke-width="5" stroke-miterlimit="10"/>
<path d="M124.181 283.556C124.833 283.556 125.361 282.984 125.361 282.278C125.361 281.572 124.833 281 124.181 281C123.529 281 123 281.572 123 282.278C123 282.984 123.529 283.556 124.181 283.556Z" fill="#4A5568" stroke="#4A5568" stroke-width="5" stroke-miterlimit="10"/>
<path d="M125.359 302.212C126.011 302.212 126.54 301.64 126.54 300.935C126.54 300.229 126.011 299.657 125.359 299.657C124.707 299.657 124.178 300.229 124.178 300.935C124.178 301.64 124.707 302.212 125.359 302.212Z" fill="#4A5568" stroke="#4A5568" stroke-width="5" stroke-miterlimit="10"/>
<path d="M126.543 322.786C127.195 322.786 127.724 322.214 127.724 321.508C127.724 320.803 127.195 320.23 126.543 320.23C125.891 320.23 125.362 320.803 125.362 321.508C125.362 322.214 125.891 322.786 126.543 322.786Z" fill="#4A5568" stroke="#4A5568" stroke-width="5" stroke-miterlimit="10"/>
<path d="M131.549 342.184C132.201 342.184 132.73 341.612 132.73 340.906C132.73 340.201 132.201 339.628 131.549 339.628C130.897 339.628 130.368 340.201 130.368 340.906C130.368 341.612 130.897 342.184 131.549 342.184Z" fill="#4A5568" stroke="#4A5568" stroke-width="5" stroke-miterlimit="10"/>
<defs>
<filter id="filter0_d_399_17" x="0" y="0" width="273" height="273" filterUnits="userSpaceOnUse" color-interpolation-filters="sRGB">
<feFlood flood-opacity="0" result="BackgroundImageFix"/>
<feColorMatrix in="SourceAlpha" type="matrix" values="0 0 0 0 0 0 0 0 0 0 0 0 0 0 0 0 0 0 127 0" result="hardAlpha"/>
<feOffset dy="4"/>
<feGaussianBlur stdDeviation="2"/>
<feComposite in2="hardAlpha" operator="out"/>
<feColorMatrix type="matrix" values="0 0 0 0 0 0 0 0 0 0 0 0 0 0 0 0 0 0 0.41 0"/>
<feBlend mode="normal" in2="BackgroundImageFix" result="effect1_dropShadow_399_17"/>
<feBlend mode="normal" in="SourceGraphic" in2="effect1_dropShadow_399_17" result="shape"/>
</filter>
</defs>
</svg>
