<svg width="1440" height="806" viewBox="0 0 1440 806" fill="none" xmlns="http://www.w3.org/2000/svg">
<path opacity="0.4" d="M211.433 0L226.183 3.57873L227.07 0H211.433Z" fill="url(#paint0_linear_247_1861)"/>
<path opacity="0.4" d="M230.651 0L226.183 3.57873L305.168 0H230.651Z" fill="url(#paint1_linear_247_1861)"/>
<path opacity="0.4" d="M766.99 0L796.338 0.588285L795.511 0H766.99Z" fill="url(#paint2_linear_247_1861)"/>
<path opacity="0.4" d="M226.183 3.57861L0 57.8724V63.1915L72.6197 49.8325L226.183 3.57861Z" fill="url(#paint3_linear_247_1861)"/>
<path opacity="0.4" d="M0 57.8726L226.152 3.57873L211.432 0H0V57.8726Z" fill="url(#paint4_linear_247_1861)"/>
<path opacity="0.4" d="M403.341 0L72.6196 49.8327L362.976 82.6296L439.604 0H403.341Z" fill="url(#paint5_linear_247_1861)"/>
<path opacity="0.4" d="M305.168 0L226.183 3.57874L72.6196 49.8327L403.341 0H305.168Z" fill="url(#paint6_linear_247_1861)"/>
<path opacity="0.4" d="M796.338 0.588294L362.946 82.6296L769.438 54.9311L796.338 0.563782V0.588294Z" fill="url(#paint7_linear_247_1861)"/>
<path opacity="0.4" d="M766.99 0H439.605L362.976 82.6296L796.338 0.588285L766.99 0Z" fill="url(#paint8_linear_247_1861)"/>
<path opacity="0.4" d="M864.948 0L769.438 54.9311L874.313 140.208L911.923 0H864.948Z" fill="url(#paint9_linear_247_1861)"/>
<path opacity="0.4" d="M798.572 0L796.338 0.588285L769.438 54.9311L864.948 0H798.572Z" fill="url(#paint10_linear_247_1861)"/>
<path opacity="0.4" d="M1068.39 0L874.312 140.208L1052.33 137.487L1082.56 0H1068.39Z" fill="url(#paint11_linear_247_1861)"/>
<path opacity="0.4" d="M911.923 0L874.312 140.208L1068.39 0H911.923Z" fill="url(#paint12_linear_247_1861)"/>
<path opacity="0.4" d="M1216.17 0L1052.33 137.487L1440 87.2133V8.77525L1429.63 0H1216.17Z" fill="url(#paint13_linear_247_1861)"/>
<path opacity="0.4" d="M1082.56 0L1052.33 137.487L1216.17 0H1082.56Z" fill="url(#paint14_linear_247_1861)"/>
<path opacity="0.4" d="M1429.62 0L1440 8.77525V0H1429.62Z" fill="url(#paint15_linear_247_1861)"/>
<path opacity="0.4" d="M0 249.139L181.35 209.993L72.6197 49.8325H72.5891L0 142.561V249.139Z" fill="url(#paint16_linear_247_1861)"/>
<path opacity="0.4" d="M0 142.561L72.5891 49.8325L0 63.1915V142.561Z" fill="url(#paint17_linear_247_1861)"/>
<path opacity="0.4" d="M362.946 82.6295L181.32 210.091L504.084 277.671L362.946 82.6295Z" fill="url(#paint18_linear_247_1861)"/>
<path opacity="0.4" d="M769.407 54.9312L504.084 277.671L767.479 240.903L769.438 54.9067L769.407 54.9312Z" fill="url(#paint19_linear_247_1861)"/>
<path opacity="0.4" d="M769.408 54.9312L504.084 277.671L362.946 82.6296L769.438 54.9312H769.408Z" fill="url(#paint20_linear_247_1861)"/>
<path opacity="0.4" d="M874.282 140.159L767.479 240.927L923.552 293.799L874.313 140.183L874.282 140.159Z" fill="url(#paint21_linear_247_1861)"/>
<path opacity="0.4" d="M874.282 140.159L767.479 240.927L769.438 54.9312L874.313 140.183L874.282 140.159Z" fill="url(#paint22_linear_247_1861)"/>
<path opacity="0.4" d="M1052.33 137.487L923.521 293.922L1049.48 226.441L1052.3 137.463L1052.33 137.487Z" fill="url(#paint23_linear_247_1861)"/>
<path opacity="0.4" d="M1052.33 137.487L923.521 293.922L874.312 140.183L1052.3 137.463L1052.33 137.487Z" fill="url(#paint24_linear_247_1861)"/>
<path opacity="0.4" d="M1440 102.288L1049.48 226.441L1440 215.95V102.288Z" fill="url(#paint25_linear_247_1861)"/>
<path opacity="0.4" d="M1440 87.213L1052.33 137.487L1049.48 226.441L1440 102.288V87.213Z" fill="url(#paint26_linear_247_1861)"/>
<path opacity="0.4" d="M0 421.899L199.498 417.707L181.35 209.993L0 343.804V421.899Z" fill="url(#paint27_linear_247_1861)"/>
<path opacity="0.4" d="M0 343.804L181.381 209.969L181.35 209.993L0 249.139V343.804Z" fill="url(#paint28_linear_247_1861)"/>
<path opacity="0.4" d="M504.115 277.671L199.498 417.682L328.426 343.338L504.084 277.671H504.115Z" fill="url(#paint29_linear_247_1861)"/>
<path opacity="0.4" d="M504.115 277.671L199.498 417.683L181.32 209.969L504.084 277.671H504.115Z" fill="url(#paint30_linear_247_1861)"/>
<path opacity="0.4" d="M767.479 240.927L328.426 343.338L603.022 372.752L767.479 241.001V240.927Z" fill="url(#paint31_linear_247_1861)"/>
<path opacity="0.4" d="M767.479 240.927L328.426 343.338L504.084 277.671L767.479 240.903V240.927Z" fill="url(#paint32_linear_247_1861)"/>
<path opacity="0.4" d="M923.491 293.922L603.022 372.679L929.336 377.704L923.522 293.922H923.491Z" fill="url(#paint33_linear_247_1861)"/>
<path opacity="0.4" d="M923.491 293.922L603.022 372.679L767.48 240.927L923.552 293.799L923.491 293.922Z" fill="url(#paint34_linear_247_1861)"/>
<path opacity="0.4" d="M1049.45 226.441L929.336 377.704L1228.32 389.102L1049.48 226.441H1049.45Z" fill="url(#paint35_linear_247_1861)"/>
<path opacity="0.4" d="M1049.45 226.441L929.336 377.704L923.521 293.922L1049.48 226.441H1049.45Z" fill="url(#paint36_linear_247_1861)"/>
<path opacity="0.4" d="M1440 244.114L1228.35 389.102L1381.76 357.751L1440 275.342V244.114Z" fill="url(#paint37_linear_247_1861)"/>
<path opacity="0.4" d="M1440 215.95L1049.48 226.441L1228.35 389.102L1440 244.114V215.95Z" fill="url(#paint38_linear_247_1861)"/>
<path opacity="0.4" d="M1440 336.818L1381.76 357.751L1440 351.942V336.818Z" fill="url(#paint39_linear_247_1861)"/>
<path opacity="0.4" d="M1440 275.342L1381.76 357.751L1440 336.818V275.342Z" fill="url(#paint40_linear_247_1861)"/>
<path opacity="0.4" d="M0 511.955L233.895 528.427L199.498 417.707L0 493.351V511.955Z" fill="url(#paint41_linear_247_1861)"/>
<path opacity="0.4" d="M0 493.351L199.498 417.707L0 421.898V493.351Z" fill="url(#paint42_linear_247_1861)"/>
<path opacity="0.4" d="M328.457 343.313L233.864 528.427L446.184 473.005L328.426 343.338L328.457 343.313Z" fill="url(#paint43_linear_247_1861)"/>
<path opacity="0.4" d="M328.456 343.313L233.864 528.427L199.498 417.682L328.426 343.338L328.456 343.313Z" fill="url(#paint44_linear_247_1861)"/>
<path opacity="0.4" d="M603.022 372.679L446.184 473.006L698.379 530.119L603.022 372.679Z" fill="url(#paint45_linear_247_1861)"/>
<path opacity="0.4" d="M603.022 372.679L446.184 473.006L328.426 343.338L603.022 372.752V372.679Z" fill="url(#paint46_linear_247_1861)"/>
<path opacity="0.4" d="M929.366 377.679L698.379 530.118L931.815 559.532L929.336 377.777L929.366 377.679Z" fill="url(#paint47_linear_247_1861)"/>
<path opacity="0.4" d="M929.367 377.679L698.379 530.119L603.022 372.679L929.336 377.703L929.367 377.679Z" fill="url(#paint48_linear_247_1861)"/>
<path opacity="0.4" d="M1228.35 389.077L931.815 559.459L1143.37 461.926L1228.32 389.102L1228.35 389.077Z" fill="url(#paint49_linear_247_1861)"/>
<path opacity="0.4" d="M1228.35 389.077L931.815 559.46L929.336 377.704L1228.32 389.102L1228.35 389.077Z" fill="url(#paint50_linear_247_1861)"/>
<path opacity="0.4" d="M1381.73 357.653L1143.37 461.828L1228.32 389.004L1381.76 357.653H1381.73Z" fill="url(#paint51_linear_247_1861)"/>
<path opacity="0.4" d="M1440 479.502L1296.02 567.769L1440 517.127V479.502Z" fill="url(#paint52_linear_247_1861)"/>
<path opacity="0.4" d="M1440 351.942L1381.76 357.751L1296.02 567.769L1440 479.501V351.942Z" fill="url(#paint53_linear_247_1861)"/>
<path opacity="0.4" d="M0 561.028V628.142L47.036 620.028L0 561.028Z" fill="url(#paint54_linear_247_1861)"/>
<path opacity="0.4" d="M233.895 528.427L47.0361 619.93L162.438 663.61L233.864 528.329L233.895 528.427Z" fill="url(#paint55_linear_247_1861)"/>
<path opacity="0.4" d="M233.895 528.427L0 511.955V561.028L47.036 620.028L233.895 528.452V528.427Z" fill="url(#paint56_linear_247_1861)"/>
<path opacity="0.4" d="M446.215 472.981L162.438 663.708L549.315 615.419L446.184 473.005L446.215 472.981Z" fill="url(#paint57_linear_247_1861)"/>
<path opacity="0.4" d="M446.215 472.981L162.438 663.708L233.864 528.427L446.184 473.005L446.215 472.981Z" fill="url(#paint58_linear_247_1861)"/>
<path opacity="0.4" d="M698.348 530.094L549.314 615.42L607.459 646.55L698.379 530.118L698.348 530.094Z" fill="url(#paint59_linear_247_1861)"/>
<path opacity="0.4" d="M698.348 530.094L549.314 615.42L446.184 473.006L698.379 530.118L698.348 530.094Z" fill="url(#paint60_linear_247_1861)"/>
<path opacity="0.4" d="M931.815 559.459L607.429 646.55L917.034 594.879L931.784 559.459H931.815Z" fill="url(#paint61_linear_247_1861)"/>
<path opacity="0.4" d="M931.815 559.459L607.429 646.55L698.349 530.118L931.784 559.533L931.815 559.459Z" fill="url(#paint62_linear_247_1861)"/>
<path opacity="0.4" d="M1143.4 461.951L916.942 594.879L1259.11 627.137L1143.25 461.927L1143.4 461.951Z" fill="url(#paint63_linear_247_1861)"/>
<path opacity="0.4" d="M1143.4 461.951L916.942 594.879L931.692 559.459L1143.25 461.927L1143.4 461.951Z" fill="url(#paint64_linear_247_1861)"/>
<path opacity="0.4" d="M1295.98 567.769L1259.26 627.137L1381.67 671.65L1295.98 567.769Z" fill="url(#paint65_linear_247_1861)"/>
<path opacity="0.4" d="M1295.98 567.769L1259.26 627.137L1143.4 461.927L1296.02 567.769H1295.98Z" fill="url(#paint66_linear_247_1861)"/>
<path opacity="0.4" d="M1440 615.641L1381.55 671.675L1440 660.595V615.641Z" fill="url(#paint67_linear_247_1861)"/>
<path opacity="0.4" d="M1440 517.127L1296.02 567.768L1381.55 671.674L1440 615.64V517.127Z" fill="url(#paint68_linear_247_1861)"/>
<path opacity="0.4" d="M0 672.189L47.036 620.028L47.0054 620.003L0 645.422V672.189Z" fill="url(#paint69_linear_247_1861)"/>
<path opacity="0.4" d="M0 628.141V645.422L46.9748 620.028L0 628.141Z" fill="url(#paint70_linear_247_1861)"/>
<path opacity="0.4" d="M0 672.189V749.009L162.438 663.708L47.036 620.028L0 672.189Z" fill="url(#paint71_linear_247_1861)"/>
<path opacity="0.4" d="M542.949 806L549.314 615.444L291.182 806H542.949Z" fill="url(#paint72_linear_247_1861)"/>
<path opacity="0.4" d="M291.183 806L549.315 615.42L162.438 663.733L264.864 806H291.183Z" fill="url(#paint73_linear_247_1861)"/>
<path opacity="0.4" d="M742.355 806L607.459 646.575L555.863 806H742.355Z" fill="url(#paint74_linear_247_1861)"/>
<path opacity="0.4" d="M555.863 806L607.459 646.575L549.314 615.42L542.949 806H555.863Z" fill="url(#paint75_linear_247_1861)"/>
<path opacity="0.4" d="M835.906 806L965.324 734.327L917.064 594.879L917.034 594.903L792.94 806H835.906Z" fill="url(#paint76_linear_247_1861)"/>
<path opacity="0.4" d="M792.941 806L917.034 594.903L917.064 594.879L607.459 646.574L742.355 806H792.941Z" fill="url(#paint77_linear_247_1861)"/>
<path opacity="0.4" d="M1259.2 627.284L965.416 734.449L1142.67 802.715L1259.32 627.259L1259.2 627.284Z" fill="url(#paint78_linear_247_1861)"/>
<path opacity="0.4" d="M1259.2 627.284L965.416 734.45L917.156 595.002L1259.32 627.259L1259.2 627.284Z" fill="url(#paint79_linear_247_1861)"/>
<path opacity="0.4" d="M1381.58 671.675L1142.57 802.593L1297.97 803.769L1381.43 671.724L1381.58 671.675Z" fill="url(#paint80_linear_247_1861)"/>
<path opacity="0.4" d="M1381.58 671.674L1142.57 802.592L1259.23 627.136L1381.64 671.65L1381.58 671.674Z" fill="url(#paint81_linear_247_1861)"/>
<path opacity="0.4" d="M1440 736.631L1298.13 803.72L1440 791.808V736.631Z" fill="url(#paint82_linear_247_1861)"/>
<path opacity="0.4" d="M1440 660.595L1381.55 671.674L1298.13 803.72L1440 736.631V660.595Z" fill="url(#paint83_linear_247_1861)"/>
<path opacity="0.4" d="M931.294 806L965.324 734.351L895.673 806H931.294Z" fill="url(#paint84_linear_247_1861)"/>
<path opacity="0.4" d="M895.673 805.999L965.324 734.351V734.327L835.906 805.999H895.673Z" fill="url(#paint85_linear_247_1861)"/>
<path opacity="0.4" d="M1136.7 805.999L1142.61 802.617L1142.57 802.592L965.325 734.327L931.295 805.999H1136.7Z" fill="url(#paint86_linear_247_1861)"/>
<path opacity="0.4" d="M1294.73 806L1298.13 803.72L1142.57 802.593L1143.61 806H1294.73Z" fill="url(#paint87_linear_247_1861)"/>
<path opacity="0.4" d="M1440 806V791.808L1298.13 803.72L1299.11 806H1440Z" fill="url(#paint88_linear_247_1861)"/>
<path d="M364.444 82.6294L182.819 210.091L74.1187 49.8325L364.444 82.6294Z" fill="url(#paint89_linear_247_1861)"/>
<path d="M1383.23 357.653L1144.87 461.828L1297.48 567.671L1383.17 357.653H1383.23Z" fill="url(#paint90_linear_247_1861)"/>
<path d="M266 806L163.134 663.5V663.476L0 748.917V806H266Z" fill="#E70082"/>
<defs>
<linearGradient id="paint0_linear_247_1861" x1="403.8" y1="-116.431" x2="138.349" y2="147.967" gradientUnits="userSpaceOnUse">
<stop stop-color="#E3E3E3"/>
<stop offset="1" stop-color="#EDEDED"/>
</linearGradient>
<linearGradient id="paint1_linear_247_1861" x1="226.091" y1="2.6718" x2="438.179" y2="-18.4959" gradientUnits="userSpaceOnUse">
<stop stop-color="#E3E3E3"/>
<stop offset="1" stop-color="#E3E3E3"/>
</linearGradient>
<linearGradient id="paint2_linear_247_1861" x1="445.663" y1="-9.41257" x2="796.098" y2="5.89781" gradientUnits="userSpaceOnUse">
<stop stop-color="#E3E3E3"/>
<stop offset="1" stop-color="#E1E1E1"/>
</linearGradient>
<linearGradient id="paint3_linear_247_1861" x1="69.9879" y1="49.0972" x2="199.337" y2="-36.8511" gradientUnits="userSpaceOnUse">
<stop stop-color="#E3E3E3"/>
<stop offset="1" stop-color="#DDDDDD"/>
</linearGradient>
<linearGradient id="paint4_linear_247_1861" x1="107.078" y1="89.3213" x2="113.721" y2="-62.3487" gradientUnits="userSpaceOnUse">
<stop stop-color="#E3E3E3"/>
<stop offset="1" stop-color="#D2D2D2"/>
</linearGradient>
<linearGradient id="paint5_linear_247_1861" x1="85.5951" y1="-2.32863" x2="374.546" y2="69.6414" gradientUnits="userSpaceOnUse">
<stop stop-color="#E3E3E3"/>
<stop offset="1" stop-color="#D9D9D9"/>
</linearGradient>
<linearGradient id="paint6_linear_247_1861" x1="4467.9" y1="13908.3" x2="5991.58" y2="19288.4" gradientUnits="userSpaceOnUse">
<stop stop-color="#E3E3E3"/>
<stop offset="1" stop-color="#D9D9D9"/>
</linearGradient>
<linearGradient id="paint7_linear_247_1861" x1="360.834" y1="68.4372" x2="759.527" y2="8.54847" gradientUnits="userSpaceOnUse">
<stop stop-color="#E3E3E3"/>
<stop offset="1" stop-color="#F5F5F5"/>
</linearGradient>
<linearGradient id="paint8_linear_247_1861" x1="65015.4" y1="-20273.8" x2="65491.3" y2="-25024" gradientUnits="userSpaceOnUse">
<stop stop-color="#E3E3E3"/>
<stop offset="1" stop-color="#F5F5F5"/>
</linearGradient>
<linearGradient id="paint9_linear_247_1861" x1="37629" y1="42016.1" x2="40839.6" y2="37329.5" gradientUnits="userSpaceOnUse">
<stop stop-color="#E3E3E3"/>
<stop offset="1" stop-color="#EDEDED"/>
</linearGradient>
<linearGradient id="paint10_linear_247_1861" x1="24383.5" y1="16864.4" x2="26970.5" y2="18947" gradientUnits="userSpaceOnUse">
<stop stop-color="#E3E3E3"/>
<stop offset="1" stop-color="#DDDDDD"/>
</linearGradient>
<linearGradient id="paint11_linear_247_1861" x1="56441.6" y1="39851.3" x2="68428.6" y2="40327.2" gradientUnits="userSpaceOnUse">
<stop stop-color="#E3E3E3"/>
<stop offset="1" stop-color="#EDEDED"/>
</linearGradient>
<linearGradient id="paint12_linear_247_1861" x1="62912.2" y1="46560.3" x2="55926.1" y2="34224.6" gradientUnits="userSpaceOnUse">
<stop stop-color="#E3E3E3"/>
<stop offset="1" stop-color="#D9D9D9"/>
</linearGradient>
<linearGradient id="paint13_linear_247_1861" x1="1332.89" y1="177.074" x2="1219.66" y2="-34.4626" gradientUnits="userSpaceOnUse">
<stop stop-color="#E3E3E3"/>
<stop offset="1" stop-color="#C2C2C2"/>
</linearGradient>
<linearGradient id="paint14_linear_247_1861" x1="1255.9" y1="-126.481" x2="1099.47" y2="162.958" gradientUnits="userSpaceOnUse">
<stop stop-color="#E3E3E3"/>
<stop offset="1" stop-color="#EFEFEF"/>
</linearGradient>
<linearGradient id="paint15_linear_247_1861" x1="6399.73" y1="2382.13" x2="5939.49" y2="3196.47" gradientUnits="userSpaceOnUse">
<stop stop-color="#E3E3E3"/>
<stop offset="1" stop-color="#E3E3E3"/>
</linearGradient>
<linearGradient id="paint16_linear_247_1861" x1="-130.152" y1="208.473" x2="123.158" y2="87.8233" gradientUnits="userSpaceOnUse">
<stop stop-color="#E3E3E3"/>
<stop offset="1" stop-color="#F3F3F3"/>
</linearGradient>
<linearGradient id="paint17_linear_247_1861" x1="45.3529" y1="40.1503" x2="-43.7043" y2="290.989" gradientUnits="userSpaceOnUse">
<stop stop-color="#E3E3E3"/>
<stop offset="1" stop-color="#D7D7D7"/>
</linearGradient>
<linearGradient id="paint18_linear_247_1861" x1="380.726" y1="318.14" x2="309.229" y2="100.256" gradientUnits="userSpaceOnUse">
<stop stop-color="#E3E3E3"/>
<stop offset="1" stop-color="#B0B0B0"/>
</linearGradient>
<linearGradient id="paint19_linear_247_1861" x1="37449.3" y1="-50562.8" x2="58000.9" y2="-56600.4" gradientUnits="userSpaceOnUse">
<stop stop-color="#E3E3E3"/>
<stop offset="1" stop-color="#EDEDED"/>
</linearGradient>
<linearGradient id="paint20_linear_247_1861" x1="43252" y1="-52294.6" x2="95291.3" y2="-63724.3" gradientUnits="userSpaceOnUse">
<stop stop-color="#E3E3E3"/>
<stop offset="1" stop-color="#D9D9D9"/>
</linearGradient>
<linearGradient id="paint21_linear_247_1861" x1="923.215" y1="163.69" x2="863.794" y2="287.225" gradientUnits="userSpaceOnUse">
<stop stop-color="#E3E3E3"/>
<stop offset="1" stop-color="#F9F9F9"/>
</linearGradient>
<linearGradient id="paint22_linear_247_1861" x1="24127.7" y1="-51549.4" x2="28835.9" y2="-47667.9" gradientUnits="userSpaceOnUse">
<stop stop-color="#E3E3E3"/>
<stop offset="1" stop-color="#EFEFEF"/>
</linearGradient>
<linearGradient id="paint23_linear_247_1861" x1="913.882" y1="285.612" x2="994.011" y2="191.138" gradientUnits="userSpaceOnUse">
<stop stop-color="#E3E3E3"/>
<stop offset="1" stop-color="#D0D0D0"/>
</linearGradient>
<linearGradient id="paint24_linear_247_1861" x1="54645.4" y1="42204.7" x2="50064.1" y2="31032.8" gradientUnits="userSpaceOnUse">
<stop stop-color="#E3E3E3"/>
<stop offset="1" stop-color="#F9F9F9"/>
</linearGradient>
<linearGradient id="paint25_linear_247_1861" x1="127491" y1="30259" x2="181295" y2="38280" gradientUnits="userSpaceOnUse">
<stop stop-color="#E3E3E3"/>
<stop offset="1" stop-color="#DDDDDD"/>
</linearGradient>
<linearGradient id="paint26_linear_247_1861" x1="1243.23" y1="229.308" x2="1244.56" y2="139.143" gradientUnits="userSpaceOnUse">
<stop stop-color="#E3E3E3"/>
<stop offset="1" stop-color="white"/>
</linearGradient>
<linearGradient id="paint27_linear_247_1861" x1="-11028.2" y1="38814.9" x2="9074.31" y2="39519.3" gradientUnits="userSpaceOnUse">
<stop stop-color="#E3E3E3"/>
<stop offset="1" stop-color="#D2D2D2"/>
</linearGradient>
<linearGradient id="paint28_linear_247_1861" x1="1621.55" y1="18798.3" x2="1817.16" y2="27256.4" gradientUnits="userSpaceOnUse">
<stop stop-color="#E3E3E3"/>
<stop offset="1" stop-color="#D7D7D7"/>
</linearGradient>
<linearGradient id="paint29_linear_247_1861" x1="338.616" y1="351.574" x2="473.422" y2="240.473" gradientUnits="userSpaceOnUse">
<stop stop-color="#E3E3E3"/>
<stop offset="1" stop-color="#CCCCCC"/>
</linearGradient>
<linearGradient id="paint30_linear_247_1861" x1="353.061" y1="411.604" x2="344.827" y2="203.488" gradientUnits="userSpaceOnUse">
<stop stop-color="#E3E3E3"/>
<stop offset="1" stop-color="#D5D5D5"/>
</linearGradient>
<linearGradient id="paint31_linear_247_1861" x1="775.191" y1="255.879" x2="386.334" y2="455.909" gradientUnits="userSpaceOnUse">
<stop stop-color="#E3E3E3"/>
<stop offset="1" stop-color="#CECECE"/>
</linearGradient>
<linearGradient id="paint32_linear_247_1861" x1="65716.7" y1="20204.5" x2="84138.7" y2="39675.7" gradientUnits="userSpaceOnUse">
<stop stop-color="#E3E3E3"/>
<stop offset="1" stop-color="#CECECE"/>
</linearGradient>
<linearGradient id="paint33_linear_247_1861" x1="76422.2" y1="-12679.9" x2="76392.9" y2="-15553.6" gradientUnits="userSpaceOnUse">
<stop stop-color="#E3E3E3"/>
<stop offset="1" stop-color="#E1E1E1"/>
</linearGradient>
<linearGradient id="paint34_linear_247_1861" x1="66712.4" y1="19022.1" x2="70287.4" y2="31328.6" gradientUnits="userSpaceOnUse">
<stop stop-color="#E3E3E3"/>
<stop offset="1" stop-color="#D5D5D5"/>
</linearGradient>
<linearGradient id="paint35_linear_247_1861" x1="105302" y1="-21178.7" x2="100221" y2="-36173.1" gradientUnits="userSpaceOnUse">
<stop stop-color="#E3E3E3"/>
<stop offset="1" stop-color="#D7D7D7"/>
</linearGradient>
<linearGradient id="paint36_linear_247_1861" x1="1012.82" y1="213.229" x2="950.811" y2="385.434" gradientUnits="userSpaceOnUse">
<stop stop-color="#E3E3E3"/>
<stop offset="1" stop-color="#E9E9E9"/>
</linearGradient>
<linearGradient id="paint37_linear_247_1861" x1="81419.7" y1="-23825.4" x2="89969.2" y2="-28329.8" gradientUnits="userSpaceOnUse">
<stop stop-color="#E3E3E3"/>
<stop offset="1" stop-color="#D5D5D5"/>
</linearGradient>
<linearGradient id="paint38_linear_247_1861" x1="1054.47" y1="310.982" x2="1486.95" y2="285.34" gradientUnits="userSpaceOnUse">
<stop stop-color="#E3E3E3"/>
<stop offset="1" stop-color="#DFDFDF"/>
</linearGradient>
<linearGradient id="paint39_linear_247_1861" x1="26654.9" y1="-3126.2" x2="31468.5" y2="-5480.76" gradientUnits="userSpaceOnUse">
<stop stop-color="#E3E3E3"/>
<stop offset="1" stop-color="#F5F5F5"/>
</linearGradient>
<linearGradient id="paint40_linear_247_1861" x1="27012.3" y1="13895.1" x2="29561.2" y2="18397.4" gradientUnits="userSpaceOnUse">
<stop stop-color="#E3E3E3"/>
<stop offset="1" stop-color="#E3E3E3"/>
</linearGradient>
<linearGradient id="paint41_linear_247_1861" x1="-32.4998" y1="451.631" x2="239.259" y2="493.871" gradientUnits="userSpaceOnUse">
<stop stop-color="#E3E3E3"/>
<stop offset="1" stop-color="#C6C6C6"/>
</linearGradient>
<linearGradient id="paint42_linear_247_1861" x1="2964.53" y1="10038.1" x2="2405.4" y2="13312.6" gradientUnits="userSpaceOnUse">
<stop stop-color="#E3E3E3"/>
<stop offset="1" stop-color="#DDDDDD"/>
</linearGradient>
<linearGradient id="paint43_linear_247_1861" x1="23550.8" y1="-30592.2" x2="19844.4" y2="-15894.1" gradientUnits="userSpaceOnUse">
<stop stop-color="#E3E3E3"/>
<stop offset="1" stop-color="#E3E3E3"/>
</linearGradient>
<linearGradient id="paint44_linear_247_1861" x1="10272.5" y1="19191.6" x2="8273.94" y2="27116.4" gradientUnits="userSpaceOnUse">
<stop stop-color="#E3E3E3"/>
<stop offset="1" stop-color="#E9E9E9"/>
</linearGradient>
<linearGradient id="paint45_linear_247_1861" x1="50726.3" y1="-22178.2" x2="44974.4" y2="-11770.5" gradientUnits="userSpaceOnUse">
<stop stop-color="#E3E3E3"/>
<stop offset="1" stop-color="#E3E3E3"/>
</linearGradient>
<linearGradient id="paint46_linear_247_1861" x1="516.937" y1="311.644" x2="417.161" y2="452.416" gradientUnits="userSpaceOnUse">
<stop stop-color="#E3E3E3"/>
<stop offset="1" stop-color="#F1F1F1"/>
</linearGradient>
<linearGradient id="paint47_linear_247_1861" x1="51685.4" y1="-24147.2" x2="68727.7" y2="-19288" gradientUnits="userSpaceOnUse">
<stop stop-color="#E3E3E3"/>
<stop offset="1" stop-color="#D7D7D7"/>
</linearGradient>
<linearGradient id="paint48_linear_247_1861" x1="818.402" y1="497.15" x2="771.495" y2="326.405" gradientUnits="userSpaceOnUse">
<stop stop-color="#E3E3E3"/>
<stop offset="1" stop-color="#C8C8C8"/>
</linearGradient>
<linearGradient id="paint49_linear_247_1861" x1="87043.5" y1="14140.6" x2="96874.3" y2="28072.1" gradientUnits="userSpaceOnUse">
<stop stop-color="#E3E3E3"/>
<stop offset="1" stop-color="#C8C8C8"/>
</linearGradient>
<linearGradient id="paint50_linear_247_1861" x1="101082" y1="16017.8" x2="101019" y2="29495.5" gradientUnits="userSpaceOnUse">
<stop stop-color="#E3E3E3"/>
<stop offset="1" stop-color="#F9F9F9"/>
</linearGradient>
<linearGradient id="paint51_linear_247_1861" x1="1196.5" y1="490.017" x2="1247.98" y2="392.629" gradientUnits="userSpaceOnUse">
<stop stop-color="#E3E3E3"/>
<stop offset="1" stop-color="#FBFBFB"/>
</linearGradient>
<linearGradient id="paint52_linear_247_1861" x1="1297.24" y1="569.338" x2="1531.08" y2="387.986" gradientUnits="userSpaceOnUse">
<stop stop-color="#E3E3E3"/>
<stop offset="1" stop-color="#BCBCBC"/>
</linearGradient>
<linearGradient id="paint53_linear_247_1861" x1="62363.6" y1="-16423.5" x2="68829.5" y2="-35088.8" gradientUnits="userSpaceOnUse">
<stop stop-color="#E3E3E3"/>
<stop offset="1" stop-color="#CECECE"/>
</linearGradient>
<linearGradient id="paint54_linear_247_1861" x1="-132.631" y1="-5143.88" x2="-5464.83" y2="-1238.07" gradientUnits="userSpaceOnUse">
<stop stop-color="#E3E3E3"/>
<stop offset="1" stop-color="#D0D0D0"/>
</linearGradient>
<linearGradient id="paint55_linear_247_1861" x1="2904.11" y1="-11602.3" x2="7909.7" y2="-6980.2" gradientUnits="userSpaceOnUse">
<stop stop-color="#E3E3E3"/>
<stop offset="1" stop-color="#EFEFEF"/>
</linearGradient>
<linearGradient id="paint56_linear_247_1861" x1="9416.6" y1="13389.9" x2="4571.41" y2="4313.73" gradientUnits="userSpaceOnUse">
<stop stop-color="#E3E3E3"/>
<stop offset="1" stop-color="#D9D9D9"/>
</linearGradient>
<linearGradient id="paint57_linear_247_1861" x1="11679.8" y1="13175.4" x2="53837.9" y2="32027.1" gradientUnits="userSpaceOnUse">
<stop stop-color="#E3E3E3"/>
<stop offset="1" stop-color="#D5D5D5"/>
</linearGradient>
<linearGradient id="paint58_linear_247_1861" x1="19124.4" y1="-6053.35" x2="21524.4" y2="-17994.3" gradientUnits="userSpaceOnUse">
<stop stop-color="#E3E3E3"/>
<stop offset="1" stop-color="#DFDFDF"/>
</linearGradient>
<linearGradient id="paint59_linear_247_1861" x1="27612" y1="-9505.29" x2="29486.8" y2="-7234.56" gradientUnits="userSpaceOnUse">
<stop stop-color="#E3E3E3"/>
<stop offset="1" stop-color="#D9D9D9"/>
</linearGradient>
<linearGradient id="paint60_linear_247_1861" x1="46870.2" y1="-9921.54" x2="44621" y2="-19641.9" gradientUnits="userSpaceOnUse">
<stop stop-color="#E3E3E3"/>
<stop offset="1" stop-color="#E3E3E3"/>
</linearGradient>
<linearGradient id="paint61_linear_247_1861" x1="93333.2" y1="-7283.9" x2="83661.1" y2="9800.43" gradientUnits="userSpaceOnUse">
<stop stop-color="#E3E3E3"/>
<stop offset="1" stop-color="#E1E1E1"/>
</linearGradient>
<linearGradient id="paint62_linear_247_1861" x1="723.045" y1="687.46" x2="775.576" y2="539.004" gradientUnits="userSpaceOnUse">
<stop stop-color="#E3E3E3"/>
<stop offset="1" stop-color="#C0C0C0"/>
</linearGradient>
<linearGradient id="paint63_linear_247_1861" x1="119748" y1="-6207.58" x2="117232" y2="-19341.8" gradientUnits="userSpaceOnUse">
<stop stop-color="#E3E3E3"/>
<stop offset="1" stop-color="#E1E1E1"/>
</linearGradient>
<linearGradient id="paint64_linear_247_1861" x1="66950" y1="-10494.8" x2="74661.8" y2="-21188.1" gradientUnits="userSpaceOnUse">
<stop stop-color="#E3E3E3"/>
<stop offset="1" stop-color="white"/>
</linearGradient>
<linearGradient id="paint65_linear_247_1861" x1="53020.2" y1="8477.3" x2="52309.9" y2="6091.73" gradientUnits="userSpaceOnUse">
<stop stop-color="#E3E3E3"/>
<stop offset="1" stop-color="#D0D0D0"/>
</linearGradient>
<linearGradient id="paint66_linear_247_1861" x1="58442.6" y1="15282.9" x2="57050.5" y2="11618.2" gradientUnits="userSpaceOnUse">
<stop stop-color="#E3E3E3"/>
<stop offset="1" stop-color="#C4C4C4"/>
</linearGradient>
<linearGradient id="paint67_linear_247_1861" x1="26580.2" y1="3218.43" x2="32585.8" y2="5316.1" gradientUnits="userSpaceOnUse">
<stop stop-color="#E3E3E3"/>
<stop offset="1" stop-color="#EDEDED"/>
</linearGradient>
<linearGradient id="paint68_linear_247_1861" x1="66070.4" y1="7876.68" x2="63241" y2="13526.3" gradientUnits="userSpaceOnUse">
<stop stop-color="#E3E3E3"/>
<stop offset="1" stop-color="#DDDDDD"/>
</linearGradient>
<linearGradient id="paint69_linear_247_1861" x1="-1131.22" y1="3992.78" x2="151.407" y2="2776.06" gradientUnits="userSpaceOnUse">
<stop stop-color="#E3E3E3"/>
<stop offset="1" stop-color="#D7D7D7"/>
</linearGradient>
<linearGradient id="paint70_linear_247_1861" x1="-5868.48" y1="-387.921" x2="-1043.4" y2="-3113.17" gradientUnits="userSpaceOnUse">
<stop stop-color="#E3E3E3"/>
<stop offset="1" stop-color="#F5F5F5"/>
</linearGradient>
<linearGradient id="paint71_linear_247_1861" x1="3536.27" y1="8014.54" x2="-7074.78" y2="-4381.61" gradientUnits="userSpaceOnUse">
<stop stop-color="#E3E3E3"/>
<stop offset="1" stop-color="#F3F3F3"/>
</linearGradient>
<linearGradient id="paint72_linear_247_1861" x1="21532.9" y1="6659.86" x2="43052.1" y2="533.214" gradientUnits="userSpaceOnUse">
<stop stop-color="#E3E3E3"/>
<stop offset="1" stop-color="#DFDFDF"/>
</linearGradient>
<linearGradient id="paint73_linear_247_1861" x1="46596.7" y1="215.018" x2="43724.8" y2="-14087.6" gradientUnits="userSpaceOnUse">
<stop stop-color="#E3E3E3"/>
<stop offset="1" stop-color="#FBFBFB"/>
</linearGradient>
<linearGradient id="paint74_linear_247_1861" x1="29544.1" y1="2924.76" x2="43559.3" y2="4085.38" gradientUnits="userSpaceOnUse">
<stop stop-color="#E3E3E3"/>
<stop offset="1" stop-color="white"/>
</linearGradient>
<linearGradient id="paint75_linear_247_1861" x1="11435.5" y1="-5721.36" x2="12457.3" y2="12508.4" gradientUnits="userSpaceOnUse">
<stop stop-color="#E3E3E3"/>
<stop offset="1" stop-color="#F3F3F3"/>
</linearGradient>
<linearGradient id="paint76_linear_247_1861" x1="744.527" y1="818.599" x2="863.063" y2="673.911" gradientUnits="userSpaceOnUse">
<stop stop-color="#E3E3E3"/>
<stop offset="1" stop-color="#EBEBEB"/>
</linearGradient>
<linearGradient id="paint77_linear_247_1861" x1="83206.8" y1="3081.71" x2="76649.4" y2="-16990.7" gradientUnits="userSpaceOnUse">
<stop stop-color="#E3E3E3"/>
<stop offset="1" stop-color="#CECECE"/>
</linearGradient>
<linearGradient id="paint78_linear_247_1861" x1="95794.3" y1="-8854.48" x2="105627" y2="2345.68" gradientUnits="userSpaceOnUse">
<stop stop-color="#E3E3E3"/>
<stop offset="1" stop-color="#D2D2D2"/>
</linearGradient>
<linearGradient id="paint79_linear_247_1861" x1="95892.3" y1="-6387.93" x2="129317" y2="7275.12" gradientUnits="userSpaceOnUse">
<stop stop-color="#E3E3E3"/>
<stop offset="1" stop-color="#E3E3E3"/>
</linearGradient>
<linearGradient id="paint80_linear_247_1861" x1="93336.6" y1="1563.19" x2="95035" y2="-7024.98" gradientUnits="userSpaceOnUse">
<stop stop-color="#E3E3E3"/>
<stop offset="1" stop-color="#EBEBEB"/>
</linearGradient>
<linearGradient id="paint81_linear_247_1861" x1="1338.09" y1="635.691" x2="1176.62" y2="830.761" gradientUnits="userSpaceOnUse">
<stop stop-color="#E3E3E3"/>
<stop offset="1" stop-color="#DBDBDB"/>
</linearGradient>
<linearGradient id="paint82_linear_247_1861" x1="63238.6" y1="-865.504" x2="63943.6" y2="-6196.08" gradientUnits="userSpaceOnUse">
<stop stop-color="#E3E3E3"/>
<stop offset="1" stop-color="#CCCCCC"/>
</linearGradient>
<linearGradient id="paint83_linear_247_1861" x1="61204" y1="-2168.98" x2="64328" y2="6481.24" gradientUnits="userSpaceOnUse">
<stop stop-color="#E3E3E3"/>
<stop offset="1" stop-color="#EFEFEF"/>
</linearGradient>
<linearGradient id="paint84_linear_247_1861" x1="963.304" y1="733.469" x2="827.686" y2="1041.14" gradientUnits="userSpaceOnUse">
<stop stop-color="#E3E3E3"/>
<stop offset="1" stop-color="#CACACA"/>
</linearGradient>
<linearGradient id="paint85_linear_247_1861" x1="33891.7" y1="7137.18" x2="34453" y2="2404.82" gradientUnits="userSpaceOnUse">
<stop stop-color="#E3E3E3"/>
<stop offset="1" stop-color="#F1F1F1"/>
</linearGradient>
<linearGradient id="paint86_linear_247_1861" x1="64334.9" y1="-5792.2" x2="65013" y2="1646.5" gradientUnits="userSpaceOnUse">
<stop stop-color="#E3E3E3"/>
<stop offset="1" stop-color="#EDEDED"/>
</linearGradient>
<linearGradient id="paint87_linear_247_1861" x1="56396.4" y1="754.485" x2="62386.3" y2="-2635.05" gradientUnits="userSpaceOnUse">
<stop stop-color="#E3E3E3"/>
<stop offset="1" stop-color="#EDEDED"/>
</linearGradient>
<linearGradient id="paint88_linear_247_1861" x1="64475.6" y1="-287.244" x2="64450.1" y2="731.814" gradientUnits="userSpaceOnUse">
<stop/>
<stop offset="1" stop-color="#F3F3F3"/>
</linearGradient>
<linearGradient id="paint89_linear_247_1861" x1="20727.9" y1="-37650.2" x2="18155.8" y2="-49764.7" gradientUnits="userSpaceOnUse">
<stop stop-color="#E70082"/>
<stop offset="1" stop-color="#E70082" stop-opacity="0.63"/>
</linearGradient>
<linearGradient id="paint90_linear_247_1861" x1="1417.6" y1="393.342" x2="1242" y2="562.668" gradientUnits="userSpaceOnUse">
<stop stop-color="#E70082"/>
<stop offset="1" stop-color="#E70082" stop-opacity="0.8"/>
</linearGradient>
</defs>
</svg>
