<svg width="1440" height="900" viewBox="0 0 1440 900" fill="none" xmlns="http://www.w3.org/2000/svg">
<path opacity="0.4" d="M211.433 0L226.183 3.99611L227.071 0H211.433Z" fill="url(#paint0_linear_247_376)"/>
<path opacity="0.4" d="M230.651 0L226.183 3.99611L305.168 0H230.651Z" fill="url(#paint1_linear_247_376)"/>
<path opacity="0.4" d="M766.99 0L796.337 0.656894L795.511 0H766.99Z" fill="url(#paint2_linear_247_376)"/>
<path opacity="0.4" d="M226.183 3.99597L0 64.6218V70.5612L72.6197 55.6443L226.183 3.99597Z" fill="url(#paint3_linear_247_376)"/>
<path opacity="0.4" d="M0 64.622L226.152 3.99611L211.432 0H0V64.622Z" fill="url(#paint4_linear_247_376)"/>
<path opacity="0.4" d="M403.341 0L72.6196 55.6444L362.976 92.2663L439.604 0H403.341Z" fill="url(#paint5_linear_247_376)"/>
<path opacity="0.4" d="M305.168 0L226.183 3.99611L72.6196 55.6444L403.341 0H305.168Z" fill="url(#paint6_linear_247_376)"/>
<path opacity="0.4" d="M796.338 0.656888L362.946 92.2662L769.438 61.3375L796.338 0.629517V0.656888Z" fill="url(#paint7_linear_247_376)"/>
<path opacity="0.4" d="M766.99 0H439.605L362.976 92.2663L796.338 0.656894L766.99 0Z" fill="url(#paint8_linear_247_376)"/>
<path opacity="0.4" d="M864.948 0L769.438 61.3375L874.313 156.56L911.923 0H864.948Z" fill="url(#paint9_linear_247_376)"/>
<path opacity="0.4" d="M798.571 0L796.337 0.656894L769.438 61.3375L864.948 0H798.571Z" fill="url(#paint10_linear_247_376)"/>
<path opacity="0.4" d="M1068.39 0L874.312 156.56L1052.33 153.522L1082.56 0H1068.39Z" fill="url(#paint11_linear_247_376)"/>
<path opacity="0.4" d="M911.923 0L874.312 156.56L1068.39 0H911.923Z" fill="url(#paint12_linear_247_376)"/>
<path opacity="0.4" d="M1216.17 0L1052.33 153.522L1440 97.3846V9.79867L1429.63 0H1216.17Z" fill="url(#paint13_linear_247_376)"/>
<path opacity="0.4" d="M1082.56 0L1052.33 153.522L1216.17 0H1082.56Z" fill="url(#paint14_linear_247_376)"/>
<path opacity="0.4" d="M1429.62 0L1440 9.79867V0H1429.62Z" fill="url(#paint15_linear_247_376)"/>
<path opacity="0.4" d="M0 278.195L181.35 234.484L72.6197 55.6443H72.5891L0 159.187V278.195Z" fill="url(#paint16_linear_247_376)"/>
<path opacity="0.4" d="M0 159.187L72.5891 55.6443L0 70.5613V159.187Z" fill="url(#paint17_linear_247_376)"/>
<path opacity="0.4" d="M362.945 92.2661L181.32 234.593L504.084 310.054L362.945 92.2661Z" fill="url(#paint18_linear_247_376)"/>
<path opacity="0.4" d="M769.407 61.3376L504.084 310.054L767.479 268.998L769.438 61.3102L769.407 61.3376Z" fill="url(#paint19_linear_247_376)"/>
<path opacity="0.4" d="M769.408 61.3375L504.084 310.054L362.946 92.2663L769.438 61.3375H769.408Z" fill="url(#paint20_linear_247_376)"/>
<path opacity="0.4" d="M874.282 156.505L767.48 269.025L923.552 328.064L874.313 156.532L874.282 156.505Z" fill="url(#paint21_linear_247_376)"/>
<path opacity="0.4" d="M874.282 156.505L767.48 269.026L769.438 61.3375L874.313 156.532L874.282 156.505Z" fill="url(#paint22_linear_247_376)"/>
<path opacity="0.4" d="M1052.33 153.522L923.522 328.201L1049.48 252.849L1052.3 153.494L1052.33 153.522Z" fill="url(#paint23_linear_247_376)"/>
<path opacity="0.4" d="M1052.33 153.522L923.521 328.201L874.312 156.532L1052.3 153.494L1052.33 153.522Z" fill="url(#paint24_linear_247_376)"/>
<path opacity="0.4" d="M1440 114.217L1049.48 252.849L1440 241.135V114.217Z" fill="url(#paint25_linear_247_376)"/>
<path opacity="0.4" d="M1440 97.3843L1052.33 153.521L1049.48 252.849L1440 114.217V97.3843Z" fill="url(#paint26_linear_247_376)"/>
<path opacity="0.4" d="M0 471.103L199.498 466.422L181.35 234.484L0 383.9V471.103Z" fill="url(#paint27_linear_247_376)"/>
<path opacity="0.4" d="M0 383.9L181.381 234.456L181.35 234.484L0 278.195V383.9Z" fill="url(#paint28_linear_247_376)"/>
<path opacity="0.4" d="M504.115 310.054L199.497 466.395L328.426 383.38L504.084 310.054H504.115Z" fill="url(#paint29_linear_247_376)"/>
<path opacity="0.4" d="M504.115 310.054L199.498 466.395L181.32 234.456L504.084 310.054H504.115Z" fill="url(#paint30_linear_247_376)"/>
<path opacity="0.4" d="M767.479 269.025L328.426 383.38L603.022 416.224L767.479 269.108V269.025Z" fill="url(#paint31_linear_247_376)"/>
<path opacity="0.4" d="M767.479 269.026L328.426 383.38L504.084 310.054L767.479 268.998V269.026Z" fill="url(#paint32_linear_247_376)"/>
<path opacity="0.4" d="M923.491 328.201L603.022 416.143L929.336 421.754L923.522 328.201H923.491Z" fill="url(#paint33_linear_247_376)"/>
<path opacity="0.4" d="M923.491 328.201L603.022 416.142L767.48 269.025L923.552 328.064L923.491 328.201Z" fill="url(#paint34_linear_247_376)"/>
<path opacity="0.4" d="M1049.45 252.849L929.336 421.753L1228.32 434.481L1049.48 252.849H1049.45Z" fill="url(#paint35_linear_247_376)"/>
<path opacity="0.4" d="M1049.45 252.849L929.336 421.753L923.522 328.201L1049.48 252.849H1049.45Z" fill="url(#paint36_linear_247_376)"/>
<path opacity="0.4" d="M1440 272.584L1228.35 434.481L1381.76 399.474L1440 307.454V272.584Z" fill="url(#paint37_linear_247_376)"/>
<path opacity="0.4" d="M1440 241.135L1049.48 252.849L1228.35 434.481L1440 272.584V241.135Z" fill="url(#paint38_linear_247_376)"/>
<path opacity="0.4" d="M1440 376.099L1381.76 399.474L1440 392.987V376.099Z" fill="url(#paint39_linear_247_376)"/>
<path opacity="0.4" d="M1440 307.454L1381.76 399.474L1440 376.099V307.454Z" fill="url(#paint40_linear_247_376)"/>
<path opacity="0.4" d="M0 571.662L233.895 590.055L199.498 466.422L0 550.888V571.662Z" fill="url(#paint41_linear_247_376)"/>
<path opacity="0.4" d="M0 550.888L199.498 466.422L0 471.102V550.888Z" fill="url(#paint42_linear_247_376)"/>
<path opacity="0.4" d="M328.456 383.352L233.864 590.055L446.184 528.17L328.426 383.379L328.456 383.352Z" fill="url(#paint43_linear_247_376)"/>
<path opacity="0.4" d="M328.456 383.352L233.864 590.055L199.497 466.394L328.426 383.379L328.456 383.352Z" fill="url(#paint44_linear_247_376)"/>
<path opacity="0.4" d="M603.022 416.142L446.184 528.17L698.379 591.944L603.022 416.142Z" fill="url(#paint45_linear_247_376)"/>
<path opacity="0.4" d="M603.022 416.143L446.184 528.17L328.426 383.38L603.022 416.225V416.143Z" fill="url(#paint46_linear_247_376)"/>
<path opacity="0.4" d="M929.366 421.726L698.379 591.943L931.815 624.788L929.336 421.835L929.366 421.726Z" fill="url(#paint47_linear_247_376)"/>
<path opacity="0.4" d="M929.367 421.726L698.379 591.944L603.022 416.142L929.336 421.753L929.367 421.726Z" fill="url(#paint48_linear_247_376)"/>
<path opacity="0.4" d="M1228.35 434.453L931.815 624.706L1143.37 515.799L1228.32 434.481L1228.35 434.453Z" fill="url(#paint49_linear_247_376)"/>
<path opacity="0.4" d="M1228.35 434.454L931.815 624.707L929.336 421.754L1228.32 434.481L1228.35 434.454Z" fill="url(#paint50_linear_247_376)"/>
<path opacity="0.4" d="M1381.73 399.364L1143.37 515.689L1228.32 434.371L1381.76 399.364H1381.73Z" fill="url(#paint51_linear_247_376)"/>
<path opacity="0.4" d="M1440 535.424L1296.02 633.985L1440 577.437V535.424Z" fill="url(#paint52_linear_247_376)"/>
<path opacity="0.4" d="M1440 392.987L1381.76 399.474L1296.02 633.985L1440 535.423V392.987Z" fill="url(#paint53_linear_247_376)"/>
<path opacity="0.4" d="M0 626.458V701.399L47.036 692.339L0 626.458Z" fill="url(#paint54_linear_247_376)"/>
<path opacity="0.4" d="M233.895 590.055L47.0362 692.229L162.438 741.004L233.864 589.946L233.895 590.055Z" fill="url(#paint55_linear_247_376)"/>
<path opacity="0.4" d="M233.895 590.055L0 571.662V626.458L47.036 692.339L233.895 590.083V590.055Z" fill="url(#paint56_linear_247_376)"/>
<path opacity="0.4" d="M446.215 528.142L162.438 741.113L549.315 687.193L446.184 528.17L446.215 528.142Z" fill="url(#paint57_linear_247_376)"/>
<path opacity="0.4" d="M446.215 528.142L162.438 741.113L233.864 590.055L446.184 528.17L446.215 528.142Z" fill="url(#paint58_linear_247_376)"/>
<path opacity="0.4" d="M698.348 591.916L549.314 687.193L607.459 721.954L698.379 591.944L698.348 591.916Z" fill="url(#paint59_linear_247_376)"/>
<path opacity="0.4" d="M698.349 591.916L549.315 687.193L446.184 528.17L698.379 591.944L698.349 591.916Z" fill="url(#paint60_linear_247_376)"/>
<path opacity="0.4" d="M931.815 624.707L607.429 721.954L917.034 664.257L931.784 624.707H931.815Z" fill="url(#paint61_linear_247_376)"/>
<path opacity="0.4" d="M931.815 624.706L607.429 721.954L698.349 591.944L931.784 624.788L931.815 624.706Z" fill="url(#paint62_linear_247_376)"/>
<path opacity="0.4" d="M1143.4 515.826L916.942 664.257L1259.11 700.277L1143.25 515.799L1143.4 515.826Z" fill="url(#paint63_linear_247_376)"/>
<path opacity="0.4" d="M1143.4 515.826L916.942 664.257L931.692 624.706L1143.25 515.799L1143.4 515.826Z" fill="url(#paint64_linear_247_376)"/>
<path opacity="0.4" d="M1295.98 633.985L1259.26 700.277L1381.67 749.982L1295.98 633.985Z" fill="url(#paint65_linear_247_376)"/>
<path opacity="0.4" d="M1295.98 633.985L1259.26 700.277L1143.4 515.799L1296.01 633.985H1295.98Z" fill="url(#paint66_linear_247_376)"/>
<path opacity="0.4" d="M1440 687.44L1381.55 750.009L1440 737.638V687.44Z" fill="url(#paint67_linear_247_376)"/>
<path opacity="0.4" d="M1440 577.437L1296.02 633.985L1381.55 750.009L1440 687.439V577.437Z" fill="url(#paint68_linear_247_376)"/>
<path opacity="0.4" d="M0 750.583L47.036 692.339L47.0054 692.311L0 720.695V750.583Z" fill="url(#paint69_linear_247_376)"/>
<path opacity="0.4" d="M0 701.398V720.695L46.9748 692.339L0 701.398Z" fill="url(#paint70_linear_247_376)"/>
<path opacity="0.4" d="M0 750.583V836.363L162.438 741.113L47.036 692.339L0 750.583Z" fill="url(#paint71_linear_247_376)"/>
<path opacity="0.4" d="M542.949 899.999L549.314 687.22L291.182 899.999H542.949Z" fill="url(#paint72_linear_247_376)"/>
<path opacity="0.4" d="M291.183 900L549.315 687.194L162.438 741.141L264.865 900H291.183Z" fill="url(#paint73_linear_247_376)"/>
<path opacity="0.4" d="M742.355 900L607.459 721.981L555.863 900H742.355Z" fill="url(#paint74_linear_247_376)"/>
<path opacity="0.4" d="M555.863 900L607.459 721.982L549.314 687.194L542.949 900H555.863Z" fill="url(#paint75_linear_247_376)"/>
<path opacity="0.4" d="M835.906 900L965.324 819.968L917.064 664.257L917.034 664.284L792.941 900H835.906Z" fill="url(#paint76_linear_247_376)"/>
<path opacity="0.4" d="M792.941 900L917.034 664.284L917.064 664.257L607.459 721.981L742.355 900H792.941Z" fill="url(#paint77_linear_247_376)"/>
<path opacity="0.4" d="M1259.2 700.441L965.416 820.105L1142.67 896.332L1259.32 700.413L1259.2 700.441Z" fill="url(#paint78_linear_247_376)"/>
<path opacity="0.4" d="M1259.2 700.441L965.416 820.105L917.156 664.394L1259.32 700.414L1259.2 700.441Z" fill="url(#paint79_linear_247_376)"/>
<path opacity="0.4" d="M1381.58 750.009L1142.57 896.195L1297.97 897.509L1381.43 750.064L1381.58 750.009Z" fill="url(#paint80_linear_247_376)"/>
<path opacity="0.4" d="M1381.58 750.009L1142.57 896.195L1259.23 700.276L1381.64 749.981L1381.58 750.009Z" fill="url(#paint81_linear_247_376)"/>
<path opacity="0.4" d="M1440 822.541L1298.13 897.454L1440 884.152V822.541Z" fill="url(#paint82_linear_247_376)"/>
<path opacity="0.4" d="M1440 737.637L1381.55 750.009L1298.13 897.454L1440 822.541V737.637Z" fill="url(#paint83_linear_247_376)"/>
<path opacity="0.4" d="M931.294 899.999L965.324 819.995L895.673 899.999H931.294Z" fill="url(#paint84_linear_247_376)"/>
<path opacity="0.4" d="M895.673 899.999L965.324 819.995V819.968L835.906 899.999H895.673Z" fill="url(#paint85_linear_247_376)"/>
<path opacity="0.4" d="M1136.7 899.999L1142.6 896.222L1142.57 896.195L965.325 819.968L931.295 899.999H1136.7Z" fill="url(#paint86_linear_247_376)"/>
<path opacity="0.4" d="M1294.73 900L1298.13 897.454L1142.57 896.195L1143.61 900H1294.73Z" fill="url(#paint87_linear_247_376)"/>
<path opacity="0.4" d="M1440 900V884.152L1298.13 897.455L1299.11 900H1440Z" fill="url(#paint88_linear_247_376)"/>
<path d="M364.444 92.2661L182.819 234.593L74.1187 55.6443L364.444 92.2661Z" fill="url(#paint89_linear_247_376)"/>
<path d="M1383.23 399.364L1144.87 515.689L1297.48 633.876L1383.17 399.364H1383.23Z" fill="url(#paint90_linear_247_376)"/>
<path d="M266.364 900L163.937 741.141V741.113L1.49921 836.363V900H266.364Z" fill="url(#paint91_linear_247_376)"/>
<defs>
<linearGradient id="paint0_linear_247_376" x1="403.8" y1="-130.01" x2="109.314" y2="132.673" gradientUnits="userSpaceOnUse">
<stop stop-color="#E3E3E3"/>
<stop offset="1" stop-color="#EDEDED"/>
</linearGradient>
<linearGradient id="paint1_linear_247_376" x1="226.091" y1="2.98339" x2="438.594" y2="-16.0105" gradientUnits="userSpaceOnUse">
<stop stop-color="#E3E3E3"/>
<stop offset="1" stop-color="#E3E3E3"/>
</linearGradient>
<linearGradient id="paint2_linear_247_376" x1="445.663" y1="-10.5103" x2="796.23" y2="3.20614" gradientUnits="userSpaceOnUse">
<stop stop-color="#E3E3E3"/>
<stop offset="1" stop-color="#E1E1E1"/>
</linearGradient>
<linearGradient id="paint3_linear_247_376" x1="69.9879" y1="54.8232" x2="207.687" y2="-27.117" gradientUnits="userSpaceOnUse">
<stop stop-color="#E3E3E3"/>
<stop offset="1" stop-color="#DDDDDD"/>
</linearGradient>
<linearGradient id="paint4_linear_247_376" x1="107.078" y1="99.7384" x2="115.357" y2="-69.5402" gradientUnits="userSpaceOnUse">
<stop stop-color="#E3E3E3"/>
<stop offset="1" stop-color="#D2D2D2"/>
</linearGradient>
<linearGradient id="paint5_linear_247_376" x1="85.595" y1="-2.6002" x2="377.927" y2="62.6071" gradientUnits="userSpaceOnUse">
<stop stop-color="#E3E3E3"/>
<stop offset="1" stop-color="#D9D9D9"/>
</linearGradient>
<linearGradient id="paint6_linear_247_376" x1="4467.9" y1="15530.4" x2="6333.51" y2="21429.8" gradientUnits="userSpaceOnUse">
<stop stop-color="#E3E3E3"/>
<stop offset="1" stop-color="#D9D9D9"/>
</linearGradient>
<linearGradient id="paint7_linear_247_376" x1="360.834" y1="76.4187" x2="761.277" y2="22.5497" gradientUnits="userSpaceOnUse">
<stop stop-color="#E3E3E3"/>
<stop offset="1" stop-color="#F5F5F5"/>
</linearGradient>
<linearGradient id="paint8_linear_247_376" x1="65015.4" y1="-22638.3" x2="65607.3" y2="-27929.4" gradientUnits="userSpaceOnUse">
<stop stop-color="#E3E3E3"/>
<stop offset="1" stop-color="#F5F5F5"/>
</linearGradient>
<linearGradient id="paint9_linear_247_376" x1="37629" y1="46916.3" x2="41339.5" y2="42065.6" gradientUnits="userSpaceOnUse">
<stop stop-color="#E3E3E3"/>
<stop offset="1" stop-color="#EDEDED"/>
</linearGradient>
<linearGradient id="paint10_linear_247_376" x1="24383.5" y1="18831.2" x2="27188.9" y2="20853.8" gradientUnits="userSpaceOnUse">
<stop stop-color="#E3E3E3"/>
<stop offset="1" stop-color="#DDDDDD"/>
</linearGradient>
<linearGradient id="paint11_linear_247_376" x1="56441.6" y1="44499" x2="68432.3" y2="44925.3" gradientUnits="userSpaceOnUse">
<stop stop-color="#E3E3E3"/>
<stop offset="1" stop-color="#EDEDED"/>
</linearGradient>
<linearGradient id="paint12_linear_247_376" x1="62912.2" y1="51990.4" x2="54694.2" y2="38995.1" gradientUnits="userSpaceOnUse">
<stop stop-color="#E3E3E3"/>
<stop offset="1" stop-color="#D9D9D9"/>
</linearGradient>
<linearGradient id="paint13_linear_247_376" x1="1332.89" y1="197.725" x2="1199.07" y2="-26.1729" gradientUnits="userSpaceOnUse">
<stop stop-color="#E3E3E3"/>
<stop offset="1" stop-color="#C2C2C2"/>
</linearGradient>
<linearGradient id="paint14_linear_247_376" x1="1255.9" y1="-141.232" x2="1071.16" y2="164.88" gradientUnits="userSpaceOnUse">
<stop stop-color="#E3E3E3"/>
<stop offset="1" stop-color="#EFEFEF"/>
</linearGradient>
<linearGradient id="paint15_linear_247_376" x1="6399.71" y1="2659.95" x2="5858.21" y2="3517.97" gradientUnits="userSpaceOnUse">
<stop stop-color="#E3E3E3"/>
<stop offset="1" stop-color="#E3E3E3"/>
</linearGradient>
<linearGradient id="paint16_linear_247_376" x1="-130.152" y1="232.787" x2="132.784" y2="120.632" gradientUnits="userSpaceOnUse">
<stop stop-color="#E3E3E3"/>
<stop offset="1" stop-color="#F3F3F3"/>
</linearGradient>
<linearGradient id="paint17_linear_247_376" x1="45.3529" y1="44.8329" x2="-62.7023" y2="317.394" gradientUnits="userSpaceOnUse">
<stop stop-color="#E3E3E3"/>
<stop offset="1" stop-color="#D7D7D7"/>
</linearGradient>
<linearGradient id="paint18_linear_247_376" x1="380.726" y1="355.243" x2="293.668" y2="117.65" gradientUnits="userSpaceOnUse">
<stop stop-color="#E3E3E3"/>
<stop offset="1" stop-color="#B0B0B0"/>
</linearGradient>
<linearGradient id="paint19_linear_247_376" x1="37449.3" y1="-56459.7" x2="58329.3" y2="-61953.2" gradientUnits="userSpaceOnUse">
<stop stop-color="#E3E3E3"/>
<stop offset="1" stop-color="#EDEDED"/>
</linearGradient>
<linearGradient id="paint20_linear_247_376" x1="43252" y1="-58393.4" x2="95769.8" y2="-68723.5" gradientUnits="userSpaceOnUse">
<stop stop-color="#E3E3E3"/>
<stop offset="1" stop-color="#D9D9D9"/>
</linearGradient>
<linearGradient id="paint21_linear_247_376" x1="923.216" y1="182.781" x2="852.41" y2="314.608" gradientUnits="userSpaceOnUse">
<stop stop-color="#E3E3E3"/>
<stop offset="1" stop-color="#F9F9F9"/>
</linearGradient>
<linearGradient id="paint22_linear_247_376" x1="24127.7" y1="-57561.4" x2="29245.9" y2="-53782.6" gradientUnits="userSpaceOnUse">
<stop stop-color="#E3E3E3"/>
<stop offset="1" stop-color="#EFEFEF"/>
</linearGradient>
<linearGradient id="paint23_linear_247_376" x1="913.882" y1="318.922" x2="1004.44" y2="223.305" gradientUnits="userSpaceOnUse">
<stop stop-color="#E3E3E3"/>
<stop offset="1" stop-color="#D0D0D0"/>
</linearGradient>
<linearGradient id="paint24_linear_247_376" x1="54645.4" y1="47126.8" x2="49129.2" y2="35080.1" gradientUnits="userSpaceOnUse">
<stop stop-color="#E3E3E3"/>
<stop offset="1" stop-color="#F9F9F9"/>
</linearGradient>
<linearGradient id="paint25_linear_247_376" x1="127491" y1="33787.9" x2="181527" y2="41002.2" gradientUnits="userSpaceOnUse">
<stop stop-color="#E3E3E3"/>
<stop offset="1" stop-color="#DDDDDD"/>
</linearGradient>
<linearGradient id="paint26_linear_247_376" x1="1243.23" y1="256.052" x2="1244.89" y2="155.376" gradientUnits="userSpaceOnUse">
<stop stop-color="#E3E3E3"/>
<stop offset="1" stop-color="white"/>
</linearGradient>
<linearGradient id="paint27_linear_247_376" x1="-11028.2" y1="43341.7" x2="9079.2" y2="43972.7" gradientUnits="userSpaceOnUse">
<stop stop-color="#E3E3E3"/>
<stop offset="1" stop-color="#D2D2D2"/>
</linearGradient>
<linearGradient id="paint28_linear_247_376" x1="1621.55" y1="20990.7" x2="1865.42" y2="30434" gradientUnits="userSpaceOnUse">
<stop stop-color="#E3E3E3"/>
<stop offset="1" stop-color="#D7D7D7"/>
</linearGradient>
<linearGradient id="paint29_linear_247_376" x1="338.616" y1="392.576" x2="485.157" y2="284.418" gradientUnits="userSpaceOnUse">
<stop stop-color="#E3E3E3"/>
<stop offset="1" stop-color="#CCCCCC"/>
</linearGradient>
<linearGradient id="paint30_linear_247_376" x1="353.061" y1="459.607" x2="342.799" y2="227.309" gradientUnits="userSpaceOnUse">
<stop stop-color="#E3E3E3"/>
<stop offset="1" stop-color="#D5D5D5"/>
</linearGradient>
<linearGradient id="paint31_linear_247_376" x1="775.191" y1="285.721" x2="369.529" y2="472.601" gradientUnits="userSpaceOnUse">
<stop stop-color="#E3E3E3"/>
<stop offset="1" stop-color="#CECECE"/>
</linearGradient>
<linearGradient id="paint32_linear_247_376" x1="65716.7" y1="22560.8" x2="86287.7" y2="42032.5" gradientUnits="userSpaceOnUse">
<stop stop-color="#E3E3E3"/>
<stop offset="1" stop-color="#CECECE"/>
</linearGradient>
<linearGradient id="paint33_linear_247_376" x1="76422.1" y1="-14158.7" x2="76385.6" y2="-17367.5" gradientUnits="userSpaceOnUse">
<stop stop-color="#E3E3E3"/>
<stop offset="1" stop-color="#E1E1E1"/>
</linearGradient>
<linearGradient id="paint34_linear_247_376" x1="66712.4" y1="21240.5" x2="71085.9" y2="34723.3" gradientUnits="userSpaceOnUse">
<stop stop-color="#E3E3E3"/>
<stop offset="1" stop-color="#D5D5D5"/>
</linearGradient>
<linearGradient id="paint35_linear_247_376" x1="105302" y1="-23648.6" x2="99123.8" y2="-39976.5" gradientUnits="userSpaceOnUse">
<stop stop-color="#E3E3E3"/>
<stop offset="1" stop-color="#D7D7D7"/>
</linearGradient>
<linearGradient id="paint36_linear_247_376" x1="1012.82" y1="238.097" x2="937.634" y2="425.087" gradientUnits="userSpaceOnUse">
<stop stop-color="#E3E3E3"/>
<stop offset="1" stop-color="#E9E9E9"/>
</linearGradient>
<linearGradient id="paint37_linear_247_376" x1="81419.7" y1="-26604" x2="90353.4" y2="-30819.3" gradientUnits="userSpaceOnUse">
<stop stop-color="#E3E3E3"/>
<stop offset="1" stop-color="#D5D5D5"/>
</linearGradient>
<linearGradient id="paint38_linear_247_376" x1="1054.47" y1="347.251" x2="1487.25" y2="324.27" gradientUnits="userSpaceOnUse">
<stop stop-color="#E3E3E3"/>
<stop offset="1" stop-color="#DFDFDF"/>
</linearGradient>
<linearGradient id="paint39_linear_247_376" x1="26654.9" y1="-3490.8" x2="31659.8" y2="-5683.24" gradientUnits="userSpaceOnUse">
<stop stop-color="#E3E3E3"/>
<stop offset="1" stop-color="#F5F5F5"/>
</linearGradient>
<linearGradient id="paint40_linear_247_376" x1="27012.3" y1="15515.6" x2="30010.7" y2="20258.8" gradientUnits="userSpaceOnUse">
<stop stop-color="#E3E3E3"/>
<stop offset="1" stop-color="#E3E3E3"/>
</linearGradient>
<linearGradient id="paint41_linear_247_376" x1="-32.4998" y1="504.303" x2="240.534" y2="542.309" gradientUnits="userSpaceOnUse">
<stop stop-color="#E3E3E3"/>
<stop offset="1" stop-color="#C6C6C6"/>
</linearGradient>
<linearGradient id="paint42_linear_247_376" x1="2964.53" y1="11208.8" x2="2272.22" y2="14839.8" gradientUnits="userSpaceOnUse">
<stop stop-color="#E3E3E3"/>
<stop offset="1" stop-color="#DDDDDD"/>
</linearGradient>
<linearGradient id="paint43_linear_247_376" x1="23550.8" y1="-34160" x2="18996.7" y2="-17986.4" gradientUnits="userSpaceOnUse">
<stop stop-color="#E3E3E3"/>
<stop offset="1" stop-color="#E3E3E3"/>
</linearGradient>
<linearGradient id="paint44_linear_247_376" x1="10272.5" y1="21429.8" x2="7816.84" y2="30150.2" gradientUnits="userSpaceOnUse">
<stop stop-color="#E3E3E3"/>
<stop offset="1" stop-color="#E9E9E9"/>
</linearGradient>
<linearGradient id="paint45_linear_247_376" x1="50726.3" y1="-24764.7" x2="43946.1" y2="-13777.8" gradientUnits="userSpaceOnUse">
<stop stop-color="#E3E3E3"/>
<stop offset="1" stop-color="#E3E3E3"/>
</linearGradient>
<linearGradient id="paint46_linear_247_376" x1="516.937" y1="347.99" x2="402.017" y2="493.194" gradientUnits="userSpaceOnUse">
<stop stop-color="#E3E3E3"/>
<stop offset="1" stop-color="#F1F1F1"/>
</linearGradient>
<linearGradient id="paint47_linear_247_376" x1="51685.4" y1="-26963.3" x2="68985.2" y2="-22545.9" gradientUnits="userSpaceOnUse">
<stop stop-color="#E3E3E3"/>
<stop offset="1" stop-color="#D7D7D7"/>
</linearGradient>
<linearGradient id="paint48_linear_247_376" x1="818.402" y1="555.13" x2="760.912" y2="367.719" gradientUnits="userSpaceOnUse">
<stop stop-color="#E3E3E3"/>
<stop offset="1" stop-color="#C8C8C8"/>
</linearGradient>
<linearGradient id="paint49_linear_247_376" x1="87043.4" y1="15789.8" x2="98371.5" y2="30166.3" gradientUnits="userSpaceOnUse">
<stop stop-color="#E3E3E3"/>
<stop offset="1" stop-color="#C8C8C8"/>
</linearGradient>
<linearGradient id="paint50_linear_247_376" x1="101082" y1="17885.9" x2="101004" y2="32935.3" gradientUnits="userSpaceOnUse">
<stop stop-color="#E3E3E3"/>
<stop offset="1" stop-color="#F9F9F9"/>
</linearGradient>
<linearGradient id="paint51_linear_247_376" x1="1196.5" y1="547.165" x2="1257.4" y2="443.983" gradientUnits="userSpaceOnUse">
<stop stop-color="#E3E3E3"/>
<stop offset="1" stop-color="#FBFBFB"/>
</linearGradient>
<linearGradient id="paint52_linear_247_376" x1="1297.24" y1="635.737" x2="1549.87" y2="460.28" gradientUnits="userSpaceOnUse">
<stop stop-color="#E3E3E3"/>
<stop offset="1" stop-color="#BCBCBC"/>
</linearGradient>
<linearGradient id="paint53_linear_247_376" x1="62363.6" y1="-18338.9" x2="70217.9" y2="-38644" gradientUnits="userSpaceOnUse">
<stop stop-color="#E3E3E3"/>
<stop offset="1" stop-color="#CECECE"/>
</linearGradient>
<linearGradient id="paint54_linear_247_376" x1="-132.631" y1="-5743.79" x2="-5860.84" y2="-1986.13" gradientUnits="userSpaceOnUse">
<stop stop-color="#E3E3E3"/>
<stop offset="1" stop-color="#D0D0D0"/>
</linearGradient>
<linearGradient id="paint55_linear_247_376" x1="2904.11" y1="-12955.4" x2="8411.51" y2="-8401.09" gradientUnits="userSpaceOnUse">
<stop stop-color="#E3E3E3"/>
<stop offset="1" stop-color="#EFEFEF"/>
</linearGradient>
<linearGradient id="paint56_linear_247_376" x1="9416.6" y1="14951.5" x2="3688.93" y2="5342.86" gradientUnits="userSpaceOnUse">
<stop stop-color="#E3E3E3"/>
<stop offset="1" stop-color="#D9D9D9"/>
</linearGradient>
<linearGradient id="paint57_linear_247_376" x1="11679.8" y1="14712" x2="55276.2" y2="32170.7" gradientUnits="userSpaceOnUse">
<stop stop-color="#E3E3E3"/>
<stop offset="1" stop-color="#D5D5D5"/>
</linearGradient>
<linearGradient id="paint58_linear_247_376" x1="19124.4" y1="-6759.32" x2="22088.5" y2="-19966.3" gradientUnits="userSpaceOnUse">
<stop stop-color="#E3E3E3"/>
<stop offset="1" stop-color="#DFDFDF"/>
</linearGradient>
<linearGradient id="paint59_linear_247_376" x1="27612" y1="-10613.9" x2="29736.9" y2="-8308.94" gradientUnits="userSpaceOnUse">
<stop stop-color="#E3E3E3"/>
<stop offset="1" stop-color="#D9D9D9"/>
</linearGradient>
<linearGradient id="paint60_linear_247_376" x1="46870.3" y1="-11078.6" x2="44100.5" y2="-21798.1" gradientUnits="userSpaceOnUse">
<stop stop-color="#E3E3E3"/>
<stop offset="1" stop-color="#E3E3E3"/>
</linearGradient>
<linearGradient id="paint61_linear_247_376" x1="93333.2" y1="-8133.39" x2="81955.2" y2="9865.02" gradientUnits="userSpaceOnUse">
<stop stop-color="#E3E3E3"/>
<stop offset="1" stop-color="#E1E1E1"/>
</linearGradient>
<linearGradient id="paint62_linear_247_376" x1="723.045" y1="767.635" x2="786.793" y2="606.297" gradientUnits="userSpaceOnUse">
<stop stop-color="#E3E3E3"/>
<stop offset="1" stop-color="#C0C0C0"/>
</linearGradient>
<linearGradient id="paint63_linear_247_376" x1="119748" y1="-6931.54" x2="116638" y2="-21470.6" gradientUnits="userSpaceOnUse">
<stop stop-color="#E3E3E3"/>
<stop offset="1" stop-color="#E1E1E1"/>
</linearGradient>
<linearGradient id="paint64_linear_247_376" x1="66950" y1="-11718.7" x2="75816.6" y2="-22729.2" gradientUnits="userSpaceOnUse">
<stop stop-color="#E3E3E3"/>
<stop offset="1" stop-color="white"/>
</linearGradient>
<linearGradient id="paint65_linear_247_376" x1="53020.3" y1="9465.96" x2="52152.1" y2="6854.67" gradientUnits="userSpaceOnUse">
<stop stop-color="#E3E3E3"/>
<stop offset="1" stop-color="#D0D0D0"/>
</linearGradient>
<linearGradient id="paint66_linear_247_376" x1="58442.6" y1="17065.3" x2="56759.3" y2="13096.7" gradientUnits="userSpaceOnUse">
<stop stop-color="#E3E3E3"/>
<stop offset="1" stop-color="#C4C4C4"/>
</linearGradient>
<linearGradient id="paint67_linear_247_376" x1="26580.2" y1="3593.77" x2="32718" y2="5513.69" gradientUnits="userSpaceOnUse">
<stop stop-color="#E3E3E3"/>
<stop offset="1" stop-color="#EDEDED"/>
</linearGradient>
<linearGradient id="paint68_linear_247_376" x1="66070.4" y1="8795.29" x2="62709" y2="14806.3" gradientUnits="userSpaceOnUse">
<stop stop-color="#E3E3E3"/>
<stop offset="1" stop-color="#DDDDDD"/>
</linearGradient>
<linearGradient id="paint69_linear_247_376" x1="-1131.22" y1="4458.44" x2="284.128" y2="3256.04" gradientUnits="userSpaceOnUse">
<stop stop-color="#E3E3E3"/>
<stop offset="1" stop-color="#D7D7D7"/>
</linearGradient>
<linearGradient id="paint70_linear_247_376" x1="-5868.48" y1="-433.162" x2="-800.748" y2="-2996.52" gradientUnits="userSpaceOnUse">
<stop stop-color="#E3E3E3"/>
<stop offset="1" stop-color="#F5F5F5"/>
</linearGradient>
<linearGradient id="paint71_linear_247_376" x1="3536.27" y1="8949.24" x2="-8443.59" y2="-3584.27" gradientUnits="userSpaceOnUse">
<stop stop-color="#E3E3E3"/>
<stop offset="1" stop-color="#F3F3F3"/>
</linearGradient>
<linearGradient id="paint72_linear_247_376" x1="21532.9" y1="7436.57" x2="43376.3" y2="1867.14" gradientUnits="userSpaceOnUse">
<stop stop-color="#E3E3E3"/>
<stop offset="1" stop-color="#DFDFDF"/>
</linearGradient>
<linearGradient id="paint73_linear_247_376" x1="46596.7" y1="240.094" x2="43049.8" y2="-15579.2" gradientUnits="userSpaceOnUse">
<stop stop-color="#E3E3E3"/>
<stop offset="1" stop-color="#FBFBFB"/>
</linearGradient>
<linearGradient id="paint74_linear_247_376" x1="29544.1" y1="3265.86" x2="43578.2" y2="4306.67" gradientUnits="userSpaceOnUse">
<stop stop-color="#E3E3E3"/>
<stop offset="1" stop-color="white"/>
</linearGradient>
<linearGradient id="paint75_linear_247_376" x1="11435.5" y1="-6388.62" x2="12708.6" y2="13951.4" gradientUnits="userSpaceOnUse">
<stop stop-color="#E3E3E3"/>
<stop offset="1" stop-color="#F3F3F3"/>
</linearGradient>
<linearGradient id="paint76_linear_247_376" x1="744.527" y1="914.068" x2="878.993" y2="767.079" gradientUnits="userSpaceOnUse">
<stop stop-color="#E3E3E3"/>
<stop offset="1" stop-color="#EBEBEB"/>
</linearGradient>
<linearGradient id="paint77_linear_247_376" x1="83206.8" y1="3441.11" x2="75220.8" y2="-18451.1" gradientUnits="userSpaceOnUse">
<stop stop-color="#E3E3E3"/>
<stop offset="1" stop-color="#CECECE"/>
</linearGradient>
<linearGradient id="paint78_linear_247_376" x1="95794.3" y1="-9887.14" x2="106865" y2="1405.84" gradientUnits="userSpaceOnUse">
<stop stop-color="#E3E3E3"/>
<stop offset="1" stop-color="#D2D2D2"/>
</linearGradient>
<linearGradient id="paint79_linear_247_376" x1="95892.3" y1="-7132.93" x2="130292" y2="5460.03" gradientUnits="userSpaceOnUse">
<stop stop-color="#E3E3E3"/>
<stop offset="1" stop-color="#E3E3E3"/>
</linearGradient>
<linearGradient id="paint80_linear_247_376" x1="93336.5" y1="1745.5" x2="95434.7" y2="-7755.99" gradientUnits="userSpaceOnUse">
<stop stop-color="#E3E3E3"/>
<stop offset="1" stop-color="#EBEBEB"/>
</linearGradient>
<linearGradient id="paint81_linear_247_376" x1="1338.09" y1="709.829" x2="1155.12" y2="907.78" gradientUnits="userSpaceOnUse">
<stop stop-color="#E3E3E3"/>
<stop offset="1" stop-color="#DBDBDB"/>
</linearGradient>
<linearGradient id="paint82_linear_247_376" x1="63238.6" y1="-966.443" x2="64113.9" y2="-6893.54" gradientUnits="userSpaceOnUse">
<stop stop-color="#E3E3E3"/>
<stop offset="1" stop-color="#CCCCCC"/>
</linearGradient>
<linearGradient id="paint83_linear_247_376" x1="61204" y1="-2421.94" x2="64991.3" y2="6969.63" gradientUnits="userSpaceOnUse">
<stop stop-color="#E3E3E3"/>
<stop offset="1" stop-color="#EFEFEF"/>
</linearGradient>
<linearGradient id="paint84_linear_247_376" x1="963.305" y1="819.01" x2="800.737" y2="1149.3" gradientUnits="userSpaceOnUse">
<stop stop-color="#E3E3E3"/>
<stop offset="1" stop-color="#CACACA"/>
</linearGradient>
<linearGradient id="paint85_linear_247_376" x1="33891.7" y1="7969.55" x2="34589.2" y2="2703.31" gradientUnits="userSpaceOnUse">
<stop stop-color="#E3E3E3"/>
<stop offset="1" stop-color="#F1F1F1"/>
</linearGradient>
<linearGradient id="paint86_linear_247_376" x1="64334.9" y1="-6467.71" x2="65178.7" y2="1821.66" gradientUnits="userSpaceOnUse">
<stop stop-color="#E3E3E3"/>
<stop offset="1" stop-color="#EDEDED"/>
</linearGradient>
<linearGradient id="paint87_linear_247_376" x1="56396.4" y1="842.477" x2="62688.5" y2="-2346.14" gradientUnits="userSpaceOnUse">
<stop stop-color="#E3E3E3"/>
<stop offset="1" stop-color="#EDEDED"/>
</linearGradient>
<linearGradient id="paint88_linear_247_376" x1="64475.5" y1="-320.746" x2="64443.8" y2="816.987" gradientUnits="userSpaceOnUse">
<stop/>
<stop offset="1" stop-color="#F3F3F3"/>
</linearGradient>
<linearGradient id="paint89_linear_247_376" x1="20727.9" y1="-42041.2" x2="17554.7" y2="-55426" gradientUnits="userSpaceOnUse">
<stop stop-color="#E70082"/>
<stop offset="1" stop-color="#E70082" stop-opacity="0.63"/>
</linearGradient>
<linearGradient id="paint90_linear_247_376" x1="1417.6" y1="439.216" x2="1223.48" y2="606.846" gradientUnits="userSpaceOnUse">
<stop stop-color="#E70082"/>
<stop offset="1" stop-color="#E70082" stop-opacity="0.8"/>
</linearGradient>
<linearGradient id="paint91_linear_247_376" x1="14240.5" y1="-3549.02" x2="2173.22" y2="15108.9" gradientUnits="userSpaceOnUse">
<stop offset="0.0001" stop-color="#E70082" stop-opacity="0.8"/>
<stop offset="0.307292" stop-color="#4A5568"/>
<stop offset="1" stop-color="#E70082"/>
<stop offset="1" stop-color="#E70082" stop-opacity="0.63"/>
</linearGradient>
</defs>
</svg>
