<svg width="444" height="444" viewBox="0 0 444 444" fill="none" xmlns="http://www.w3.org/2000/svg">
<g filter="url(#filter0_d_307_19)">
<circle cx="222" cy="218" r="218" fill="white"/>
</g>
<path d="M321.126 204.531V176H297.722V204.531H232.778V176H209.374V204.531H144.43V176H121.611V204.531H87.0911V230.469H121.611V259H144.43V230.469H209.374V259H232.778V230.469H297.722V259H321.126V230.469H356.231V204.531H321.126Z" fill="#E70082" fill-opacity="0.2"/>
<path d="M308.4 234.267H300.267V340H308.4V234.267Z" fill="#4A5568"/>
<path d="M121.333 283.067V194.007C121.333 145.207 162.407 104.133 210.8 104.133V96C157.933 96 113.2 140.733 113.2 194.007V287.133C113.2 289.573 114.827 291.2 117.267 291.2H202.667V340H210.8V291.2H227.067V283.067H206.733H121.333Z" fill="#4A5568"/>
<path d="M153.867 189.533V222.067C153.867 224.507 155.493 226.133 157.933 226.133H174.2V218H162V189.533H153.867Z" fill="#4A5568"/>
<path d="M328.733 152.933V140.733C328.733 138.293 327.107 136.667 324.667 136.667H313.28C312.873 136.26 312.873 135.447 312.467 135.04L320.193 127.313C321.007 126.5 321.413 125.687 321.413 124.467C321.413 123.247 321.007 122.433 320.193 121.62L303.113 104.54C301.487 102.913 299.047 102.913 297.42 104.54L289.693 112.267C288.88 112.267 288.473 111.86 288.067 111.86V100.067C288.067 97.6267 286.44 96 284 96H259.6C257.16 96 255.533 97.6267 255.533 100.067V111.453C255.127 111.86 254.313 111.86 253.907 112.267L246.18 104.54C244.553 102.913 242.113 102.913 240.487 104.54L223.407 121.62C222.593 122.433 222.187 123.247 222.187 124.467C222.187 125.687 222.593 126.5 223.407 127.313L231.133 135.04C231.133 135.853 230.727 136.26 230.727 136.667H218.933C216.493 136.667 214.867 138.293 214.867 140.733V152.933H223V144.8H233.167C234.387 144.8 235.2 144.393 236.013 143.58C237.233 142.767 240.08 135.853 240.08 134.227C240.08 133.007 239.673 132.193 238.86 131.38L231.947 124.467L243.333 113.08L250.247 119.993C251.06 120.807 251.873 121.213 253.093 121.213C253.907 121.213 254.72 120.807 255.533 120.4C256.347 119.993 259.6 118.773 260.413 118.367C262.447 117.96 263.667 116.333 263.667 114.3V104.133H279.933V114.3C279.933 115.52 280.34 116.333 281.153 117.147C281.967 118.367 288.88 121.213 290.507 121.213C291.727 121.213 292.54 120.807 293.353 119.993L300.267 113.08L311.653 124.467L304.74 131.38C303.927 132.193 303.52 133.007 303.52 134.227C303.52 135.04 303.927 135.853 304.333 136.667C304.74 137.48 305.96 140.733 306.367 141.547C306.773 143.58 308.4 144.8 310.433 144.8H320.6V152.933H328.733Z" fill="#4A5568"/>
<path d="M271.8 136.667C262.853 136.667 255.533 143.987 255.533 152.933H263.667C263.667 148.46 267.327 144.8 271.8 144.8C276.273 144.8 279.933 148.46 279.933 152.933H288.066C288.066 143.987 280.747 136.667 271.8 136.667Z" fill="#4A5568"/>
<path d="M300.267 189.533H290.1C288.88 189.533 288.067 189.94 287.253 190.753C286.033 191.567 283.187 198.48 283.187 200.107C283.187 201.327 283.593 202.14 284.407 202.953L291.32 209.867L279.933 221.253L273.02 214.34C272.207 213.527 271.393 213.12 270.173 213.12C269.36 213.12 268.547 213.527 267.733 213.933C266.92 214.34 263.667 215.56 262.853 215.967C260.82 216.373 259.6 218 259.6 220.033V230.2H243.333V220.033C243.333 218.813 242.927 218 242.113 217.187C241.3 215.967 234.387 213.12 232.76 213.12C231.54 213.12 230.727 213.527 229.913 214.34L223 221.253L211.613 209.867L218.527 202.547C219.34 201.733 219.747 200.92 219.747 199.7C219.747 198.887 219.34 198.073 218.933 197.26C218.527 196.447 217.307 193.193 216.9 192.38C216.493 190.347 214.867 189.127 212.833 189.127H202.667V180.993H194.533V193.193C194.533 195.633 196.16 197.26 198.6 197.26H209.987C210.393 197.667 210.393 198.48 210.8 198.887L203.073 206.613C202.26 207.427 201.853 208.24 201.853 209.46C201.853 210.68 202.26 211.493 203.073 212.307L220.153 229.387C221.78 231.013 224.22 231.013 225.847 229.387L233.573 221.66C234.387 222.067 234.793 222.067 235.2 222.473V234.267C235.2 236.707 236.827 238.333 239.267 238.333H263.667C266.107 238.333 267.733 236.707 267.733 234.267V222.88C268.14 222.473 268.953 222.473 269.36 222.067L276.68 229.793C278.307 231.42 280.747 231.42 282.373 229.793L299.453 212.713C300.267 211.9 300.673 211.087 300.673 209.867C300.673 208.647 300.267 207.833 299.453 207.02L291.727 199.293C292.133 198.48 292.133 198.073 292.54 197.667H304.333C306.773 197.667 308.4 196.04 308.4 193.6V181.4H300.267V189.533Z" fill="#4A5568"/>
<path d="M235.2 181.4C235.2 190.347 242.52 197.667 251.467 197.667C260.413 197.667 267.733 190.347 267.733 181.4H259.6C259.6 185.873 255.94 189.533 251.467 189.533C246.993 189.533 243.333 185.873 243.333 181.4H235.2Z" fill="#4A5568"/>
<path d="M332.8 161.067H324.667V169.2H332.8V161.067Z" fill="#4A5568"/>
<path d="M316.533 161.067H308.4V169.2H316.533V161.067Z" fill="#4A5568"/>
<path d="M300.267 161.067H292.133V169.2H300.267V161.067Z" fill="#4A5568"/>
<path d="M284 161.067H275.867V169.2H284V161.067Z" fill="#4A5568"/>
<path d="M267.733 161.067H259.6V169.2H267.733V161.067Z" fill="#4A5568"/>
<path d="M251.467 161.067H243.333V169.2H251.467V161.067Z" fill="#4A5568"/>
<path d="M235.2 161.067H227.067V169.2H235.2V161.067Z" fill="#4A5568"/>
<path d="M218.933 161.067H210.8V169.2H218.933V161.067Z" fill="#4A5568"/>
<path d="M202.667 161.067H194.533V169.2H202.667V161.067Z" fill="#4A5568"/>
<defs>
<filter id="filter0_d_307_19" x="0" y="0" width="444" height="444" filterUnits="userSpaceOnUse" color-interpolation-filters="sRGB">
<feFlood flood-opacity="0" result="BackgroundImageFix"/>
<feColorMatrix in="SourceAlpha" type="matrix" values="0 0 0 0 0 0 0 0 0 0 0 0 0 0 0 0 0 0 127 0" result="hardAlpha"/>
<feOffset dy="4"/>
<feGaussianBlur stdDeviation="2"/>
<feComposite in2="hardAlpha" operator="out"/>
<feColorMatrix type="matrix" values="0 0 0 0 0 0 0 0 0 0 0 0 0 0 0 0 0 0 0.41 0"/>
<feBlend mode="normal" in2="BackgroundImageFix" result="effect1_dropShadow_307_19"/>
<feBlend mode="normal" in="SourceGraphic" in2="effect1_dropShadow_307_19" result="shape"/>
</filter>
</defs>
</svg>
