<svg width="444" height="444" viewBox="0 0 444 444" fill="none" xmlns="http://www.w3.org/2000/svg">
<g filter="url(#filter0_d_307_16)">
<circle cx="222" cy="218" r="218" fill="white"/>
</g>
<path opacity="0.3" d="M321.832 207.531V179H298.429V207.531H233.484V179H210.081V207.531H145.136V179H122.318V207.531H87.7974V233.469H122.318V262H145.136V233.469H210.081V262H233.484V233.469H298.429V262H321.832V233.469H356.937V207.531H321.832Z" fill="#E70082"/>
<path d="M291.057 229.192H283.63V325.692H291.057V229.192Z" fill="#4A5568"/>
<path d="M120.237 273.731V192.448C120.237 147.91 157.744 110.423 201.934 110.423V103C153.659 103 112.811 143.827 112.811 192.448V277.442C112.811 279.669 114.296 281.154 116.524 281.154H194.507V325.692H201.934V281.154H216.788V273.731H198.22H120.237Z" fill="#4A5568"/>
<path d="M142.518 210.635V236.615C142.518 238.842 144.004 240.327 146.232 240.327H164.799V232.904H149.945V210.635H142.518Z" fill="#4A5568"/>
<path d="M260.978 139.002C260.607 137.517 259.122 136.404 257.636 136.404C256.151 136.404 254.665 137.517 254.294 139.002L243.525 171.292C243.154 172.035 242.782 172.777 242.782 173.519V296V325.692H250.209V299.712H253.923H261.35H265.063V325.692H272.49V296V173.519C272.49 172.777 272.119 171.663 271.747 171.292L260.978 139.002ZM257.636 151.992L263.578 169.808H251.695L257.636 151.992ZM250.209 292.289V177.231H253.923V292.289H250.209ZM261.35 292.289V177.231H265.063V292.289H261.35Z" fill="#4A5568"/>
<path d="M261.35 114.135H253.923V121.558H261.35V114.135Z" fill="#4A5568"/>
<path d="M276.203 114.135H268.776V121.558H276.203V114.135Z" fill="#4A5568"/>
<path d="M291.057 114.135H283.63V121.558H291.057V114.135Z" fill="#4A5568"/>
<path d="M231.641 114.135H224.214V121.558H231.641V114.135Z" fill="#4A5568"/>
<path d="M246.496 114.135H239.069V121.558H246.496V114.135Z" fill="#4A5568"/>
<path d="M305.911 128.981H298.484V136.404H305.911V128.981Z" fill="#4A5568"/>
<path d="M305.911 143.827H298.484V151.25H305.911V143.827Z" fill="#4A5568"/>
<path d="M305.911 158.673H298.484V166.096H305.911V158.673Z" fill="#4A5568"/>
<path d="M305.911 173.519H298.484V180.942H305.911V173.519Z" fill="#4A5568"/>
<path d="M305.911 188.365H298.484V195.788H305.911V188.365Z" fill="#4A5568"/>
<path d="M216.788 128.981H209.361V136.404H216.788V128.981Z" fill="#4A5568"/>
<path d="M216.788 143.827H209.361V151.25H216.788V143.827Z" fill="#4A5568"/>
<path d="M216.788 158.673H209.361V166.096H216.788V158.673Z" fill="#4A5568"/>
<path d="M216.788 173.519H209.361V180.942H216.788V173.519Z" fill="#4A5568"/>
<path d="M216.788 188.365H209.361V195.788H216.788V188.365Z" fill="#4A5568"/>
<path d="M231.641 188.365H224.214V195.788H231.641V188.365Z" fill="#4A5568"/>
<path d="M291.057 188.365H283.63V195.788H291.057V188.365Z" fill="#4A5568"/>
<defs>
<filter id="filter0_d_307_16" x="0" y="0" width="444" height="444" filterUnits="userSpaceOnUse" color-interpolation-filters="sRGB">
<feFlood flood-opacity="0" result="BackgroundImageFix"/>
<feColorMatrix in="SourceAlpha" type="matrix" values="0 0 0 0 0 0 0 0 0 0 0 0 0 0 0 0 0 0 127 0" result="hardAlpha"/>
<feOffset dy="4"/>
<feGaussianBlur stdDeviation="2"/>
<feComposite in2="hardAlpha" operator="out"/>
<feColorMatrix type="matrix" values="0 0 0 0 0 0 0 0 0 0 0 0 0 0 0 0 0 0 0.41 0"/>
<feBlend mode="normal" in2="BackgroundImageFix" result="effect1_dropShadow_307_16"/>
<feBlend mode="normal" in="SourceGraphic" in2="effect1_dropShadow_307_16" result="shape"/>
</filter>
</defs>
</svg>
