<svg width="444" height="444" viewBox="0 0 444 444" fill="none" xmlns="http://www.w3.org/2000/svg">
<g filter="url(#filter0_d_307_15)">
<circle cx="222" cy="218" r="218" fill="white"/>
</g>
<path d="M321.128 224.531V196H297.725V224.531H232.78V196H209.376V224.531H144.432V196H121.613V224.531H87.0933V250.469H121.613V279H144.432V250.469H209.376V279H232.78V250.469H297.725V279H321.128V250.469H356.233V224.531H321.128Z" fill="#E70082" fill-opacity="0.2"/>
<path d="M132.265 292.778V210.044C132.265 164.711 168.382 126.556 210.936 126.556V119C164.448 119 125.113 160.556 125.113 210.044V296.556C125.113 298.822 126.543 300.333 128.689 300.333H203.784V345.667H210.936V300.333H225.239V292.778H207.36H132.265Z" fill="#4A5568"/>
<path d="M160.873 205.889V236.111C160.873 238.378 162.303 239.889 164.448 239.889H178.752V232.333H168.024V205.889H160.873Z" fill="#4A5568"/>
<path d="M307.486 319.222V307.889C307.486 305.622 306.055 304.111 303.91 304.111H296.758V243.667H303.91C306.055 243.667 307.486 242.156 307.486 239.889V179.444C307.486 177.178 306.055 175.667 303.91 175.667H282.454C280.309 175.667 278.878 177.178 278.878 179.444V205.889H271.726V179.444C271.726 177.178 270.296 175.667 268.15 175.667H246.695C244.549 175.667 243.119 177.178 243.119 179.444V239.889C243.119 242.156 244.549 243.667 246.695 243.667H253.847V304.111H246.695C244.549 304.111 243.119 305.622 243.119 307.889V319.222C237.04 319.222 232.391 324.133 232.391 330.556V341.889C232.391 344.156 233.821 345.667 235.967 345.667H314.638C316.783 345.667 318.214 344.156 318.214 341.889V330.556C318.214 324.133 313.565 319.222 307.486 319.222ZM250.271 236.111V183.222H264.575V205.889H257.423V213.444H268.15H282.454H293.182V205.889H286.03V183.222H300.334V236.111H293.182C291.036 236.111 289.606 237.622 289.606 239.889V251.222H260.999V243.667H271.726V236.111H257.423H250.271ZM260.999 258.778H289.606V304.111H260.999V258.778ZM250.271 311.667H257.423H293.182H300.334V319.222H250.271V311.667ZM311.062 338.111H239.543V330.556C239.543 328.289 240.973 326.778 243.119 326.778H246.695H303.91H307.486C309.631 326.778 311.062 328.289 311.062 330.556V338.111Z" fill="#4A5568"/>
<path d="M195.559 182.089L235.967 139.4L258.496 163.2C259.926 164.711 262.072 164.711 263.502 163.2L293.182 131.844V141.667H300.334V122.778C300.334 120.511 298.904 119 296.758 119H278.879V126.556H288.176L260.999 155.267L238.471 131.467C237.04 129.956 234.895 129.956 233.464 131.467L190.553 176.8L195.559 182.089Z" fill="#4A5568"/>
<path d="M264.574 221H257.423V228.556H264.574V221Z" fill="#4A5568"/>
<path d="M278.878 221H271.727V228.556H278.878V221Z" fill="#4A5568"/>
<path d="M293.182 221H286.03V228.556H293.182V221Z" fill="#4A5568"/>
<defs>
<filter id="filter0_d_307_15" x="0" y="0" width="444" height="444" filterUnits="userSpaceOnUse" color-interpolation-filters="sRGB">
<feFlood flood-opacity="0" result="BackgroundImageFix"/>
<feColorMatrix in="SourceAlpha" type="matrix" values="0 0 0 0 0 0 0 0 0 0 0 0 0 0 0 0 0 0 127 0" result="hardAlpha"/>
<feOffset dy="4"/>
<feGaussianBlur stdDeviation="2"/>
<feComposite in2="hardAlpha" operator="out"/>
<feColorMatrix type="matrix" values="0 0 0 0 0 0 0 0 0 0 0 0 0 0 0 0 0 0 0.41 0"/>
<feBlend mode="normal" in2="BackgroundImageFix" result="effect1_dropShadow_307_15"/>
<feBlend mode="normal" in="SourceGraphic" in2="effect1_dropShadow_307_15" result="shape"/>
</filter>
</defs>
</svg>
