<svg width="444" height="444" viewBox="0 0 444 444" fill="none" xmlns="http://www.w3.org/2000/svg">
<g filter="url(#filter0_d_307_18)">
<circle cx="222" cy="218" r="218" fill="white"/>
</g>
<path d="M324.829 204.531V176H301.425V204.531H236.48V176H213.077V204.531H148.132V176H125.314V204.531H90.7937V230.469H125.314V259H148.132V230.469H213.077V259H236.48V230.469H301.425V259H324.829V230.469H359.934V204.531H324.829Z" fill="#E70082" fill-opacity="0.2"/>
<path d="M296.907 233.067H289.327V331H296.907V233.067Z" fill="#4A5568"/>
<path d="M122.579 278.267V195.777C122.579 150.577 160.856 112.533 205.953 112.533V105C156.687 105 115 146.433 115 195.777V282.033C115 284.293 116.516 285.8 118.79 285.8H198.374V331H205.953V285.8H221.112V278.267H202.164H122.579Z" fill="#4A5568"/>
<path d="M152.897 191.633V221.767C152.897 224.027 154.413 225.533 156.687 225.533H171.846V218H160.477V191.633H152.897Z" fill="#4A5568"/>
<path d="M256.357 105C223.007 105 195.721 132.12 195.721 165.267C195.721 193.893 215.807 218.377 243.851 224.027V244.367H240.061C237.787 244.367 236.272 245.873 236.272 248.133V297.1C236.272 299.36 237.787 300.867 240.061 300.867H243.851V312.167C243.851 314.427 245.367 315.933 247.641 315.933H266.589C268.863 315.933 270.379 314.427 270.379 312.167V300.867H274.169C276.443 300.867 277.959 299.36 277.959 297.1V248.133C277.959 245.873 276.443 244.367 274.169 244.367H270.379V224.027C297.665 217.623 316.993 193.517 316.993 165.267C316.993 132.12 289.707 105 256.357 105ZM262.8 308.4H251.43V300.867H262.8V308.4ZM270.379 293.333H266.589H247.641H243.851V285.8H259.01V278.267H243.851V266.967H259.01V259.433H243.851V251.9H247.641H266.589H270.379V293.333ZM265.831 217.247C263.937 217.623 262.8 219.13 262.8 221.013V244.367H251.43V221.013C251.43 219.13 250.294 217.623 248.399 217.247C222.25 213.48 203.301 191.633 203.301 165.267C203.301 136.263 227.176 112.533 256.357 112.533C285.538 112.533 309.413 136.263 309.413 165.267C309.413 190.88 291.223 212.727 265.831 217.247Z" fill="#4A5568"/>
<path d="M256.736 120.067H255.599C255.599 120.067 255.599 120.067 255.22 120.067C230.208 120.82 210.88 140.783 210.88 165.267C210.88 190.127 231.345 210.467 256.357 210.467C278.716 210.467 298.423 193.14 301.076 170.917C301.455 170.163 301.834 169.787 301.834 169.033C301.834 168.657 301.834 167.903 301.834 167.527C302.213 166.773 302.213 166.02 302.213 165.267C302.213 140.407 281.748 120.067 256.736 120.067ZM294.633 165.267H259.389V157.733H277.958V150.2H259.389V142.667H270.379V135.133H259.389V127.6C279.095 129.107 294.633 145.303 294.633 165.267ZM256.357 202.933C235.514 202.933 218.46 185.983 218.46 165.267C218.46 146.057 232.482 130.613 251.43 127.977V169.033C251.43 171.293 252.946 172.8 255.22 172.8H255.599H293.117C289.707 190.127 274.169 202.933 256.357 202.933Z" fill="#4A5568"/>
<defs>
<filter id="filter0_d_307_18" x="0" y="0" width="444" height="444" filterUnits="userSpaceOnUse" color-interpolation-filters="sRGB">
<feFlood flood-opacity="0" result="BackgroundImageFix"/>
<feColorMatrix in="SourceAlpha" type="matrix" values="0 0 0 0 0 0 0 0 0 0 0 0 0 0 0 0 0 0 127 0" result="hardAlpha"/>
<feOffset dy="4"/>
<feGaussianBlur stdDeviation="2"/>
<feComposite in2="hardAlpha" operator="out"/>
<feColorMatrix type="matrix" values="0 0 0 0 0 0 0 0 0 0 0 0 0 0 0 0 0 0 0.41 0"/>
<feBlend mode="normal" in2="BackgroundImageFix" result="effect1_dropShadow_307_18"/>
<feBlend mode="normal" in="SourceGraphic" in2="effect1_dropShadow_307_18" result="shape"/>
</filter>
</defs>
</svg>
