<svg width="444" height="444" viewBox="0 0 444 444" fill="none" xmlns="http://www.w3.org/2000/svg">
<g filter="url(#filter0_d_307_17)">
<circle cx="222" cy="218" r="218" fill="white"/>
</g>
<path d="M321.128 204.531V176H297.725V204.531H232.78V176H209.376V204.531H144.432V176H121.613V204.531H87.0933V230.469H121.613V259H144.432V230.469H209.376V259H232.78V230.469H297.725V259H321.128V230.469H356.233V204.531H321.128Z" fill="#E70082" fill-opacity="0.2"/>
<path d="M283.8 270.2H276.267V338H283.8V270.2Z" fill="#4A5568"/>
<path d="M110.533 285.267V202.777C110.533 160.213 143.68 123.677 186.243 119.533L185.49 112C139.16 116.52 103 156.447 103 202.777V289.033C103 291.293 104.507 292.8 106.767 292.8H185.867V338H193.4V292.8H208.467V285.267H189.633H110.533Z" fill="#4A5568"/>
<path d="M140.667 198.633V228.767C140.667 231.027 142.173 232.533 144.433 232.533H159.5V225H148.2V198.633H140.667Z" fill="#4A5568"/>
<path d="M302.633 112H204.7C202.44 112 200.933 113.507 200.933 115.767V172.267H208.467V119.533H298.867V179.8H291.333V187.333H302.633C304.893 187.333 306.4 185.827 306.4 183.567V115.767C306.4 113.507 304.893 112 302.633 112Z" fill="#4A5568"/>
<path d="M232.197 135.73L220.897 147.03C219.39 148.537 219.39 150.797 220.897 152.303L232.197 163.603L237.47 158.33L228.807 149.667L237.47 141.003L232.197 135.73Z" fill="#4A5568"/>
<path d="M249.75 166.104L264.741 136.121L258.004 132.752L243.012 162.736L249.75 166.104Z" fill="#4A5568"/>
<path d="M275.137 135.73L269.864 141.003L278.527 149.667L269.864 158.33L275.137 163.603L286.437 152.303C287.944 150.797 287.944 148.537 286.437 147.03L275.137 135.73Z" fill="#4A5568"/>
<path d="M280.033 179.8H182.1C179.84 179.8 178.333 181.307 178.333 183.567V251.367C178.333 253.627 179.84 255.133 182.1 255.133H222.027L251.03 284.137C251.783 284.89 252.537 285.267 253.667 285.267C254.043 285.267 254.797 285.267 255.173 284.89C256.68 284.513 257.433 283.007 257.433 281.5V255.133H280.033C282.293 255.133 283.8 253.627 283.8 251.367V183.567C283.8 181.307 282.293 179.8 280.033 179.8ZM276.267 247.6H253.667C251.407 247.6 249.9 249.107 249.9 251.367V272.46L226.17 248.73C225.417 247.977 224.663 247.6 223.533 247.6H185.867V187.333H276.267V247.6Z" fill="#4A5568"/>
<path d="M216 194.867H208.467V240.067H216V194.867Z" fill="#4A5568"/>
<path d="M200.933 198.633H193.4V206.167H200.933V198.633Z" fill="#4A5568"/>
<path d="M200.933 213.7H193.4V221.233H200.933V213.7Z" fill="#4A5568"/>
<path d="M200.933 228.767H193.4V236.3H200.933V228.767Z" fill="#4A5568"/>
<path d="M268.733 198.633H223.533V206.167H268.733V198.633Z" fill="#4A5568"/>
<path d="M268.733 213.7H223.533V221.233H268.733V213.7Z" fill="#4A5568"/>
<path d="M268.733 228.767H223.533V236.3H268.733V228.767Z" fill="#4A5568"/>
<defs>
<filter id="filter0_d_307_17" x="0" y="0" width="444" height="444" filterUnits="userSpaceOnUse" color-interpolation-filters="sRGB">
<feFlood flood-opacity="0" result="BackgroundImageFix"/>
<feColorMatrix in="SourceAlpha" type="matrix" values="0 0 0 0 0 0 0 0 0 0 0 0 0 0 0 0 0 0 127 0" result="hardAlpha"/>
<feOffset dy="4"/>
<feGaussianBlur stdDeviation="2"/>
<feComposite in2="hardAlpha" operator="out"/>
<feColorMatrix type="matrix" values="0 0 0 0 0 0 0 0 0 0 0 0 0 0 0 0 0 0 0.41 0"/>
<feBlend mode="normal" in2="BackgroundImageFix" result="effect1_dropShadow_307_17"/>
<feBlend mode="normal" in="SourceGraphic" in2="effect1_dropShadow_307_17" result="shape"/>
</filter>
</defs>
</svg>
